<?xml version="1.0" standalone="no"?><!DOCTYPE svg PUBLIC "-//W3C//DTD SVG 1.1//EN" "http://www.w3.org/Graphics/SVG/1.1/DTD/svg11.dtd"><svg t="1596808447696" class="icon" viewBox="0 0 1024 1024" version="1.1" xmlns="http://www.w3.org/2000/svg" p-id="2449" xmlns:xlink="http://www.w3.org/1999/xlink" width="200" height="200"><defs><style type="text/css"></style></defs><path d="M949.248 285.696c-6.144-28.672-27.648-50.176-57.344-56.32-184.32-34.816-375.808-32.768-557.056 4.096h-1.024c-9.216 3.072-18.432 7.168-26.624 12.288-47.104 33.792-91.136 71.68-131.072 112.64-40.96 40.96-77.824 79.872-112.64 119.808-16.384 20.48-16.384 49.152 0 67.584 43.008 48.128 78.848 86.016 111.616 118.784 40.96 40.96 84.992 79.872 131.072 113.664 0 0 1.024 0 1.024 1.024 9.216 6.144 18.432 10.24 28.672 11.264C430.08 808.96 527.36 819.2 624.64 819.2c89.088 0 179.2-8.192 267.264-24.576 28.672-6.144 51.2-27.648 57.344-56.32C964.608 661.504 972.8 585.728 972.8 512s-8.192-149.504-23.552-226.304z m-40.96 444.416c-2.048 12.288-12.288 21.504-24.576 23.552-179.2 33.792-365.568 31.744-540.672-4.096h-1.024c-4.096-1.024-8.192-2.048-11.264-5.12C286.72 711.68 243.712 674.816 204.8 634.88c-32.768-32.768-67.584-69.632-109.568-116.736-3.072-4.096-3.072-9.216 0-13.312 34.816-38.912 70.656-77.824 109.568-116.736s81.92-75.776 125.952-108.544c4.096-3.072 9.216-5.12 14.336-6.144 175.104-35.84 361.472-37.888 539.648-4.096 12.288 2.048 22.528 12.288 24.576 23.552C923.648 367.616 931.84 441.344 931.84 512s-8.192 144.384-23.552 218.112z m-133.12-319.488L673.792 512l101.376 101.376c8.192 8.192 8.192 20.48 0 28.672-4.096 4.096-9.216 6.144-14.336 6.144s-10.24-2.048-14.336-6.144L645.12 540.672l-101.376 101.376c-4.096 4.096-9.216 6.144-14.336 6.144s-10.24-2.048-14.336-6.144c-8.192-8.192-8.192-20.48 0-28.672l101.376-101.376-101.376-101.376c-8.192-8.192-8.192-20.48 0-28.672s20.48-8.192 28.672 0l101.376 101.376 101.376-101.376c8.192-8.192 20.48-8.192 28.672 0 8.192 8.192 8.192 20.48 0 28.672z" p-id="2450"></path></svg>