<?xml version="1.0" standalone="no"?><!DOCTYPE svg PUBLIC "-//W3C//DTD SVG 1.1//EN" "http://www.w3.org/Graphics/SVG/1.1/DTD/svg11.dtd"><svg t="1596872335164" class="icon" viewBox="0 0 1024 1024" version="1.1" xmlns="http://www.w3.org/2000/svg" p-id="3948" xmlns:xlink="http://www.w3.org/1999/xlink" width="200" height="200"><defs><style type="text/css"></style></defs><path d="M500.011707 197.906732l-299.707317 249.756097c-13.461854 11.214049-5.532098 33.117659 11.988293 33.117659h599.414634c17.52039 0 25.450146-21.90361 11.988293-33.117659l-299.707317-249.756097a18.731707 18.731707 0 0 0-23.976586 0z m11.988293 38.762146L759.970341 443.317073H264.017171L512 236.668878zM512 505.756098a18.731707 18.731707 0 0 1 18.644293 16.933463L530.731707 524.487805v199.804878a18.731707 18.731707 0 0 1-37.376 1.798244L493.268293 724.292683V524.487805a18.731707 18.731707 0 0 1 18.731707-18.731707zM299.707317 505.756098a18.731707 18.731707 0 0 1 18.644293 16.933463L318.439024 524.487805v199.804878a18.731707 18.731707 0 0 1-37.376 1.798244L280.97561 724.292683V524.487805a18.731707 18.731707 0 0 1 18.731707-18.731707zM724.292683 505.756098a18.731707 18.731707 0 0 1 18.644293 16.933463L743.02439 524.487805v199.804878a18.731707 18.731707 0 0 1-37.376 1.798244L705.560976 724.292683V524.487805a18.731707 18.731707 0 0 1 18.731707-18.731707zM768 792.97561a18.731707 18.731707 0 0 1 1.798244 37.376l-1.798244 0.087414H237.268293a18.731707 18.731707 0 0 1-1.798244-37.376L237.268293 792.97561h530.731707z" fill="#6F6D6D" p-id="3949"></path></svg>