<?xml version="1.0" standalone="no"?><!DOCTYPE svg PUBLIC "-//W3C//DTD SVG 1.1//EN" "http://www.w3.org/Graphics/SVG/1.1/DTD/svg11.dtd"><svg t="1596872456738" class="icon" viewBox="0 0 1024 1024" version="1.1" xmlns="http://www.w3.org/2000/svg" p-id="2857" xmlns:xlink="http://www.w3.org/1999/xlink" width="200" height="200"><defs><style type="text/css"></style></defs><path d="M780.8 640h51.2c11.050667 0 21.333333 11.8656 21.333333 27.895467v157.5424c0 16.029867-10.282667 27.895467-21.333333 27.895466H192c-11.050667 0-21.333333-11.8656-21.333333-27.895466v-157.5424c0-16.029867 10.282667-27.895467 21.333333-27.895467h51.2v-42.666667H192c-36.078933 0-64 32.213333-64 70.562134v157.5424C128 863.7824 155.921067 896 192 896h640c36.078933 0 64-32.213333 64-70.562133v-157.5424c0-38.344533-27.921067-70.562133-64-70.562134h-51.2v42.666667z" fill="#666666" p-id="2858"></path><path d="M285.866667 853.333333a21.333333 21.333333 0 0 1-21.333334-21.333333v-384a21.333333 21.333333 0 0 1 21.333334-21.333333h196.266666V384H285.866667c-35.345067 0-64 28.654933-64 64v384c0 35.345067 28.654933 64 64 64v-42.666667z" fill="#666666" p-id="2859"></path><path d="M307.2 499.2h179.2v42.666667H307.2zM307.2 584.533333h179.2v42.666667H307.2zM307.2 669.866667h179.2v42.666666H307.2zM307.2 755.2h179.2v42.666667H307.2z" fill="#666666" p-id="2860"></path><path d="M503.466667 170.666667v682.666666h256V170.666667h-256z m0-42.666667h256c23.5648 0 42.666667 19.101867 42.666666 42.666667v682.666666c0 23.5648-19.101867 42.666667-42.666666 42.666667h-256c-23.5648 0-42.666667-19.101867-42.666667-42.666667V170.666667c0-23.5648 19.101867-42.666667 42.666667-42.666667z" fill="#666666" p-id="2861"></path><path d="M601.6 861.866667h59.733333v-187.733334h-59.733333v187.733334z m-34.133333-221.866667h128v256h-128v-256z" fill="#666666" p-id="2862"></path><path d="M546.133333 213.333333h68.266667v42.666667h-68.266667zM546.133333 298.666667h68.266667v42.666666h-68.266667zM648.533333 213.333333h68.266667v42.666667h-68.266667zM648.533333 298.666667h68.266667v42.666666h-68.266667zM546.133333 384h68.266667v42.666667h-68.266667zM648.533333 384h68.266667v42.666667h-68.266667zM546.133333 469.333333h68.266667v42.666667h-68.266667zM648.533333 469.333333h68.266667v42.666667h-68.266667zM546.133333 554.666667h68.266667v42.666666h-68.266667zM648.533333 554.666667h68.266667v42.666666h-68.266667z" fill="#666666" p-id="2863"></path></svg>