<?xml version="1.0" standalone="no"?><!DOCTYPE svg PUBLIC "-//W3C//DTD SVG 1.1//EN" "http://www.w3.org/Graphics/SVG/1.1/DTD/svg11.dtd"><svg t="1597144428552" class="icon" viewBox="0 0 1024 1024" version="1.1" xmlns="http://www.w3.org/2000/svg" p-id="2128" xmlns:xlink="http://www.w3.org/1999/xlink" width="200" height="200"><defs><style type="text/css"></style></defs><path d="M879.8 519.4c0 42.2-42.7 76.2-101.1 105.3-67.3 33.5-158 44.3-266.7 44.3-101.6 0-193.5-3.6-260.1-33.3s-107.7-70.8-107.7-116.2c0-40.5 32.9-84.8 87.3-113.5 67.5-35.6 168.1-51 280.5-51 139.4 0 263.4 14.7 325.8 65.8 28.5 23.4 42 70.1 42 98.6z" fill="#F9C933" p-id="2129"></path><path d="M512 678.6c-94.9 0-193.5-2.6-264-34.1-73.2-32.7-113.4-77.1-113.4-125.1 0-45.2 35.4-92 92.5-122 64.6-34 163.2-52 285-52 169.8 0 275.3 21.6 331.9 67.9 29.6 24.2 45.6 72.7 45.6 106.1 0 41.6-33.8 77.8-106.5 113.9-62.2 30.9-148.3 45.3-271.1 45.3z m0-313.9c-118.7 0-214.1 17.2-276 49.8-49.9 26.3-82.1 67.5-82.1 104.9 0 39.9 36.2 78 102 107.4 67 30 163.3 32.5 256.1 32.5 119.7 0 203.1-13.7 262.4-43.3 64.4-32.1 95.8-63.7 95.8-96.6 0-24.8-11.9-69.4-38.5-91.1-52.3-42.8-156.9-63.6-319.7-63.6z" fill="#603813" p-id="2130"></path><path d="M385.8 544.6c-5.3 0-9.7-4.3-9.7-9.7 0-100.2-96-124.9-100.1-125.9-5.2-1.3-8.4-6.5-7.1-11.7 1.3-5.2 6.4-8.4 11.7-7.1 1.1 0.3 114.9 29.1 114.9 144.7 0 5.4-4.3 9.7-9.7 9.7zM558.9 535.5h-0.7c-5.3-0.4-9.4-5-9-10.3 6.3-94.8-114.1-157.5-115.3-158.1-4.8-2.4-6.6-8.2-4.2-13 2.4-4.8 8.2-6.6 13-4.2 5.4 2.8 133 69 125.8 176.6-0.3 5.1-4.5 9-9.6 9z" fill="#603813" p-id="2131"></path><path d="M733.1 497.1c-3.8 0-7.5-2.3-9-6.1-36.9-92.4-120.1-121-120.9-121.2-5.1-1.7-7.8-7.2-6.1-12.2 1.7-5.1 7.2-7.8 12.2-6.1 3.8 1.3 92.6 31.8 132.8 132.4 2 5-0.4 10.6-5.4 12.6-1.2 0.4-2.4 0.6-3.6 0.6z" fill="#603813" p-id="2132"></path></svg>