<?xml version="1.0" standalone="no"?><!DOCTYPE svg PUBLIC "-//W3C//DTD SVG 1.1//EN" "http://www.w3.org/Graphics/SVG/1.1/DTD/svg11.dtd"><svg t="1597149134061" class="icon" viewBox="0 0 1024 1024" version="1.1" xmlns="http://www.w3.org/2000/svg" p-id="16157" xmlns:xlink="http://www.w3.org/1999/xlink" width="200" height="200"><defs><style type="text/css"></style></defs><path d="M626.74432 731.40224H406.016a26.44992 26.44992 0 0 1 0-52.89984h220.74368a26.44992 26.44992 0 0 1-0.01536 52.89984z m180.10624-348.16a306.78016 306.78016 0 0 0-588.14976 0.09216A159.8208 159.8208 0 0 0 66.56 542.8736v146.176a42.368 42.368 0 0 0 42.28608 42.35264h61.952a26.44992 26.44992 0 0 0 0-52.89984H119.3984v-135.6288a106.88 106.88 0 0 1 106.6752-106.83904h576.97792a106.88 106.88 0 0 1 106.68032 106.83904v135.6288H860.16a26.44992 26.44992 0 0 0 0 52.89984h60.11392A42.368 42.368 0 0 0 962.56 689.0496v-146.176a159.77984 159.77984 0 0 0-155.70944-159.64672z m-55.71072-0.09728h-213.7856V217.98912a253.54752 253.54752 0 0 1 213.7856 165.1456zM484.53632 218.3936v164.74112H274.33984a254.87872 254.87872 0 0 1 210.19648-164.74112z" fill="#2966C1" p-id="16158"></path><path d="M283.42784 860.16a128.74752 128.74752 0 1 1 129.024-128.74752A129.024 129.024 0 0 1 283.42784 860.16z m0-204.99968a76.25216 76.25216 0 1 0 76.42112 76.25216 76.42112 76.42112 0 0 0-76.42112-76.24192z m450.56 204.99968a128.74752 128.74752 0 1 1 129.024-128.74752A129.024 129.024 0 0 1 733.98272 860.16z m0-204.99968a76.25216 76.25216 0 1 0 76.42624 76.25216 76.42624 76.42624 0 0 0-76.43136-76.24192z" fill="#FD9A16" p-id="16159"></path></svg>