<?xml version="1.0" standalone="no"?><!DOCTYPE svg PUBLIC "-//W3C//DTD SVG 1.1//EN" "http://www.w3.org/Graphics/SVG/1.1/DTD/svg11.dtd"><svg t="1596872177150" class="icon" viewBox="0 0 1024 1024" version="1.1" xmlns="http://www.w3.org/2000/svg" p-id="1756" xmlns:xlink="http://www.w3.org/1999/xlink" width="200" height="200"><defs><style type="text/css"></style></defs><path d="M860.551394 358.496907c0-167.400614-159.084205-293.627481-363.647207-293.627481-12.060687 0-26.66122 9.778714-26.66122 21.839401l0 220.915435L185.288007 307.624263c-12.060687 0-21.839401 14.59644-21.839401 26.657126 0 209.586412 117.269867 318.27074 348.546278 318.27074C746.533594 652.551106 860.551394 557.984311 860.551394 358.496907zM511.994883 606.625124c-199.668529 0-296.93276-81.037664-304.397778-254.999718l294.128901 0c12.060687 0 12.519128-0.465604 12.519128-12.526291L514.245134 109.081371c174.98536 8.328689 297.967322 110.431112 297.967322 247.087515C812.212456 530.990516 722.849172 606.625124 511.994883 606.625124z" p-id="1757"></path><path d="M702.806697 687.257559c-74.956156 0-135.937019 60.980863-135.937019 135.937019s60.980863 135.937019 135.937019 135.937019 135.937019-60.980863 135.937019-135.937019S777.762853 687.257559 702.806697 687.257559zM702.806697 915.451772c-50.952462 0-92.258217-41.304731-92.258217-92.258217 0-50.952462 41.304731-92.258217 92.258217-92.258217 50.951439 0 92.258217 41.304731 92.258217 92.258217C795.064914 874.14704 753.758136 915.451772 702.806697 915.451772z" p-id="1758"></path><path d="M326.872652 687.257559c-74.956156 0-135.937019 60.980863-135.937019 135.937019s60.980863 135.937019 135.937019 135.937019 135.937019-60.980863 135.937019-135.937019S401.827785 687.257559 326.872652 687.257559zM326.872652 915.451772c-50.952462 0-92.258217-41.304731-92.258217-92.258217 0-50.952462 41.304731-92.258217 92.258217-92.258217 50.951439 0 92.258217 41.304731 92.258217 92.258217C419.129846 874.14704 377.824091 915.451772 326.872652 915.451772z" p-id="1759"></path></svg>