<?xml version="1.0" standalone="no"?><!DOCTYPE svg PUBLIC "-//W3C//DTD SVG 1.1//EN" "http://www.w3.org/Graphics/SVG/1.1/DTD/svg11.dtd"><svg t="1597149034329" class="icon" viewBox="0 0 1024 1024" version="1.1" xmlns="http://www.w3.org/2000/svg" p-id="12232" xmlns:xlink="http://www.w3.org/1999/xlink" width="200" height="200"><defs><style type="text/css"></style></defs><path d="M814.61648 518.771109c-9.375381-55.731434-33.855544-107.296033-71.35707-150.006104-41.147508-46.876907-94.795524-80.211597-154.693795-95.837233-1.562564-0.520855-3.645982-0.520855-5.729399-0.520854H438.038657c-2.083418 0-3.645982 0-5.7294 0.520854-59.898271 15.625636-113.546287 48.960326-154.693794 95.837233-37.501526 42.710071-61.981689 94.274669-71.35707 150.006104-39.584944 8.333672-69.794507 43.230926-69.794507 85.420142 0 47.918616 39.06409 86.982706 86.982706 86.982706h2.083418c21.87589 52.085453 57.814852 97.399797 104.69176 130.734487C382.828077 859.930824 445.330621 880.244151 510.437436 880.244151s127.088505-19.792472 180.215667-57.814853c46.356053-33.33469 82.295015-78.649034 104.69176-130.734486h2.083418c47.918616 0 86.982706-39.06409 86.982706-86.982706-0.520855-42.710071-30.209563-78.128179-69.794507-85.940997z" fill="#FFF4D7" p-id="12233"></path><path d="M510.437436 902.120041c-69.794507 0-136.463886-21.355036-192.716175-61.981689-45.835198-32.813835-82.295015-77.08647-106.254323-127.609359C156.777213 706.278739 114.587996 659.922686 114.587996 604.191251c0-46.356053 29.688708-87.503561 72.919634-103.129196 11.979654-54.168871 36.980671-104.69176 73.961343-146.880977 44.272635-50.522889 101.566633-85.940997 165.631739-102.608341 3.645982-1.041709 7.291963-1.562564 10.937945-1.562564h144.276704c3.645982 0 7.291963 0.520855 10.937945 1.562564 64.585961 16.667345 121.879959 52.085453 165.63174 102.608341 36.980671 42.189217 61.981689 92.712106 73.961343 146.880977 42.710071 15.104781 72.919634 56.773143 72.919633 103.129196 0 56.252289-42.189217 102.608342-96.878942 108.858596-23.959308 50.522889-60.419125 94.274669-106.254323 127.60936-55.731434 40.105799-122.400814 61.460834-192.195321 61.460834z m-269.802645-233.342828l5.7294 14.063072c20.313327 48.439471 54.168871 90.628688 96.878942 121.359105 48.960326 35.418108 106.775178 53.648016 167.194303 53.648016s118.233978-18.750763 167.194304-53.648016c43.230926-31.251272 76.565615-72.919634 96.878942-121.359105l5.729399-14.063072 15.104782 0.520854h1.562563c35.938962 0 65.106816-29.167854 65.106816-65.106816 0-30.730417-21.87589-57.814852-52.085453-64.065107l-14.583926-3.125127-2.604273-15.104781c-8.854527-51.564598-31.772126-99.483215-66.148525-139.068159-38.02238-43.75178-88.024415-74.482197-143.755849-89.066124H438.038657c-55.731434 14.583927-105.733469 45.314344-143.755849 89.066124-34.376399 39.584944-57.293998 87.503561-66.148525 139.068159l-2.604273 15.104781-14.583927 3.125127c-30.209563 6.250254-52.085453 32.813835-52.085452 64.065107 0 35.938962 29.167854 65.106816 65.106816 65.106816h1.562563l15.104781-0.520854z" fill="#EAC552" p-id="12234"></path><path d="M609.920651 702.111902c-54.689725 54.689725-144.276704 54.689725-198.966429 0-8.854527-8.854527-22.396745-8.854527-31.251272 0-8.854527 8.854527-8.854527 22.396745 0 31.251272 35.938962 35.938962 83.336724 54.168871 130.734486 54.168871s94.795524-18.229908 130.734487-54.168871c8.854527-8.854527 8.854527-22.396745 0-31.251272-8.854527-8.854527-22.917599-8.854527-31.251272 0z" fill="#E5404F" p-id="12235"></path><path d="M385.43235 544.813835m-40.105799 0a40.105799 40.105799 0 1 0 80.211598 0 40.105799 40.105799 0 1 0-80.211598 0Z" fill="#3D2A03" p-id="12236"></path><path d="M635.442523 544.813835m-40.105799 0a40.105799 40.105799 0 1 0 80.211597 0 40.105799 40.105799 0 1 0-80.211597 0Z" fill="#3D2A03" p-id="12237"></path><path d="M510.437436 416.683622c-52.085453 0-94.274669-40.626653-94.274669-90.628688 0-35.418108 10.937945-69.794507 31.772126-102.608342 17.709054-27.084435 41.668362-52.085453 72.398779-74.482197 6.771109-5.208545 15.625636-5.7294 22.9176-2.083418 7.291963 3.645982 11.979654 11.4588 11.979654 19.792472 0 42.189217 11.4588 59.898271 23.438453 79.169888 11.979654 18.750763 26.042726 40.626653 26.042727 80.211597C604.712106 376.056968 562.522889 416.683622 510.437436 416.683622z" fill="#3D2A03" p-id="12238"></path></svg>