<?xml version="1.0" standalone="no"?><!DOCTYPE svg PUBLIC "-//W3C//DTD SVG 1.1//EN" "http://www.w3.org/Graphics/SVG/1.1/DTD/svg11.dtd"><svg t="1597148994745" class="icon" viewBox="0 0 1024 1024" version="1.1" xmlns="http://www.w3.org/2000/svg" p-id="11210" xmlns:xlink="http://www.w3.org/1999/xlink" width="200" height="200"><defs><style type="text/css"></style></defs><path d="M751.2 132.5h-56.4c-9.6 0-19.1 1.8-27.9 5.7-36.2 15.9-86.1 53.7-153.2 53.7-67.2 0-117.1-37.7-153.2-53.7-8.8-3.9-18.3-5.7-27.9-5.7h-56.4c-7.7 0-15.2 3.1-20.6 8.7L54.9 347.4c-11.9 12.2-12.3 31.5-0.9 44.1l119.9 133.2c6.8 7.5 18.5 7.4 25.2-0.2l36.2-41.4V878c0 18.9 15.3 34.1 34.1 34.1H758c18.9 0 34.1-15.3 34.1-34.1V483.1l36.2 41.4c6.6 7.6 18.4 7.7 25.2 0.2l119.9-133.2c11.4-12.6 11-31.9-0.9-44.1L771.8 141.2c-5.4-5.5-12.8-8.7-20.6-8.7z" fill="#64C8FF" p-id="11211"></path><path d="M332.6 149.9c7.5 0 14.5 1.4 20.9 4.2 7.9 3.5 17 8.4 26.7 13.5 32.8 17.6 77.8 41.6 133.5 41.6s100.7-24 133.5-41.6c9.7-5.2 18.8-10 26.7-13.5 6.4-2.8 13.4-4.2 20.9-4.2h56.4c3 0 6 1.2 8.1 3.4L960 359.5c5.5 5.6 5.6 14.6 0.4 20.4L841 512.6l-35.8-40.9-30.4-34.8v441.2c0 9.3-7.5 16.8-16.8 16.8H269.4c-9.3 0-16.8-7.5-16.8-16.8V436.8l-30.4 34.8-35.8 40.9L66.9 379.9c-5.2-5.8-5.1-14.8 0.4-20.4L268 153.3c2.1-2.2 5.1-3.4 8.1-3.4h56.5m362.2-17.4c-9.6 0-19.1 1.8-27.9 5.7-36.2 15.9-86.1 53.7-153.2 53.7-67.2 0-117.1-37.7-153.2-53.7-8.8-3.9-18.3-5.7-27.9-5.7h-56.4c-7.7 0-15.2 3.1-20.6 8.7L54.9 347.4c-11.9 12.2-12.3 31.5-0.9 44.1l119.9 133.2c3.3 3.7 7.9 5.6 12.5 5.6 4.7 0 9.3-1.9 12.7-5.8l36.2-41.4V878c0 18.9 15.3 34.1 34.1 34.1H758c18.9 0 34.1-15.3 34.1-34.1V483.1l36.2 41.4c3.4 3.8 8 5.8 12.7 5.8 4.6 0 9.2-1.9 12.5-5.6l119.9-133.2c11.4-12.6 11-31.9-0.9-44.1L771.8 141.2c-5.4-5.5-12.8-8.7-20.6-8.7h-56.4z" fill="" p-id="11212"></path><path d="M238.5 515.8l-3.3-3.7v6.6zM54 391.5l119.9 133.2c6.8 7.5 18.5 7.4 25.2-0.2l23.3-26.7L71.7 330.1l-16.8 17.3c-11.9 12.2-12.3 31.5-0.9 44.1z" fill="#4F95FC" p-id="11213"></path><path d="M235.2 512.1v6.6l3.3-2.9-3.3-3.7zM71.2 355.6l128 142.4-12.8 14.6L66.9 379.9c-5.2-5.8-5.1-14.8 0.4-20.4l3.9-3.9m0.5-25.5l-16.8 17.3c-11.9 12.2-12.3 31.5-0.9 44.1l119.9 133.2c3.3 3.7 7.9 5.6 12.5 5.6 4.7 0 9.3-1.9 12.7-5.8l23.3-26.7L71.7 330.1z" fill="" p-id="11214"></path><path d="M788.9 515.8l3.2-3.7v6.6zM973.4 391.5L853.5 524.7c-6.8 7.5-18.5 7.4-25.2-0.2L805 497.8l150.7-167.7 16.8 17.3c11.9 12.2 12.2 31.5 0.9 44.1z" fill="#4F95FC" p-id="11215"></path><path d="M792.1 512.1l-3.2 3.7 3.2 2.9v-6.6zM956.2 355.6l3.9 4c5.5 5.6 5.6 14.6 0.4 20.4L841 512.6 828.2 498l128-142.4m-0.5-25.5L805 497.8l23.3 26.7c3.4 3.8 8 5.8 12.7 5.8 4.6 0 9.2-1.9 12.5-5.6l119.9-133.2c11.4-12.6 11-31.9-0.9-44.1l-16.8-17.3z" fill="" p-id="11216"></path><path d="M513.7 290.1m-19.7 0a19.7 19.7 0 1 0 39.4 0 19.7 19.7 0 1 0-39.4 0Z" fill="#FFF188" p-id="11217"></path><path d="M513.7 279c6.1 0 11.1 5 11.1 11.1s-5 11.1-11.1 11.1-11.1-5-11.1-11.1 5-11.1 11.1-11.1m0-8.7c-10.9 0-19.7 8.8-19.7 19.7s8.8 19.7 19.7 19.7c10.9 0 19.7-8.8 19.7-19.7s-8.8-19.7-19.7-19.7z" fill="" p-id="11218"></path><path d="M513.7 377.8m-19.7 0a19.7 19.7 0 1 0 39.4 0 19.7 19.7 0 1 0-39.4 0Z" fill="#FFF188" p-id="11219"></path><path d="M513.7 366.8c6.1 0 11.1 5 11.1 11.1s-5 11.1-11.1 11.1-11.1-5-11.1-11.1c0-6.2 5-11.1 11.1-11.1m0-8.7c-10.9 0-19.7 8.8-19.7 19.7s8.8 19.7 19.7 19.7c10.9 0 19.7-8.8 19.7-19.7s-8.8-19.7-19.7-19.7z" fill="" p-id="11220"></path></svg>