<?xml version="1.0" standalone="no"?><!DOCTYPE svg PUBLIC "-//W3C//DTD SVG 1.1//EN" "http://www.w3.org/Graphics/SVG/1.1/DTD/svg11.dtd"><svg t="1596872045112" class="icon" viewBox="0 0 1024 1024" version="1.1" xmlns="http://www.w3.org/2000/svg" p-id="1466" xmlns:xlink="http://www.w3.org/1999/xlink" width="200" height="200"><defs><style type="text/css"></style></defs><path d="M950.408935 324.0647 695.16874 168.313404c-2.642177-1.587148-5.675256-4.975315-8.757454-4.975315l-60.694337 0c-7.303336 0-13.783934 7.210215-16.119119 14.123672-12.920264 38.269605-49.552579 66.273403-89.093131 66.273403s-76.172867-28.641317-89.093131-66.909899c-2.335185-6.912433-8.815783-13.486152-16.119119-13.486152l-77.709873 0c-3.082198 0-6.115278 3.38919-8.757454 4.975315L73.585949 322.807057c-7.103792 4.26207-10.103102 13.665231-7.103792 21.392216l59.556421 153.504116c3.257184 8.350179 12.412704 12.93766 20.98801 10.220782l139.019217-43.87323-8.017604 384.628054c-0.091074 4.578272 1.661849 6.588045 4.860704 9.853415 3.198855 3.26537 7.577582 2.699482 12.155854 2.699482l425.399643 0c0.066515 0 0.13303 0 0.165776 0 9.405207 0 17.015535-5.189186 17.015535-14.586207 0-0.938372-0.074701-0.653893-0.215918-1.551332l-7.959276-383.989511 138.753157 46.591131c8.308223 2.733251 17.373693-1.077541 20.937868-9.078773l68.064188-153.126516C960.695209 337.631694 957.778786 328.485383 950.408935 324.0647zM864.315114 470.828298l-146.995889-49.036833c-5.259794-1.736551-11.016915-0.855484-15.470343 2.442632-4.461615 3.281743-7.037277 6.225795-6.92983 11.750625l8.150634 391.479089L312.417429 827.463812l8.150634-388.653741c0.10847-5.483898-2.426259-9.543354-6.813173-12.82612-4.3951-3.289929-10.103102-3.679809-15.329127-2.034333l-146.447397 46.591131-48.580438-127.490649 238.905158-145.94393 61.416791 0c20.588921 51.16531 66.967204 76.571956 116.785843 76.571956s96.196922-25.406646 116.785843-76.571956l44.409442 0 238.290151 145.713686L864.315114 470.828298z" p-id="1467"></path></svg>