<?xml version="1.0" standalone="no"?><!DOCTYPE svg PUBLIC "-//W3C//DTD SVG 1.1//EN" "http://www.w3.org/Graphics/SVG/1.1/DTD/svg11.dtd"><svg t="1597146649351" class="icon" viewBox="0 0 1024 1024" version="1.1" xmlns="http://www.w3.org/2000/svg" p-id="17423" xmlns:xlink="http://www.w3.org/1999/xlink" width="200" height="200"><defs><style type="text/css"></style></defs><path d="M114.812121 834.715152c-8.688485 0-15.515152-6.826667-15.515151-15.515152V527.515152c0-42.821818 34.753939-77.575758 77.575757-77.575758h136.533334c8.688485 0 15.515152 6.826667 15.515151 15.515151s-6.826667 15.515152-15.515151 15.515152H176.872727c-25.444848 0-46.545455 21.100606-46.545454 46.545455v291.684848c0 8.688485-6.826667 15.515152-15.515152 15.515152z" fill="#3B3B3B" p-id="17424"></path><path d="M909.187879 366.157576v464.833939c0 96.193939-78.196364 174.390303-174.390303 174.390303H425.735758C329.541818 1005.381818 251.345455 927.185455 251.345455 830.991515V366.157576c0-10.550303 8.067879-18.618182 18.618181-18.618182h620.606061c10.550303 0 18.618182 8.067879 18.618182 18.618182z" fill="#FFD89A" p-id="17425"></path><path d="M734.797576 1020.89697H425.735758c-104.882424 0-189.905455-85.02303-189.905455-189.905455V366.157576c0-18.618182 15.515152-34.133333 34.133333-34.133334h620.606061c18.618182 0 34.133333 15.515152 34.133333 34.133334v464.833939c0 104.882424-85.02303 189.905455-189.905454 189.905455zM269.963636 363.054545c-1.861818 0-3.10303 1.241212-3.10303 3.103031v464.833939c0 87.505455 71.369697 158.875152 158.875152 158.875152h309.061818c87.505455 0 158.875152-71.369697 158.875151-158.875152V366.157576c0-1.861818-1.241212-3.10303-3.10303-3.103031H269.963636z" fill="#3B3B3B" p-id="17426"></path><path d="M521.309091 400.290909m-15.515152 0a15.515152 15.515152 0 1 0 31.030303 0 15.515152 15.515152 0 1 0-31.030303 0Z" fill="#3A3A3A" p-id="17427"></path><path d="M315.267879 493.381818c-7.447273 0-14.273939-5.585455-15.515152-13.032727-5.585455-35.995152-0.620606-62.060606 13.653334-78.81697 11.170909-13.032727 27.927273-19.859394 49.648484-19.859394h111.709091c8.688485 0 15.515152 6.826667 15.515152 15.515152s-6.826667 15.515152-15.515152 15.515151H363.054545c-12.412121 0-20.48 3.10303-26.065454 9.309091-8.067879 9.309091-10.550303 27.927273-6.826667 53.992727 1.241212 8.688485-4.344242 16.135758-13.032727 17.37697h-1.861818z" fill="#3A3A3A" p-id="17428"></path><path d="M422.012121 772.654545m-34.133333 0a34.133333 34.133333 0 1 0 68.266667 0 34.133333 34.133333 0 1 0-68.266667 0Z" fill="#2D2D2E" p-id="17429"></path><path d="M461.110303 887.466667H382.913939c-11.170909 0-19.859394-9.929697-19.859394-21.721212s8.688485-21.721212 19.859394-21.721213h77.575758c11.170909 0 19.859394 9.929697 19.859394 21.721213 0.620606 11.791515-8.067879 21.721212-19.238788 21.721212z" fill="#F6627F" p-id="17430"></path><path d="M750.933333 772.654545m-34.133333 0a34.133333 34.133333 0 1 0 68.266667 0 34.133333 34.133333 0 1 0-68.266667 0Z" fill="#2D2D2E" p-id="17431"></path><path d="M796.237576 887.466667H718.041212c-11.170909 0-19.859394-9.929697-19.859394-21.721212s8.688485-21.721212 19.859394-21.721213h77.575758c11.170909 0 19.859394 9.929697 19.859394 21.721213 0.620606 11.791515-8.067879 21.721212-19.238788 21.721212z" fill="#F66A88" p-id="17432"></path><path d="M543.030303 862.642424c-27.306667 0-49.648485-22.341818-49.648485-50.269091 0-9.929697 8.067879-17.997576 17.997576-17.997575 9.929697 0 17.997576 8.067879 17.997576 17.997575 0 8.067879 6.206061 14.273939 14.273939 14.27394 8.067879 0 14.273939-6.206061 14.273939-14.27394 0-9.929697 8.067879-17.997576 17.997576-17.997575s17.997576 8.067879 17.997576 17.997575c-1.241212 27.927273-23.58303 50.269091-50.889697 50.269091z" fill="#2D2D2E" p-id="17433"></path><path d="M623.709091 862.642424c-27.306667 0-49.648485-22.341818-49.648485-50.269091 0-9.929697 8.067879-17.997576 17.997576-17.997575s17.997576 8.067879 17.997576 17.997575c0 8.067879 6.206061 14.273939 14.273939 14.27394 8.067879 0 14.273939-6.206061 14.273939-14.27394 0-9.929697 8.067879-17.997576 17.997576-17.997575s17.997576 8.067879 17.997576 17.997575c-1.241212 27.927273-23.58303 50.269091-50.889697 50.269091z" fill="#2D2D2E" p-id="17434"></path><path d="M757.139394 588.955152c-8.688485 0-15.515152-6.826667-15.515152-15.515152V316.509091c0-8.688485 6.826667-15.515152 15.515152-15.515152s15.515152 6.826667 15.515151 15.515152v256.930909c0 8.067879-6.826667 15.515152-15.515151 15.515152z" fill="#3B3B3B" p-id="17435"></path><path d="M719.90303 524.412121h86.884849c20.48 0 37.236364 16.756364 37.236363 37.236364v86.884848c0 20.48-16.756364 37.236364-37.236363 37.236364h-86.884849c-20.48 0-37.236364-16.756364-37.236363-37.236364v-86.884848c0-20.48 16.756364-37.236364 37.236363-37.236364z" fill="#E9B7D4" p-id="17436"></path><path d="M806.787879 701.284848h-86.884849c-29.168485 0-52.751515-23.58303-52.751515-52.751515v-86.884848c0-29.168485 23.58303-52.751515 52.751515-52.751515h86.884849c29.168485 0 52.751515 23.58303 52.751515 52.751515v86.884848c0 29.168485-23.58303 52.751515-52.751515 52.751515z m-86.884849-161.357575c-11.791515 0-21.721212 9.929697-21.721212 21.721212v86.884848c0 11.791515 9.929697 21.721212 21.721212 21.721212h86.884849c11.791515 0 21.721212-9.929697 21.721212-21.721212v-86.884848c0-11.791515-9.929697-21.721212-21.721212-21.721212h-86.884849zM359.951515 228.38303c-8.688485 0-15.515152-6.826667-15.515151-15.515151V84.402424c0-8.688485 6.826667-15.515152 15.515151-15.515151s15.515152 6.826667 15.515152 15.515151v128.465455c0 8.688485-6.826667 15.515152-15.515152 15.515151zM564.751515 160.116364c-8.688485 0-15.515152-6.826667-15.515151-15.515152V16.135758c0-8.688485 6.826667-15.515152 15.515151-15.515152S580.266667 8.067879 580.266667 16.135758v128.465454c0 8.688485-6.826667 15.515152-15.515152 15.515152zM757.139394 228.38303c-8.688485 0-15.515152-6.826667-15.515152-15.515151V84.402424c0-8.688485 6.826667-15.515152 15.515152-15.515151s15.515152 6.826667 15.515151 15.515151v128.465455c0 8.688485-6.826667 15.515152-15.515151 15.515151z" fill="#3B3B3B" p-id="17437"></path></svg>