<?xml version="1.0" standalone="no"?><!DOCTYPE svg PUBLIC "-//W3C//DTD SVG 1.1//EN" "http://www.w3.org/Graphics/SVG/1.1/DTD/svg11.dtd"><svg t="1597936417379" class="icon" viewBox="0 0 1024 1024" version="1.1" xmlns="http://www.w3.org/2000/svg" p-id="4250" xmlns:xlink="http://www.w3.org/1999/xlink" width="200" height="200"><defs><style type="text/css"></style></defs><path d="M923.8 422.3H830c-7.2-25.4-17.3-49.7-29.9-72.1l66.3-66.3c14-14 14-37.1 0-51.1L791 157.5c-14-14-37.1-14-51.1 0l-66.3 66.3c-22.6-12.6-46.7-22.9-72.1-29.9V100c0-19.8-16.3-36.2-36.2-36.2H458.7c-19.8 0-36.2 16.3-36.2 36.2v93.8c-25.4 7.2-49.7 17.3-72.1 29.9l-66.3-66.3c-14-14-37.1-14-51.1 0l-75.4 75.4c-14 14-14 37.1 0 51.1l66.3 66.3c-12.6 22.6-22.9 46.7-29.9 72.1h-93.8c-19.8 0-36.2 16.3-36.2 36.2v106.7c0 19.8 16.3 36.2 36.2 36.2h94c7.2 25.4 17.3 49.7 29.9 72.1l-66.3 66.3c-14 14-14 37.1 0 51.1l75.4 75.4c14 14 37.1 14 51.1 0l66.3-66.5c22.6 12.6 46.7 22.9 72.1 29.9v93.8c0 19.8 16.3 36.2 36.2 36.2h106.4c19.8 0 36.2-16.3 36.2-36.2v-93.8c25.4-7.2 49.7-17.3 72.1-29.9l66.3 66.3c14 14 37.1 14 51.1 0l75.4-75.4c14-14 14-37.1 0-51.1l-66.3-66.3c12.6-22.6 22.9-46.7 29.9-72.1h93.8c19.8 0 36.2-16.3 36.2-36.2V458.3c0-19.6-16.4-36-36.2-36zM512.1 686C416 686 338 608.1 338 511.9c0-96.2 77.9-174.1 174.1-174.1s174.1 77.9 174.1 174.1c0 96-77.9 174.1-174.1 174.1z" p-id="4251" fill="#1296db"></path></svg>