<?xml version="1.0" standalone="no"?><!DOCTYPE svg PUBLIC "-//W3C//DTD SVG 1.1//EN" "http://www.w3.org/Graphics/SVG/1.1/DTD/svg11.dtd"><svg t="1597147082204" class="icon" viewBox="0 0 1024 1024" version="1.1" xmlns="http://www.w3.org/2000/svg" p-id="27948" xmlns:xlink="http://www.w3.org/1999/xlink" width="200" height="200"><defs><style type="text/css"></style></defs><path d="M418.7 400H256.9c-13.7 0-24.9-11.1-24.9-24.9V138.6c0-8.5 4.3-16.4 11.5-21 7.2-4.6 16.2-5.2 23.8-1.6l161.8 74.7c8.8 4.1 14.5 12.9 14.5 22.6v161.8c-0.1 13.7-11.2 24.9-24.9 24.9z m-137-49.8h112v-121l-112-51.7v172.7z" fill="#FF6E90" p-id="27949"></path><path d="M493.3 910.3H182.2c-13.7 0-24.9-11.1-24.9-24.9V760.9c0-13.7 11.1-24.9 24.9-24.9h311.1c13.7 0 24.9 11.1 24.9 24.9v124.5c0 13.7-11.1 24.9-24.9 24.9z m-286.2-49.8h261.4v-74.7H207.1v74.7z" fill="#6893FF" p-id="27950"></path><path d="M443.5 785.8H232c-13.7 0-24.9-11.1-24.9-24.9V499.5c0-13.7 11.1-24.9 24.9-24.9 13.7 0 24.9 11.1 24.9 24.9V736h161.8V400H256.9v28.3c0 13.7-11.1 24.9-24.9 24.9-13.7 0-24.9-11.1-24.9-24.9v-53.2c0-13.7 11.1-24.9 24.9-24.9h211.6c13.7 0 24.9 11.1 24.9 24.9v385.8c-0.1 13.8-11.2 24.9-25 24.9z" fill="#6893FF" p-id="27951"></path><path d="M764 400H608.5c-10 0-19-6-22.9-15.2l-77.8-183.1c-5-11.7-0.4-25.2 10.7-31.4 0.4-0.3 11.2-6.3 28.5-14 12.6-5.6 27.3 0.1 32.9 12.6 5.6 12.6-0.1 27.3-12.6 32.9-1.5 0.7-3 1.3-4.4 2l62.2 146.4h122.6l62.7-147.7c-23.5-12.3-68.1-31.4-117.3-31.4-6.9 0-14.2 0.4-21.7 1.2-13.6 1.4-25.9-8.6-27.3-22.2-1.4-13.7 8.5-25.9 22.2-27.3 9.2-0.9 18.2-1.4 26.8-1.4 87.8 0 159.7 48 162.8 50.1 9.9 6.7 13.6 19.4 9 30.3l-77.8 183.1C783 394 774 400 764 400z" fill="#39DB8F" p-id="27952"></path><path d="M612.3 183c-11 0-21.2-7.1-24.3-18.1-3.7-13.2 3.6-26.8 16.8-30.5l1.6-0.4c13.3-3.6 26.9 4.4 30.4 17.7 3.5 13.3-4.4 26.9-17.7 30.4-2.2 0.6-4.5 0.9-6.8 0.9z" fill="#39DB8F" p-id="27953"></path><path d="M686.2 910.3c-51.2 0-93-43-93.3-96.1L568 376.5c-0.4-6.8 2.1-13.5 6.8-18.5 4.7-5 11.3-7.8 18.1-7.8h186.7c6.8 0 13.4 2.8 18.1 7.8 4.7 5 7.1 11.7 6.8 18.5l-24.9 437.7c-0.4 53-42.1 96.1-93.4 96.1z m-67-510.3l23.4 412v1.4c0 25.9 19.5 47.1 43.6 47.1s43.6-21.1 43.6-47.1V812l23.4-412h-134z" fill="#6893FF" p-id="27954"></path><path d="M686.2 804.5m-31.1 0a31.1 31.1 0 1 0 62.2 0 31.1 31.1 0 1 0-62.2 0Z" fill="#6893FF" p-id="27955"></path></svg>