<?xml version="1.0" standalone="no"?><!DOCTYPE svg PUBLIC "-//W3C//DTD SVG 1.1//EN" "http://www.w3.org/Graphics/SVG/1.1/DTD/svg11.dtd"><svg t="1597144676935" class="icon" viewBox="0 0 1024 1024" version="1.1" xmlns="http://www.w3.org/2000/svg" p-id="2863" xmlns:xlink="http://www.w3.org/1999/xlink" width="200" height="200"><defs><style type="text/css"></style></defs><path d="M511.994 565.834m-307.272 0a307.272 307.272 0 1 0 614.544 0 307.272 307.272 0 1 0-614.544 0Z" fill="#FECC85" p-id="2864"></path><path d="M594.524 428.288c-46.238 0-82.516 51.556-82.516 51.556s-34.22-51.556-82.536-51.556c-46.996 0-85.374 38.762-87.884 85.694-1.414 26.514 7.132 46.694 19.174 64.968 24.064 36.512 129.27 124.416 151.402 124.416 22.588 0 126.858-87.582 151.082-124.416 12.066-18.358 20.59-38.452 19.172-64.968-2.516-46.932-40.894-85.694-87.894-85.694" fill="#FF5E8A" p-id="2865"></path><path d="M996.554 430.772h-102.91V150.886A274.206 274.206 0 0 1 996.554 365v65.772z" fill="#BBDCE3" p-id="2866"></path><path d="M511.998 231.1c-184.57 0-334.728 150.16-334.728 334.728s150.16 334.728 334.728 334.728 334.728-150.16 334.728-334.728S696.568 231.1 511.998 231.1z m0 614.57c-154.306 0-279.844-125.538-279.844-279.844s125.538-279.844 279.844-279.844 279.844 125.538 279.844 279.844-125.538 279.844-279.844 279.844z" fill="" p-id="2867"></path><path d="M594.524 400.846c-34.86 0-63.68 19.948-82.316 37.536-18.442-17.602-47.174-37.536-82.736-37.536-61.298 0-111.938 49.05-115.288 111.672-2.016 37.826 12.538 64.648 23.664 81.532 15.2 23.062 52.244 57.454 81.848 81.94 66.248 54.816 84.622 54.816 92.47 54.816 7.944 0 26.542 0 92.456-54.722 29.378-24.39 66.23-58.752 81.558-82.058 11.116-16.916 25.664-43.768 23.642-81.506-3.358-62.624-54-111.674-115.298-111.674z m45.792 163.02c-19.74 30.016-102.374 99.336-128.09 111.09-25.944-11.926-108.906-81.3-128.552-111.108-11.2-16.992-15.59-31.472-14.688-48.402 1.762-32.928 28.894-59.718 60.484-59.718 27.162 0 52.33 28.428 59.674 39.29 4.992 7.522 13.394 12.066 22.424 12.22 9.048 0.17 17.582-4.18 22.83-11.528 7.942-11.12 34.228-39.98 60.13-39.98 31.588 0 58.724 26.79 60.486 59.72 0.914 17.116-3.344 31.144-14.698 48.416zM945.104 562.052c-15.156 0-27.442 12.288-27.442 27.442v226.614c0 15.154 12.286 27.442 27.442 27.442s27.442-12.288 27.442-27.442V589.496c0-15.154-12.29-27.444-27.442-27.444zM919.766 518.118c0.686 1.646 1.536 3.238 2.524 4.72 0.988 1.51 2.14 2.908 3.402 4.172a27.8 27.8 0 0 0 4.172 3.43 25.34 25.34 0 0 0 4.748 2.498 25.82 25.82 0 0 0 5.132 1.564c1.756 0.356 3.568 0.548 5.352 0.548 1.812 0 3.594-0.192 5.378-0.548a26.394 26.394 0 0 0 5.132-1.564 25.874 25.874 0 0 0 4.72-2.498 27.9 27.9 0 0 0 7.602-7.602c0.988-1.482 1.838-3.074 2.524-4.72a28.96 28.96 0 0 0 1.564-5.132 27.56 27.56 0 0 0 0.522-5.378c0-1.784-0.164-3.598-0.522-5.352a27.656 27.656 0 0 0-1.564-5.132 26.902 26.902 0 0 0-2.524-4.744 27.96 27.96 0 0 0-3.43-4.174 26.24 26.24 0 0 0-4.172-3.402 27.996 27.996 0 0 0-4.72-2.524 26.8 26.8 0 0 0-5.132-1.562 26.56 26.56 0 0 0-10.73 0c-1.756 0.326-3.486 0.876-5.132 1.562-1.674 0.686-3.266 1.54-4.748 2.524a26.332 26.332 0 0 0-4.172 3.402 26.168 26.168 0 0 0-3.402 4.174c-0.988 1.48-1.838 3.07-2.524 4.744a27.656 27.656 0 0 0-1.564 5.132 27.092 27.092 0 0 0-0.548 5.352c0 1.782 0.192 3.594 0.548 5.378 0.356 1.728 0.878 3.458 1.564 5.132zM910.792 129.456a27.442 27.442 0 0 0-44.586 21.43v279.886c0 15.154 12.286 27.442 27.442 27.442h102.91c15.156 0 27.442-12.288 27.442-27.442V365c0-92.136-41.266-177.986-113.208-235.544z m58.324 273.872h-48.024v-184.75c30.982 41.908 48.024 92.868 48.024 146.422v38.328zM103.822 471.492c-15.156 0-27.442 12.288-27.442 27.442v317.174c0 15.154 12.286 27.442 27.442 27.442s27.442-12.288 27.442-27.442V498.936c0.002-15.154-12.284-27.444-27.442-27.444zM88.59 439.88c1.482 0.988 3.074 1.842 4.748 2.528a28.04 28.04 0 0 0 5.132 1.536c1.756 0.356 3.568 0.548 5.352 0.548 7.218 0 14.298-2.936 19.402-8.044a28.044 28.044 0 0 0 3.43-4.172c0.988-1.482 1.812-3.074 2.498-4.72 0.686-1.674 1.234-3.402 1.564-5.16 0.356-1.76 0.548-3.57 0.548-5.352 0-1.784-0.192-3.598-0.548-5.352a25.78 25.78 0 0 0-1.564-5.132 26.93 26.93 0 0 0-2.498-4.744 27.96 27.96 0 0 0-3.43-4.174 26.24 26.24 0 0 0-4.172-3.402 27.996 27.996 0 0 0-4.72-2.524 26.8 26.8 0 0 0-5.132-1.562 26.07 26.07 0 0 0-10.73 0c-1.756 0.326-3.486 0.876-5.132 1.562-1.674 0.686-3.266 1.54-4.748 2.524a26.332 26.332 0 0 0-4.172 3.402 26.168 26.168 0 0 0-3.402 4.174 27.044 27.044 0 0 0-2.524 4.744 25.82 25.82 0 0 0-1.564 5.132 27.092 27.092 0 0 0-0.548 5.352 27.64 27.64 0 0 0 8.04 19.4 27.6 27.6 0 0 0 4.17 3.436zM180.206 366.308c15.156 0 27.442-12.288 27.442-27.442V155.814c0-15.154-12.286-27.442-27.442-27.442S152.764 140.66 152.764 155.814v155.61H131.268v-102.922c0-15.154-12.286-27.442-27.442-27.442s-27.442 12.288-27.442 27.442v102.922h-21.5V155.814c0-15.154-12.286-27.442-27.442-27.442S0 140.66 0 155.814v183.052c0 15.154 12.286 27.442 27.442 27.442h152.764z" fill="" p-id="2868"></path></svg>