<?xml version="1.0" standalone="no"?><!DOCTYPE svg PUBLIC "-//W3C//DTD SVG 1.1//EN" "http://www.w3.org/Graphics/SVG/1.1/DTD/svg11.dtd"><svg t="1597148800529" class="icon" viewBox="0 0 1024 1024" version="1.1" xmlns="http://www.w3.org/2000/svg" p-id="8179" xmlns:xlink="http://www.w3.org/1999/xlink" width="200" height="200"><defs><style type="text/css"></style></defs><path d="M538.624 700.416H148.48c-22.016 0-39.424-17.92-39.424-39.424 0-22.016 17.92-39.424 39.424-39.424h390.144c22.016 0 39.424 17.92 39.424 39.424 0 22.016-17.408 39.424-39.424 39.424z" fill="#E3EEFF" p-id="8180"></path><path d="M539.648 841.216h-5.632c-38.912 0-70.144-31.232-70.144-70.144s31.232-70.144 70.144-70.144h5.632v-79.36H174.592v79.36H307.712c38.912 0 70.144 31.232 70.144 70.144s-31.232 70.144-70.144 70.144h-133.12v79.36h365.056v-79.36z" fill="#E3EEFF" p-id="8181"></path><path d="M561.664 501.248c0-14.336-11.264-26.112-25.6-26.624h-261.12c-14.848 0-26.624 11.776-26.624 26.624s11.776 26.624 26.624 26.624h106.496c26.112 0 47.104 20.992 47.104 47.104s-20.992 47.104-47.104 47.104H292.352v52.736h243.712v-52.736h-3.584c-26.112 0-47.104-20.992-47.104-47.104s20.992-47.104 47.104-47.104h4.096c13.824-0.512 25.088-12.288 25.088-26.624zM708.096 841.216H148.48c-22.016 0-39.424 17.92-39.424 39.424 0 22.016 17.92 39.424 39.424 39.424h559.616v-78.848zM722.432 841.216h33.792v79.36h-33.792zM796.672 841.216h21.504v79.36h-21.504zM879.616 841.216H829.44v79.36h50.176c22.016 0 39.424-17.92 39.424-39.424 0-22.016-17.408-39.936-39.424-39.936z" fill="#E3EEFF" p-id="8182"></path><path d="M514.048 203.776c-11.776 0-21.504-9.728-21.504-21.504 0-11.776 9.728-21.504 21.504-21.504s21.504 9.728 21.504 21.504c0 11.776-9.728 21.504-21.504 21.504z m0-33.792c-6.656 0-12.288 5.632-12.288 12.288s5.632 12.288 12.288 12.288c6.656 0 12.288-5.632 12.288-12.288s-5.632-12.288-12.288-12.288z" fill="#2B77EF" p-id="8183"></path><path d="M829.44 154.112c-11.776 0-21.504-9.728-21.504-21.504 0-11.776 9.728-21.504 21.504-21.504 11.776 0 21.504 9.728 21.504 21.504 0.512 11.776-9.216 21.504-21.504 21.504z m0-33.792c-6.656 0-12.288 5.632-12.288 12.288 0 6.656 5.632 12.288 12.288 12.288 6.656 0 12.288-5.632 12.288-12.288 0-7.168-5.632-12.288-12.288-12.288zM140.8 520.704c-9.216 0-17.92-3.072-24.576-9.216-7.68-6.656-12.8-15.872-13.824-26.112-1.024-10.24 2.048-20.48 8.704-28.16 6.656-7.68 15.872-12.8 26.112-13.824 20.992-2.048 39.936 13.824 41.472 34.816 2.048 20.992-13.824 39.936-34.816 41.472-0.512 1.024-2.048 1.024-3.072 1.024z m0-67.584H138.24c-7.68 0.512-14.848 4.096-19.456 10.24-5.12 6.144-7.168 13.312-6.656 20.992 0.512 7.68 4.096 14.848 10.24 19.456 6.144 5.12 13.312 7.168 20.992 6.656 15.872-1.536 27.648-15.36 26.112-31.232-1.024-14.336-13.824-26.112-28.672-26.112zM807.424 849.408c-5.632 0-11.264-2.048-15.872-5.632-5.12-4.096-8.192-10.24-8.704-16.896-0.512-6.656 1.536-13.312 5.632-17.92 4.096-5.12 10.24-8.192 16.896-8.704 6.656-0.512 12.8 1.536 17.92 5.632s8.192 10.24 8.704 16.896c0.512 6.656-1.536 13.312-5.632 17.92-4.096 5.12-10.24 8.192-16.896 8.704h-2.048z m0-39.936h-1.536c-4.096 0.512-7.68 2.048-10.24 5.632-2.56 3.072-4.096 7.168-3.584 11.264 0.512 4.096 2.048 7.68 5.632 10.24 3.072 2.56 7.168 3.584 11.264 3.584 4.096-0.512 7.68-2.048 10.24-5.632 2.56-3.072 4.096-7.168 3.584-11.264-0.512-4.096-2.048-7.68-5.632-10.24-2.56-2.56-6.144-3.584-9.728-3.584z" fill="#82A0F6" p-id="8184"></path><path d="M842.24 494.592c-2.56 0-4.608-2.048-4.608-4.608V460.8l-20.992 20.992c-2.048 2.048-5.12 2.048-6.656 0-2.048-2.048-2.048-5.12 0-6.656l20.992-20.992h-29.184c-2.56 0-4.608-2.048-4.608-4.608s2.048-4.608 4.608-4.608h29.184l-20.992-20.992c-2.048-2.048-2.048-5.12 0-6.656 2.048-2.048 5.12-2.048 6.656 0l20.992 20.992v-29.184c0-2.56 2.048-4.608 4.608-4.608s4.608 2.048 4.608 4.608v29.184l20.992-20.992c2.048-2.048 5.12-2.048 6.656 0 2.048 2.048 2.048 5.12 0 6.656l-20.992 20.992h29.184c2.56 0 4.608 2.048 4.608 4.608s-2.048 4.608-4.608 4.608h-29.184l20.992 20.992c2.048 2.048 2.048 5.12 0 6.656-2.048 2.048-5.12 2.048-6.656 0l-20.992-20.992v29.184c0 2.048-2.048 4.608-4.608 4.608z" fill="#82A0F6" p-id="8185"></path><path d="M239.104 194.56c-2.56 0-4.608-2.048-4.608-4.608v-29.184l-20.992 20.992c-2.048 2.048-5.12 2.048-6.656 0-2.048-2.048-2.048-5.12 0-6.656l20.992-20.992h-29.184c-2.56 0-4.608-2.048-4.608-4.608s2.048-4.608 4.608-4.608h29.184l-20.992-20.992c-2.048-2.048-2.048-5.12 0-6.656 2.048-2.048 5.12-2.048 6.656 0l20.992 20.992v-30.72c0-2.56 2.048-4.608 4.608-4.608s4.608 2.048 4.608 4.608v29.184l20.992-20.992c2.048-2.048 5.12-2.048 6.656 0 2.048 2.048 2.048 5.12 0 6.656l-20.48 21.504h29.184c2.56 0 4.608 2.048 4.608 4.608s-2.048 4.608-4.608 4.608H250.88l20.992 20.992c2.048 2.048 2.048 5.12 0 6.656-2.048 2.048-5.12 2.048-6.656 0l-20.992-20.992v29.184c0 3.584-2.56 5.632-5.12 5.632z" fill="#82A0F6" p-id="8186"></path><path d="M916.992 694.784h-39.936c-2.56 0-4.608-2.048-4.608-4.608s2.048-4.608 4.608-4.608h39.936c2.56 0 4.608 2.048 4.608 4.608s-2.048 4.608-4.608 4.608z" fill="#82A0F6" p-id="8187"></path><path d="M897.024 714.752c-2.56 0-4.608-2.048-4.608-4.608v-39.936c0-2.56 2.048-4.608 4.608-4.608s4.608 2.048 4.608 4.608v39.936c0 2.048-2.048 4.608-4.608 4.608z" fill="#82A0F6" p-id="8188"></path><path d="M787.456 590.336c0 18.944-12.8 33.792-28.672 33.792 15.872 0 28.672 15.36 28.672 33.792 0-18.944 12.8-33.792 28.672-33.792-15.872 0-28.672-15.36-28.672-33.792z" fill="#76A6EF" p-id="8189"></path><path d="M239.104 355.84zM225.28 368.128c2.56-2.56 5.632-5.12 8.192-7.168-3.072 2.048-5.632 4.608-8.192 7.168zM183.808 467.456c0-13.312 2.048-27.136 5.632-39.936-3.584 12.8-5.632 26.624-5.632 39.936zM194.048 414.72c5.12-12.8 12.288-24.576 20.992-35.84-8.704 10.752-15.872 23.04-20.992 35.84zM225.28 567.296c-27.136-27.136-40.96-63.488-40.96-99.328-0.512 35.84 13.312 71.68 40.96 99.328l132.608 132.608L225.28 567.296z" fill="#FFFFFF" p-id="8190"></path><path d="M232.96 360.448c2.048-1.536 3.584-3.072 5.632-4.608-1.536 1.536-3.584 3.072-5.632 4.608zM398.848 405.504c-48.128-48.128-123.904-53.76-178.688-16.896-20.48 50.688-10.24 111.616 30.72 152.576l132.608 132.608 141.824-141.824-126.464-126.464z" fill="#C7DDFF" p-id="8191"></path><path d="M402.944 350.208c-49.664-32.768-116.224-30.72-163.84 5.632-6.656 8.704-12.288 18.432-16.384 28.16-0.512 1.536-1.536 3.072-2.048 4.608 54.784-36.864 130.048-31.744 178.688 16.896l126.464 126.464 31.232-31.232 1.536-1.536-126.976-126.976c-8.704-8.704-18.432-15.872-28.672-22.016z" fill="#76A6EF" p-id="8192"></path><path d="M357.376 699.392l26.112-26.112L250.88 541.184c-40.96-40.96-51.2-101.888-30.72-152.576-1.024 0.512-2.048 1.024-2.56 1.536l4.608-6.144c4.608-9.728 9.728-19.456 16.384-28.16-2.048 1.536-4.096 3.072-5.632 4.608-2.56 2.56-5.632 4.608-8.192 7.168-3.584 3.584-6.656 7.168-9.728 10.752-9.216 11.264-15.872 23.04-20.992 35.84-1.536 4.096-3.072 8.704-4.608 12.8-4.096 13.312-5.632 26.624-5.632 39.936 0 35.84 13.824 72.192 40.96 99.328l132.608 133.12z" fill="#FFFFFF" p-id="8193"></path><path d="M217.6 390.144c1.024-0.512 2.048-1.024 2.56-1.536 0.512-1.536 1.536-3.072 2.048-4.608l-4.608 6.144z" fill="#FFFFFF" p-id="8194"></path><path d="M356.864 708.608c-2.048 0-4.096-1.024-6.144-2.56l-78.336-78.336c-3.072-3.072-3.072-8.704 0-11.776 3.072-3.072 8.704-3.072 11.776 0l72.192 72.192 190.976-190.976L419.84 368.64c-25.6-25.6-59.392-39.424-95.744-39.424S253.952 343.04 228.352 368.64c-52.736 52.736-52.736 138.24 0 190.976 3.072 3.072 3.072 8.704 0 11.776-3.072 3.072-8.704 3.072-11.776 0-59.392-59.392-59.392-155.648 0-215.04 28.672-28.672 66.56-44.544 107.52-44.544s78.848 15.872 107.52 44.544l134.656 134.656c1.536 1.536 2.56 3.584 2.56 6.144 0 2.048-1.024 4.608-2.56 6.144L363.008 706.56c-1.536 1.024-4.096 2.048-6.144 2.048z" fill="#2B77EF" p-id="8195"></path><path d="M261.632 612.864c-2.048 0-4.096-1.024-6.144-2.56l-16.384-16.384c-3.072-3.072-3.072-8.704 0-11.776 3.072-3.072 8.704-3.072 11.776 0l16.384 16.384c3.072 3.072 3.072 8.704 0 11.776-1.536 2.048-3.584 2.56-5.632 2.56z" fill="#2B77EF" p-id="8196"></path><path d="M652.288 659.456c48.128 48.128 53.76 123.904 16.896 178.688-50.688 20.48-111.616 10.24-152.576-30.72L384 675.328l141.824-141.824 126.464 125.952z" fill="#F68282" p-id="8197"></path><path d="M707.072 655.872c33.28 49.664 31.232 116.224-5.632 163.84-8.704 6.656-18.432 12.288-28.16 16.384-1.536 0.512-3.072 1.536-4.608 2.048 36.864-54.784 31.744-130.048-16.896-178.688l-126.464-126.464 31.232-31.232 1.536-1.536 126.464 126.464c9.728 9.216 16.896 18.944 22.528 29.184z" fill="#E86B6B" p-id="8198"></path><path d="M358.4 700.928l26.112-26.112 132.608 132.608c40.96 40.96 101.888 51.2 152.576 30.72-0.512 1.024-1.024 2.048-1.536 2.56l6.144-4.608c9.728-4.608 19.456-9.728 28.16-16.384-1.536 2.048-3.072 4.096-4.608 5.632-2.56 2.56-4.608 5.632-7.168 8.192-3.584 3.584-7.168 6.656-10.752 9.728-11.264 9.216-23.04 15.872-35.84 20.992-4.096 1.536-8.704 3.072-12.8 4.608-13.312 4.096-26.624 5.632-39.936 5.632-35.84 0-72.192-13.824-99.328-40.96L358.4 700.928z" fill="#FFFFFF" p-id="8199"></path><path d="M593.408 886.272c-40.96 0-78.848-15.872-107.52-44.544l-134.656-134.656c-3.072-3.072-3.072-8.704 0-11.776l203.264-203.264c3.072-3.072 8.704-3.072 11.776 0l134.656 134.656c59.392 59.392 59.392 155.648 0 215.04-28.16 28.672-66.56 44.544-107.52 44.544zM369.664 701.44l128.512 128.512c25.6 25.6 59.392 39.424 95.744 39.424s70.144-13.824 95.744-39.424c52.736-52.736 52.736-138.24 0-190.976l-128.512-128.512L369.664 701.44z" fill="#2B77EF" p-id="8200"></path><path d="M675.84 214.016c-72.704 0-133.12 52.736-144.896 121.856h289.792c-12.288-69.12-72.192-121.856-144.896-121.856z" fill="#C7DDFF" p-id="8201"></path><path d="M675.84 214.016c-8.704 0-17.408 1.024-26.112 2.56 60.416 10.752 108.544 58.88 118.784 119.808h52.224c-12.288-69.632-72.192-122.368-144.896-122.368z" fill="#76A6EF" p-id="8202"></path><path d="M704 216.576c-9.216-1.536-18.432-2.56-28.16-2.56-72.704 0-133.12 52.736-144.896 121.856h56.32c10.24-59.904 56.832-107.52 116.736-119.296z" fill="#FFFFFF" p-id="8203"></path><path d="M820.736 344.576h-289.792c-2.56 0-4.608-1.024-6.656-3.072-1.536-2.048-2.048-4.608-2.048-6.656 12.8-74.752 77.312-129.024 153.088-129.024s140.288 54.272 153.088 129.024c0.512 2.56 0 5.12-2.048 6.656-1.024 2.048-3.072 3.072-5.632 3.072zM541.184 327.68h269.312c-15.36-61.44-70.144-104.96-134.656-104.96S556.544 266.24 541.184 327.68z" fill="#2B77EF" p-id="8204"></path><path d="M675.84 499.712c-72.704 0-133.12-52.736-144.896-121.856h289.792c-12.288 69.12-72.192 121.856-144.896 121.856z" fill="#C7DDFF" p-id="8205"></path><path d="M675.84 499.712c-8.704 0-17.408-1.024-26.112-2.56 60.416-10.752 108.544-58.88 118.784-119.808h52.224c-12.288 69.632-72.192 122.368-144.896 122.368z" fill="#76A6EF" p-id="8206"></path><path d="M704 497.152c-9.216 1.536-18.432 2.56-28.16 2.56-72.704 0-133.12-52.736-144.896-121.856h56.32c10.24 59.904 56.832 107.52 116.736 119.296z" fill="#FFFFFF" p-id="8207"></path><path d="M675.84 508.416c-75.776 0-140.288-54.272-153.088-129.024-0.512-2.56 0-5.12 2.048-6.656 1.536-2.048 4.096-3.072 6.656-3.072h289.792c2.56 0 4.608 1.024 6.656 3.072 1.536 2.048 2.048 4.608 2.048 6.656-13.824 74.752-78.336 129.024-154.112 129.024z m-134.656-122.368c15.36 61.44 70.144 104.96 134.656 104.96s119.296-43.52 134.656-104.96h-269.312z" fill="#2B77EF" p-id="8208"></path></svg>