<?xml version="1.0" standalone="no"?><!DOCTYPE svg PUBLIC "-//W3C//DTD SVG 1.1//EN" "http://www.w3.org/Graphics/SVG/1.1/DTD/svg11.dtd"><svg t="1597146814721" class="icon" viewBox="0 0 1024 1024" version="1.1" xmlns="http://www.w3.org/2000/svg" p-id="24316" xmlns:xlink="http://www.w3.org/1999/xlink" width="200" height="200"><defs><style type="text/css"></style></defs><path d="M748.101818 240.942545a17.361455 17.361455 0 0 1-11.52-4.352C674.071273 181.620364 594.315636 151.365818 512 151.365818s-162.071273 30.277818-224.581818 85.248a17.384727 17.384727 0 0 1-27.415273-5.911273c-8.797091-19.386182-25.506909-41.076364-34.676364-41.076363a17.454545 17.454545 0 0 1 0-34.909091c24.878545 0 44.357818 23.389091 55.808 41.774545A374.458182 374.458182 0 0 1 512 116.48c83.828364 0 165.213091 28.416 231.400727 80.430545 12.218182-18.734545 32.162909-42.193455 55.272728-42.193454a17.431273 17.431273 0 0 1 0 34.909091c-6.144 0.023273-23.505455 19.339636-35.025455 41.821091a17.408 17.408 0 0 1-15.546182 9.495272z" fill="#EFB041" p-id="24317"></path><path d="M919.970909 672.325818a17.454545 17.454545 0 0 1-16.360727-23.552 430.917818 430.917818 0 0 0 26.600727-148.596363c0-230.586182-187.624727-418.187636-418.210909-418.187637-230.609455 0-418.210909 187.601455-418.210909 418.187637 0 50.455273 9.192727 101.841455 26.600727 148.596363a17.454545 17.454545 0 0 1-32.721454 12.194909 466.059636 466.059636 0 0 1-28.765091-160.768C58.88 250.344727 262.144 47.080727 512 47.080727c249.832727 0 453.12 203.264 453.12 453.096728a466.618182 466.618182 0 0 1-28.765091 160.768 17.501091 17.501091 0 0 1-16.384 11.380363z" fill="#666666" p-id="24318"></path><path d="M241.082182 976.919273c-62.580364 0-132.305455-20.666182-169.797818-91.275637-26.577455-50.013091-31.860364-100.561455-15.662546-150.272 22.225455-68.258909 79.965091-116.782545 122.670546-137.541818a17.477818 17.477818 0 0 1 23.668363 8.797091l142.778182 332.008727a17.408 17.408 0 0 1-10.402909 23.412364c-23.761455 8.075636-57.320727 14.871273-93.253818 14.871273zM177.501091 638.114909c-35.514182 22.039273-73.425455 61.090909-88.715636 108.078546-13.125818 40.331636-8.657455 81.757091 13.288727 123.089454 47.825455 89.949091 158.743273 74.845091 202.635636 64.651636L177.501091 638.114909zM782.917818 976.919273c-35.909818 0-69.469091-6.795636-93.230545-14.894546a17.454545 17.454545 0 0 1-10.426182-23.412363l142.778182-332.008728a17.477818 17.477818 0 0 1 23.691636-8.820363c42.705455 20.805818 100.468364 69.306182 122.670546 137.565091 16.174545 49.710545 10.914909 100.258909-15.662546 150.272-37.515636 70.632727-107.240727 91.298909-169.821091 91.298909z m-63.720727-42.845091c43.938909 10.519273 154.321455 26.251636 202.705454-64.791273 21.946182-41.332364 26.437818-82.757818 13.288728-123.112727-15.290182-46.964364-53.178182-85.992727-88.738909-108.055273l-127.255273 295.959273z" fill="#666666" p-id="24319"></path></svg>