<?xml version="1.0" standalone="no"?><!DOCTYPE svg PUBLIC "-//W3C//DTD SVG 1.1//EN" "http://www.w3.org/Graphics/SVG/1.1/DTD/svg11.dtd"><svg t="1597146689665" class="icon" viewBox="0 0 1024 1024" version="1.1" xmlns="http://www.w3.org/2000/svg" p-id="19401" xmlns:xlink="http://www.w3.org/1999/xlink" width="200" height="200"><defs><style type="text/css"></style></defs><path d="M234.15 383.99c-13.16-16.51-52.64-59.7-107.65-62.96-14.85-0.88-19.55-21.14-6.55-28.35 18.68-10.35 45.55-17.01 82.27-8.38 14.55 3.42 26.16-12.15 18.51-24.99-8.4-14.1-18.34-29.76-28.2-42.94-8.99-12.03 1.22-29.04 16.05-26.72 20.88 3.27 44.71 9.57 64.5 21.55 12.26 7.43 27.57-2.86 25.39-17.03-5.16-33.55-7.16-65.21 3.13-69.26 14.68-5.79 46.22 40.38 65.2 76.43 6.62 12.58 24.73 11.92 30.39-1.12 9.4-21.65 22.25-47.62 35.93-64.59 18.18-22.56 31.94-16.69 29.59 12.19-1.75 21.5-3.15 50.82-0.53 73.27 1.72 14.73 20.46 20.11 29.78 8.57 18.8-23.25 50.5-55.53 81.98-56.07 14.39-0.25 21.54 17.59 11.88 28.27-30.75 33.99-89.72 106.82-65.08 141.32 29.55 41.39-223.54 46.49-273.41 47.09-5.15 0.06-9.95-2.22-13.18-6.28z" fill="#B1F1A8" p-id="19402"></path><path d="M247.15 401.38c-8.49 0-16.38-3.8-21.69-10.46-13.31-16.69-49.65-55.83-99.62-58.8-11.67-0.69-21.28-8.93-23.91-20.5-2.61-11.5 2.46-23.02 12.63-28.66 25.8-14.3 56.15-17.48 90.2-9.48 3.47 0.81 5.45-1.3 6.15-2.24 0.82-1.13 1.96-3.43 0.28-6.24-10-16.77-19.27-30.89-27.55-41.98-6.82-9.12-7.42-21.35-1.52-31.14 5.89-9.78 16.96-14.96 28.19-13.2 27.32 4.28 50.38 12.03 68.53 23.03 2.82 1.71 5.24 0.48 6.15-0.13 0.92-0.62 3.01-2.41 2.5-5.71-8.07-52.47-5.25-75.26 10.04-81.29 15.92-6.27 32.61 11.82 43.78 25.98 11.54 14.62 24.41 34.89 35.32 55.6 1.55 2.94 4.24 3.16 5.32 3.12 1.08-0.04 3.73-0.46 5.05-3.49 12.9-29.71 25.51-52.29 37.47-67.14 15.43-19.14 27.63-19.58 35.16-16.58 7.57 3.02 16.17 11.83 14.16 36.64-1.66 20.43-3.1 49.34-0.56 71.08 0.39 3.33 2.97 4.43 4.06 4.75 1.11 0.32 3.91 0.78 6.05-1.87 21.93-27.13 55.42-59.59 90.43-60.19h0.48c10.67 0 20.04 6.09 24.54 15.99 4.71 10.37 2.86 22.47-4.71 30.83-53.52 59.16-78.15 107.98-64.28 127.41 6.81 9.54 4.36 17.8 2.29 21.88-6.49 12.79-27.65 27.09-135.45 36.14-60.75 5.1-124.54 6.34-149.15 6.63-0.11 0.02-0.23 0.02-0.34 0.02z m-77.38-109.95c-16.38 0-31.24 3.66-44.43 10.97-1.99 1.11-2.05 2.95-1.74 4.3 0.26 1.15 1.07 3.09 3.56 3.24 58.89 3.49 100.51 48.11 115.67 67.13 1.09 1.37 2.67 2.12 4.39 2.09 24.12-0.29 86.66-1.5 146.38-6.46 33.8-2.81 61.25-6.37 81.58-10.61 26.3-5.48 34.19-10.72 36.36-12.72-26.77-38.12 21.11-105.28 66.07-154.97 1.97-2.18 1.79-4.91 0.95-6.74-0.62-1.38-1.9-2.99-4.41-2.96-20.62 0.35-46.73 18.8-73.53 51.95-7.08 8.75-18.66 12.38-29.5 9.24-10.98-3.18-18.63-12.19-19.95-23.51-2.75-23.55-1.25-54.03 0.49-75.46 0.58-7.1-0.06-11.11-0.65-13.15-1.79 1.07-4.91 3.48-9.22 8.83-10.56 13.1-22.45 34.56-34.39 62.04-4.33 9.98-13.76 16.43-24.59 16.84-10.83 0.41-20.74-5.33-25.81-14.97-9.16-17.39-20.06-34.9-29.93-48.06-10.75-14.33-17.38-19.75-20.61-21.77-1.26 5.15-2.6 19.31 3.01 55.81 1.67 10.88-2.97 21.44-12.11 27.56-9.12 6.1-20.62 6.35-30.01 0.66-15.67-9.49-36.01-16.25-60.46-20.08-3.36-0.53-5.12 1.72-5.71 2.72-0.6 1-1.78 3.62 0.28 6.38 8.75 11.7 18.46 26.47 28.85 43.91 5.83 9.79 5.28 21.57-1.44 30.75-6.68 9.12-18.12 13.34-29.16 10.74-10.48-2.47-20.46-3.7-29.94-3.7z m342.37 58.88z" fill="#6D6DAA" p-id="19403"></path><path d="M676.84 566.3c26.81 160.27-66.27 309.41-207.92 333.12s-278.2-87-305.01-247.27c-1.07-6.38-1.95-12.75-2.64-19.09-16.68-152.86 74.55-291.26 210.55-314.02 141.65-23.72 278.2 86.99 305.02 247.26z" fill="#FFC661" p-id="19404"></path><path d="M430.28 913.75c-58.09 0-115.11-20.78-163.92-60.35-59.72-48.41-99.99-119.23-113.41-199.42-1.09-6.53-2.01-13.17-2.73-19.72-8.38-76.74 9.32-152.45 49.82-213.17C241 359.7 301.35 319.56 369.99 308.07c71.69-12 144.28 8.23 204.4 56.97 59.72 48.41 99.99 119.23 113.41 199.42 13.42 80.19-1.61 160.27-42.32 225.48-40.98 65.66-103.03 108.42-174.72 120.42a243.846 243.846 0 0 1-40.48 3.39z m-19.91-586.82c-12.22 0-24.49 1.01-36.72 3.06-129.01 21.59-217.45 154.18-201.34 301.86 0.67 6.13 1.53 12.35 2.55 18.46 12.52 74.84 49.98 140.83 105.49 185.83 55.1 44.67 121.42 63.25 186.74 52.32 135.37-22.66 224.55-166.35 198.79-320.33C653.36 493.29 615.9 427.3 560.4 382.3c-44.79-36.3-96.98-55.37-150.03-55.37z" fill="#6D6DAA" p-id="19405"></path><path d="M261.53 679.47c-14.69 0-29.79-1.81-45.15-5.44-34.79-8.24-58.55-22.86-59.55-23.48l11.73-18.87-5.87 9.43 5.85-9.44c0.22 0.13 22.19 13.57 53.63 20.9 41.2 9.6 78.54 4.74 110.98-14.45 56.44-33.39 95.23-25.62 132.74-18.1 21.98 4.4 42.74 8.56 67.62 4.83 30.43-4.56 43.57-18.55 58.78-34.74 17.23-18.35 36.77-39.15 82.15-45.42l3.04 22.01c-37.61 5.2-52.85 21.43-69 38.62-16.53 17.6-33.63 35.81-71.68 41.51-28.73 4.3-52.39-0.44-75.27-5.02-36.46-7.31-67.95-13.61-117.06 15.44-24.93 14.74-53.07 22.22-82.94 22.22zM245.86 583.63c-5.63 0-11.33-0.27-17.1-0.8-29.8-2.75-55.13-12.08-71.13-19.43l9.27-20.19c31.24 14.34 92.3 33.29 150.24-0.99 56.44-33.39 95.23-25.62 132.74-18.11 21.98 4.4 42.73 8.56 67.62 4.83 30.43-4.56 43.57-18.55 58.78-34.74 14.36-15.29 30.63-32.62 62.37-41.4l5.93 21.41c-25.73 7.12-38.54 20.76-52.1 35.2-16.53 17.6-33.63 35.81-71.68 41.51-28.73 4.3-52.39-0.44-75.27-5.02-36.46-7.3-67.95-13.61-117.06 15.44-25.07 14.83-52.78 22.29-82.61 22.29zM239.52 486.06c-19.7 0-37.73-3.24-52.59-7.29l5.85-21.43c30.23 8.25 75.27 12.75 118.17-12.64 56.44-33.39 95.23-25.62 132.74-18.1 21.98 4.4 42.73 8.56 67.62 4.83 30.43-4.56 43.57-18.55 58.78-34.74 3.54-3.77 7.21-7.68 11.15-11.51l15.48 15.93c-3.58 3.48-7.07 7.2-10.44 10.79-16.53 17.6-33.63 35.81-71.68 41.51-28.72 4.3-52.39-0.44-75.27-5.02-36.46-7.31-67.95-13.61-117.06 15.44-28.16 16.64-56.88 22.23-82.75 22.23zM277.11 775.57c-34 0-63.91-9.75-83.33-18.11l8.79-20.4c30.45 13.12 89.89 30.19 145.87-2.93 56.44-33.39 95.23-25.62 132.74-18.11 21.98 4.4 42.73 8.56 67.62 4.83 30.43-4.56 43.57-18.55 58.78-34.74 15.51-16.51 33.08-35.23 69.86-43.25l4.73 21.71c-30.04 6.55-43.82 21.22-58.4 36.75-16.53 17.6-33.63 35.81-71.68 41.51-28.73 4.3-52.39-0.44-75.27-5.02-36.46-7.3-67.95-13.61-117.06 15.44-28 16.56-56.53 22.32-82.65 22.32zM283.94 861.69l-0.3-22.21c26.97-0.37 52.09-7.03 74.66-19.81 59.35-33.59 99.97-26.11 139.25-18.88 23.23 4.28 45.18 8.32 71.63 4.39 31.55-4.68 45.77-16.95 62.41-33.77l15.79 15.63c-18.4 18.59-36.74 34.45-74.94 40.12-30.11 4.47-54.92-0.1-78.92-4.52-37.01-6.81-71.96-13.25-124.28 16.37-25.86 14.62-54.56 22.26-85.3 22.68z" fill="#6D6DAA" p-id="19406"></path><path d="M263.77 661.16c-52.87 0-103.15-21.63-106.18-22.95l8.91-20.35-4.45 10.18 4.45-10.18c0.97 0.42 97.78 41.97 154.79 7.25 56.16-34.2 95.15-26.18 132.86-18.43 22.02 4.53 42.81 8.8 67.62 5.09 30.43-4.56 43.57-18.55 58.78-34.74 17.23-18.35 36.77-39.15 82.15-45.42l3.04 22.01c-37.6 5.2-52.85 21.43-68.99 38.62-16.53 17.6-33.63 35.81-71.68 41.51-28.71 4.3-52.44-0.58-75.38-5.3-36.56-7.52-68.14-14.01-116.83 15.64-20.83 12.66-45.23 17.07-69.09 17.07zM249.83 567.08c-6.95 0-13.98-0.56-21.08-1.68-25.7-4.06-47.54-14.56-63.48-22.23-2.97-1.43-5.77-2.78-8.31-3.94l9.27-20.19c2.72 1.25 5.61 2.64 8.67 4.11 30.89 14.85 77.58 37.3 130.47 6.01 57.67-34.12 97.14-29.69 135.32-25.41 20.2 2.27 41.09 4.61 65.04 1.02 30.43-4.56 43.57-18.55 58.78-34.74 14.36-15.29 30.63-32.62 62.37-41.4l5.93 21.41c-25.73 7.12-38.54 20.76-52.1 35.2-16.53 17.6-33.63 35.81-71.68 41.51-26.82 4.02-49.18 1.51-70.81-0.92-37.7-4.23-70.26-7.88-121.52 22.45-21.17 12.5-43.58 18.8-66.87 18.8zM243.3 468.14c-18.08 0-34.13-4.38-49.92-8.69l5.85-21.43c30.81 8.4 57.41 15.66 99.91-9.48 56.19-33.25 94.85-24.54 132.24-16.13 22.16 4.99 43.09 9.7 68.15 5.94 30.43-4.56 43.57-18.55 58.78-34.74 3.54-3.77 7.21-7.67 11.15-11.51l15.48 15.93c-3.58 3.48-7.07 7.2-10.44 10.79-16.53 17.6-33.63 35.81-71.68 41.51-29.17 4.37-53.14-1.02-76.32-6.24-36.19-8.15-67.45-15.18-116.05 13.58-26.14 15.46-47.8 20.47-67.15 20.47zM288.36 756.17c-10.88 0-22.51-1.15-34.88-3.44-30.01-5.57-57.67-16.64-75.87-24.48l8.79-20.4c68.59 29.56 118.98 34.11 149.76 13.53 57.26-38.28 96.48-28.96 134.42-19.94 21.63 5.14 42.07 10 66.46 6.35 30.43-4.56 43.57-18.55 58.78-34.74 15.51-16.51 33.08-35.23 69.86-43.25l4.73 21.71c-30.04 6.55-43.82 21.22-58.4 36.75-16.53 17.6-33.63 35.81-71.68 41.51-28.64 4.29-52.15-1.3-74.88-6.7-36.34-8.64-67.73-16.09-116.93 16.8-16.27 10.84-36.42 16.3-60.16 16.3zM261.06 848.61l-0.3-22.21c30.17-0.41 53.74-6.62 74.2-19.53 61.8-39.01 102.44-29.78 141.74-20.86 22.49 5.11 43.74 9.94 69.59 6.09 31.55-4.68 45.77-16.95 62.41-33.77l15.79 15.63c-18.4 18.59-36.74 34.45-74.94 40.12-29.97 4.45-54.27-1.07-77.78-6.41-38.07-8.64-70.96-16.11-124.96 17.98-23.73 14.99-51.78 22.5-85.75 22.96z" fill="#F5DAAA" p-id="19407"></path><path d="M797.05 337.48L764.21 220.9c0.11-1.68-2.42-2.67-3.45-1.34-15.08 19.49-59.37 94.79-96.27 101.97" fill="#FFFFFF" p-id="19408"></path><path d="M786.35 340.49l-27.77-98.59c-21.53 31.37-57.53 83.83-91.96 90.53l-4.25-21.81c25.52-4.97 60.91-56.54 77.92-81.33 4.84-7.06 8.67-12.63 11.68-16.53 3.46-4.47 9.42-6.11 14.83-4.06 4.54 1.71 7.67 5.62 8.37 10.16l32.56 115.61-21.38 6.02z" fill="#6D6DAA" p-id="19409"></path><path d="M700.18 154.47c11.37 27.62 52.37 97.28 169.35 67.11 3.83-0.99 4.25-6.23 0.59-7.71l-163.36-65.92c-4.12-1.65-8.27 2.43-6.58 6.52z" fill="#D6B5B0" p-id="19410"></path><path d="M815.45 240.16c-29.08 0-54.6-7.06-76.26-21.14-29.06-18.9-43.35-45.9-49.29-60.31a16.055 16.055 0 0 1 3.47-17.44c4.6-4.63 11.48-6.05 17.53-3.61l163.36 65.92c6.08 2.45 9.88 8.49 9.45 15.02-0.43 6.58-5.02 12.1-11.42 13.75-20.2 5.2-39.18 7.81-56.84 7.81z m-98.12-75.96c15.64 26.99 51.26 63.32 127.13 51.3l-127.13-51.3z m-6.88-13.96c0 0.01 0 0.01 0 0 0 0.01 0 0.01 0 0z" fill="#6D6DAA" p-id="19411"></path><path d="M430.28 913.75c-58.09 0-115.11-20.78-163.92-60.35-59.72-48.41-99.99-119.23-113.41-199.42-1.09-6.53-2.01-13.17-2.73-19.72-8.38-76.74 9.32-152.45 49.82-213.17C241 359.7 301.35 319.56 369.99 308.07c71.69-12 144.28 8.23 204.4 56.97 59.72 48.41 99.99 119.23 113.41 199.42 13.42 80.19-1.61 160.27-42.32 225.48-40.98 65.66-103.03 108.42-174.72 120.42a243.846 243.846 0 0 1-40.48 3.39z m-19.91-586.82c-12.22 0-24.49 1.01-36.72 3.06-129.01 21.59-217.45 154.18-201.34 301.86 0.67 6.13 1.53 12.35 2.55 18.46 12.52 74.84 49.98 140.83 105.49 185.83 55.1 44.67 121.42 63.25 186.74 52.32 135.37-22.66 224.55-166.35 198.79-320.33C653.36 493.29 615.9 427.3 560.4 382.3c-44.79-36.3-96.98-55.37-150.03-55.37z" fill="#6D6DAA" p-id="19412"></path><path d="M702.11 387.28a60.52 60.53 0 1 0 121.04 0 60.52 60.53 0 1 0-121.04 0Z" fill="#8A8AC1" p-id="19413"></path><path d="M762.78 458.94c-3.77 0-7.56-0.3-11.35-0.9-18.9-2.99-35.5-13.16-46.75-28.64-23.22-31.95-16.12-76.84 15.83-100.07 15.48-11.25 34.41-15.8 53.31-12.81 18.9 2.99 35.5 13.16 46.75 28.64 23.22 31.95 16.12 76.84-15.83 100.07-12.37 9-26.95 13.71-41.96 13.71z m-0.26-121.09c-10.35 0-20.41 3.25-28.94 9.45-22.04 16.02-26.94 46.99-10.92 69.04 7.76 10.68 19.21 17.7 32.25 19.76 13.04 2.06 26.1-1.07 36.77-8.83 22.04-16.02 26.94-46.99 10.92-69.04-7.76-10.68-19.21-17.7-32.25-19.76-2.61-0.42-5.23-0.62-7.83-0.62z" fill="#6D6DAA" p-id="19414"></path><path d="M772.32 506.49a60.52 60.53 0 1 0 121.04 0 60.52 60.53 0 1 0-121.04 0Z" fill="#E4E0FA" p-id="19415"></path><path d="M832.99 578.15c-3.77 0-7.56-0.3-11.35-0.9-18.9-2.99-35.5-13.16-46.75-28.64-23.22-31.95-16.12-76.84 15.83-100.07 15.48-11.25 34.41-15.8 53.31-12.81 18.9 2.99 35.5 13.16 46.75 28.64 23.22 31.96 16.12 76.85-15.83 100.07-12.37 9-26.96 13.71-41.96 13.71z m-0.26-121.09c-10.35 0-20.41 3.25-28.94 9.45-22.04 16.02-26.94 46.99-10.92 69.04 7.76 10.68 19.21 17.7 32.25 19.76 13.04 2.06 26.1-1.07 36.77-8.83 22.04-16.02 26.94-46.99 10.92-69.04-7.76-10.68-19.21-17.7-32.25-19.76-2.61-0.42-5.23-0.62-7.83-0.62z" fill="#6D6DAA" p-id="19416"></path><path d="M794.06 605.64a60.52 60.53 0 1 0 121.04 0 60.52 60.53 0 1 0-121.04 0Z" fill="#C9C1F5" p-id="19417"></path><path d="M854.73 677.29c-3.77 0-7.56-0.3-11.35-0.9-18.9-2.99-35.5-13.16-46.75-28.64-23.22-31.95-16.12-76.84 15.83-100.07 15.48-11.25 34.41-15.8 53.31-12.81 18.9 2.99 35.5 13.16 46.75 28.64 23.22 31.95 16.12 76.84-15.83 100.07-12.38 9-26.96 13.71-41.96 13.71z m-0.26-121.09c-10.35 0-20.41 3.25-28.94 9.45-22.04 16.02-26.94 46.99-10.92 69.04 7.76 10.68 19.21 17.7 32.25 19.76 13.04 2.06 26.1-1.07 36.77-8.83 22.04-16.02 26.94-46.99 10.92-69.04-7.76-10.68-19.21-17.7-32.25-19.76-2.62-0.41-5.23-0.62-7.83-0.62z" fill="#6D6DAA" p-id="19418"></path><path d="M473.12 854.56a60.52 60.53 0 1 0 121.04 0 60.52 60.53 0 1 0-121.04 0Z" fill="#E4E0FA" p-id="19419"></path><path d="M533.79 926.22c-3.77 0-7.56-0.3-11.35-0.9-18.9-2.99-35.5-13.16-46.75-28.64-23.22-31.95-16.12-76.84 15.83-100.07 15.48-11.25 34.41-15.8 53.31-12.81 18.9 2.99 35.5 13.16 46.75 28.64 23.22 31.96 16.12 76.85-15.83 100.07-12.38 9-26.96 13.71-41.96 13.71z m-0.26-121.09c-10.35 0-20.41 3.25-28.94 9.45-22.04 16.02-26.94 46.99-10.92 69.04 7.76 10.68 19.21 17.7 32.25 19.76 13.03 2.06 26.09-1.07 36.77-8.83 22.04-16.02 26.94-46.99 10.92-69.04-7.76-10.68-19.21-17.7-32.25-19.76-2.61-0.42-5.23-0.62-7.83-0.62z" fill="#6D6DAA" p-id="19420"></path><path d="M603.98 457.77a60.52 60.53 0 1 0 121.04 0 60.52 60.53 0 1 0-121.04 0Z" fill="#FFFFFF" p-id="19421"></path><path d="M664.65 529.43c-3.77 0-7.56-0.3-11.35-0.9-18.9-2.99-35.5-13.16-46.75-28.64-23.22-31.95-16.12-76.84 15.83-100.07 15.48-11.25 34.41-15.8 53.31-12.81 18.9 2.99 35.5 13.16 46.75 28.64 23.22 31.95 16.12 76.84-15.83 100.07-12.37 8.99-26.95 13.71-41.96 13.71z m-0.26-121.09c-10.35 0-20.41 3.25-28.94 9.45-22.04 16.02-26.94 46.99-10.92 69.04 7.76 10.68 19.21 17.7 32.25 19.76 13.04 2.06 26.1-1.07 36.77-8.83 22.04-16.02 26.94-46.99 10.92-69.04-7.76-10.68-19.21-17.7-32.25-19.76-2.61-0.42-5.23-0.62-7.83-0.62z" fill="#6D6DAA" p-id="19422"></path><path d="M521.43 513.8a60.52 60.53 0 1 0 121.04 0 60.52 60.53 0 1 0-121.04 0Z" fill="#FFFFFF" p-id="19423"></path><path d="M582.11 585.46c-3.77 0-7.56-0.3-11.35-0.9-18.9-2.99-35.5-13.16-46.75-28.64-23.22-31.95-16.12-76.84 15.83-100.07 15.48-11.25 34.41-15.8 53.31-12.81 18.9 2.99 35.5 13.16 46.75 28.64 23.22 31.95 16.12 76.84-15.83 100.07-12.38 9-26.96 13.71-41.96 13.71z m-0.26-121.09c-10.35 0-20.41 3.25-28.94 9.45-22.04 16.02-26.94 46.99-10.92 69.04 7.76 10.68 19.21 17.7 32.25 19.76 13.03 2.06 26.09-1.07 36.77-8.83 22.04-16.02 26.94-46.99 10.92-69.04-7.76-10.68-19.21-17.7-32.25-19.76-2.62-0.42-5.23-0.62-7.83-0.62z" fill="#6D6DAA" p-id="19424"></path><path d="M459.56 546.94a60.52 60.53 0 1 0 121.04 0 60.52 60.53 0 1 0-121.04 0Z" fill="#FFFFFF" p-id="19425"></path><path d="M520.23 618.6c-3.77 0-7.56-0.3-11.35-0.9-18.9-2.99-35.5-13.16-46.75-28.64-23.22-31.95-16.12-76.84 15.83-100.07 15.48-11.25 34.41-15.8 53.31-12.81 18.9 2.99 35.5 13.16 46.75 28.64 23.22 31.95 16.12 76.84-15.83 100.07-12.37 9-26.95 13.71-41.96 13.71z m-0.25-121.09c-10.35 0-20.41 3.25-28.94 9.45C469 522.98 464.1 553.95 480.12 576c7.76 10.68 19.21 17.7 32.25 19.76 13.04 2.06 26.1-1.07 36.77-8.83 22.04-16.02 26.94-46.99 10.92-69.04-7.76-10.68-19.21-17.7-32.25-19.76-2.62-0.42-5.24-0.62-7.83-0.62z" fill="#6D6DAA" p-id="19426"></path><path d="M482.07 670.44a60.52 60.53 0 1 0 121.04 0 60.52 60.53 0 1 0-121.04 0Z" fill="#FFFFFF" p-id="19427"></path><path d="M542.74 742.1c-3.77 0-7.56-0.3-11.35-0.9-18.9-2.99-35.5-13.16-46.75-28.64-23.22-31.96-16.12-76.84 15.83-100.07 15.48-11.25 34.41-15.79 53.31-12.81 18.9 2.99 35.5 13.16 46.75 28.64 23.22 31.95 16.12 76.84-15.83 100.07-12.37 8.99-26.95 13.71-41.96 13.71z m-0.25-121.09c-10.35 0-20.41 3.25-28.94 9.45-22.04 16.02-26.94 46.99-10.92 69.04 7.76 10.68 19.21 17.7 32.25 19.76 13.04 2.07 26.09-1.07 36.77-8.83 22.04-16.02 26.94-46.99 10.92-69.04-7.76-10.68-19.21-17.7-32.25-19.76-2.62-0.42-5.24-0.62-7.83-0.62z" fill="#6D6DAA" p-id="19428"></path><path d="M551.86 773.46a60.52 60.53 0 1 0 121.04 0 60.52 60.53 0 1 0-121.04 0Z" fill="#FFFFFF" p-id="19429"></path><path d="M612.54 845.12c-3.77 0-7.56-0.3-11.35-0.9-18.9-2.99-35.5-13.16-46.75-28.64-23.22-31.96-16.12-76.85 15.83-100.07 15.48-11.25 34.41-15.8 53.31-12.81 18.9 2.99 35.5 13.16 46.75 28.64 23.22 31.95 16.12 76.84-15.83 100.07-12.38 9-26.96 13.71-41.96 13.71z m-0.26-121.09c-10.35 0-20.41 3.25-28.94 9.45-22.04 16.02-26.94 46.99-10.92 69.04 7.76 10.68 19.21 17.7 32.25 19.76 13.04 2.07 26.09-1.07 36.77-8.83 22.04-16.02 26.94-46.99 10.92-69.04-7.76-10.68-19.21-17.7-32.25-19.76-2.62-0.41-5.24-0.62-7.83-0.62z" fill="#6D6DAA" p-id="19430"></path><path d="M497.69 369.27a58.27 58.28 0 1 0 116.54 0 58.27 58.28 0 1 0-116.54 0Z" fill="#E4E0FA" p-id="19431"></path><path d="M556.11 438.67c-3.65 0-7.32-0.29-10.99-0.87-18.3-2.9-34.39-12.75-45.28-27.74-22.49-30.95-15.61-74.43 15.34-96.93 14.99-10.9 33.34-15.3 51.63-12.41 18.3 2.9 34.39 12.75 45.28 27.74 22.49 30.95 15.61 74.43-15.34 96.93-11.99 8.72-26.11 13.28-40.64 13.28z m-0.25-116.59c-9.88 0-19.48 3.1-27.63 9.02-21.04 15.29-25.72 44.85-10.43 65.9 7.41 10.19 18.34 16.89 30.78 18.86 12.44 1.97 24.91-1.03 35.1-8.43 21.04-15.29 25.72-44.85 10.43-65.9-7.41-10.19-18.34-16.89-30.78-18.86a48.31 48.31 0 0 0-7.47-0.59z" fill="#6D6DAA" p-id="19432"></path><path d="M410.02 448.74a58.27 58.28 0 1 0 116.54 0 58.27 58.28 0 1 0-116.54 0Z" fill="#A199D4" p-id="19433"></path><path d="M468.44 518.15c-3.65 0-7.32-0.29-10.99-0.87-18.3-2.9-34.39-12.75-45.28-27.75-22.49-30.95-15.61-74.43 15.34-96.93 14.99-10.9 33.33-15.3 51.63-12.4 18.3 2.9 34.39 12.75 45.28 27.74 22.49 30.95 15.61 74.43-15.34 96.93-11.98 8.71-26.1 13.28-40.64 13.28z m-0.25-116.6c-9.88 0-19.48 3.1-27.63 9.02-21.04 15.29-25.72 44.85-10.43 65.9 7.41 10.19 18.34 16.89 30.78 18.86 12.44 1.97 24.91-1.03 35.1-8.43 21.04-15.29 25.72-44.85 10.43-65.9-7.41-10.19-18.34-16.89-30.78-18.86a48.31 48.31 0 0 0-7.47-0.59z" fill="#6D6DAA" p-id="19434"></path><path d="M403.36 519.95a58.27 58.28 0 1 0 116.54 0 58.27 58.28 0 1 0-116.54 0Z" fill="#E4E0FA" p-id="19435"></path><path d="M461.78 589.36c-3.65 0-7.32-0.29-10.99-0.87-18.3-2.9-34.39-12.75-45.28-27.74-22.49-30.95-15.61-74.43 15.34-96.93 14.99-10.9 33.33-15.3 51.63-12.41 18.3 2.9 34.39 12.75 45.28 27.74 22.49 30.95 15.61 74.43-15.34 96.93-11.98 8.71-26.1 13.28-40.64 13.28z m-0.25-116.6c-9.88 0-19.48 3.1-27.63 9.02-21.04 15.29-25.72 44.85-10.43 65.9 7.41 10.19 18.34 16.89 30.78 18.86 12.44 1.97 24.91-1.03 35.1-8.43 21.04-15.29 25.71-44.85 10.43-65.9-7.41-10.19-18.34-16.89-30.78-18.86a48.31 48.31 0 0 0-7.47-0.59z" fill="#6D6DAA" p-id="19436"></path><path d="M508.13 448.74a55.73 55.73 0 1 0 111.46 0 55.73 55.73 0 1 0-111.46 0Z" fill="#C9C1F5" p-id="19437"></path><path d="M564 515.6c-3.51 0-7.05-0.28-10.59-0.84-17.63-2.79-33.12-12.28-43.62-26.73-21.66-29.81-15.04-71.7 14.77-93.37 14.44-10.5 32.11-14.74 49.74-11.95 17.63 2.79 33.12 12.28 43.62 26.73 21.66 29.81 15.04 71.7-14.77 93.37C591.61 511.2 578 515.6 564 515.6z m-0.23-111.5c-9.35 0-18.43 2.93-26.13 8.54-19.9 14.47-24.33 42.43-9.86 62.34 7.01 9.64 17.35 15.98 29.12 17.84 11.77 1.86 23.56-0.97 33.2-7.98 19.9-14.47 24.33-42.43 9.86-62.34-7.01-9.64-17.35-15.98-29.12-17.84-2.37-0.37-4.73-0.56-7.07-0.56z" fill="#6D6DAA" p-id="19438"></path><path d="M603.47 379.81a58.27 58.28 0 1 0 116.54 0 58.27 58.28 0 1 0-116.54 0Z" fill="#A199D4" p-id="19439"></path><path d="M661.88 449.22c-3.65 0-7.32-0.29-10.99-0.87-18.3-2.9-34.39-12.75-45.28-27.74-22.49-30.95-15.61-74.43 15.34-96.93 14.99-10.9 33.34-15.3 51.63-12.41 18.3 2.9 34.39 12.75 45.28 27.74 22.49 30.95 15.61 74.43-15.34 96.93-11.98 8.72-26.1 13.28-40.64 13.28z m-0.24-116.59c-9.88 0-19.48 3.1-27.63 9.02-21.04 15.29-25.72 44.85-10.43 65.9 7.41 10.19 18.34 16.89 30.78 18.86 12.45 1.97 24.91-1.03 35.1-8.43 21.04-15.29 25.72-44.85 10.43-65.9-7.41-10.19-18.34-16.89-30.78-18.86-2.5-0.4-5-0.59-7.47-0.59z" fill="#6D6DAA" p-id="19440"></path><path d="M557.33 831.63a58.27 58.28 0 1 0 116.54 0 58.27 58.28 0 1 0-116.54 0Z" fill="#C9C1F5" p-id="19441"></path><path d="M615.74 901.03c-3.65 0-7.32-0.29-10.99-0.87-18.3-2.9-34.39-12.75-45.28-27.75-22.49-30.95-15.61-74.43 15.34-96.92 14.99-10.9 33.33-15.3 51.63-12.41 18.3 2.9 34.39 12.75 45.28 27.75 22.49 30.95 15.61 74.43-15.34 96.93-11.98 8.71-26.1 13.27-40.64 13.27z m-0.24-116.59c-9.88 0-19.48 3.1-27.63 9.02-21.04 15.29-25.71 44.85-10.43 65.9 7.41 10.19 18.34 16.89 30.78 18.86 12.44 1.97 24.91-1.03 35.1-8.43 21.04-15.29 25.72-44.85 10.43-65.89-7.41-10.19-18.34-16.89-30.78-18.86-2.5-0.4-4.99-0.6-7.47-0.6z" fill="#6D6DAA" p-id="19442"></path><path d="M651.18 704.43a58.27 58.28 0 1 0 116.54 0 58.27 58.28 0 1 0-116.54 0Z" fill="#FFFFFF" p-id="19443"></path><path d="M709.6 773.83c-3.65 0-7.32-0.29-10.99-0.87-18.3-2.9-34.38-12.75-45.28-27.74-22.49-30.95-15.61-74.43 15.34-96.93 14.99-10.9 33.33-15.3 51.63-12.41 18.3 2.9 34.39 12.75 45.28 27.74 22.49 30.95 15.61 74.43-15.34 96.93-11.98 8.72-26.1 13.28-40.64 13.28z m-0.25-116.59c-9.88 0-19.48 3.1-27.63 9.02-21.04 15.29-25.71 44.85-10.43 65.9 7.41 10.19 18.34 16.89 30.78 18.86 12.44 1.97 24.91-1.03 35.1-8.43 21.04-15.29 25.72-44.85 10.43-65.9-7.41-10.19-18.34-16.89-30.78-18.86a48.31 48.31 0 0 0-7.47-0.59z" fill="#6D6DAA" p-id="19444"></path><path d="M578.21 611.04a58.27 58.28 0 1 0 116.54 0 58.27 58.28 0 1 0-116.54 0Z" fill="#FFFFFF" p-id="19445"></path><path d="M636.62 680.44c-3.65 0-7.32-0.29-10.99-0.87-18.3-2.9-34.39-12.75-45.28-27.74-22.49-30.95-15.61-74.43 15.34-96.93 14.99-10.9 33.33-15.3 51.63-12.41s34.39 12.75 45.28 27.74c22.49 30.95 15.61 74.43-15.34 96.93-11.98 8.72-26.1 13.28-40.64 13.28z m-0.24-116.59c-9.88 0-19.48 3.1-27.63 9.02-21.04 15.29-25.71 44.85-10.43 65.9 7.41 10.19 18.34 16.89 30.78 18.86 12.44 1.97 24.91-1.03 35.1-8.43 21.04-15.29 25.71-44.85 10.43-65.9-7.41-10.19-18.34-16.89-30.78-18.86-2.5-0.39-5-0.59-7.47-0.59z" fill="#6D6DAA" p-id="19446"></path><path d="M677.46 539.39a58.27 58.28 0 1 0 116.54 0 58.27 58.28 0 1 0-116.54 0Z" fill="#FFFFFF" p-id="19447"></path><path d="M735.88 608.79c-3.65 0-7.32-0.29-10.99-0.87-18.3-2.9-34.39-12.75-45.28-27.75-22.49-30.95-15.61-74.43 15.34-96.93 14.99-10.9 33.34-15.3 51.63-12.41 18.3 2.9 34.39 12.75 45.28 27.74 22.49 30.95 15.61 74.43-15.34 96.93-11.98 8.73-26.1 13.29-40.64 13.29z m-0.25-116.59c-9.88 0-19.48 3.1-27.63 9.02-21.04 15.29-25.71 44.85-10.43 65.9 7.41 10.19 18.34 16.89 30.78 18.86 12.44 1.97 24.91-1.03 35.1-8.43 21.04-15.29 25.72-44.85 10.43-65.9-7.41-10.19-18.34-16.89-30.78-18.86a48.31 48.31 0 0 0-7.47-0.59z" fill="#6D6DAA" p-id="19448"></path><path d="M692.08 668.06a58.27 58.28 0 1 0 116.54 0 58.27 58.28 0 1 0-116.54 0Z" fill="#FFFFFF" p-id="19449"></path><path d="M750.49 737.47c-3.65 0-7.32-0.29-10.99-0.87-18.3-2.9-34.39-12.75-45.28-27.75-22.49-30.95-15.61-74.43 15.34-96.92 14.99-10.9 33.33-15.3 51.63-12.41 18.3 2.9 34.39 12.75 45.28 27.75 22.49 30.95 15.61 74.43-15.34 96.92-11.98 8.71-26.1 13.28-40.64 13.28z m-0.24-116.59c-9.88 0-19.48 3.1-27.63 9.02-21.04 15.29-25.72 44.85-10.43 65.89 7.41 10.19 18.34 16.89 30.78 18.86 12.44 1.97 24.91-1.03 35.1-8.43 21.04-15.29 25.72-44.85 10.43-65.9-7.41-10.19-18.34-16.89-30.78-18.86-2.5-0.39-4.99-0.58-7.47-0.58z" fill="#6D6DAA" p-id="19450"></path><path d="M660.7 762.72a58.27 58.28 0 1 0 116.54 0 58.27 58.28 0 1 0-116.54 0Z" fill="#A199D4" p-id="19451"></path><path d="M719.12 832.12c-3.65 0-7.32-0.29-10.99-0.87-18.3-2.9-34.39-12.75-45.28-27.75-22.49-30.95-15.61-74.43 15.34-96.92 14.99-10.9 33.33-15.3 51.63-12.41 18.3 2.9 34.39 12.75 45.28 27.75 22.49 30.95 15.61 74.43-15.34 96.93-11.99 8.71-26.11 13.27-40.64 13.27z m-0.25-116.59c-9.88 0-19.48 3.1-27.63 9.02-21.04 15.29-25.72 44.85-10.43 65.89 7.41 10.19 18.34 16.89 30.78 18.86 12.44 1.97 24.91-1.03 35.1-8.43 21.04-15.29 25.72-44.85 10.43-65.89-7.41-10.19-18.34-16.89-30.78-18.86a48.31 48.31 0 0 0-7.47-0.59z" fill="#6D6DAA" p-id="19452"></path><path d="M764.88 693.76a58.27 58.28 0 1 0 116.54 0 58.27 58.28 0 1 0-116.54 0Z" fill="#E4E0FA" p-id="19453"></path><path d="M823.3 763.17c-3.65 0-7.32-0.29-10.99-0.87-18.3-2.9-34.39-12.75-45.28-27.75-22.49-30.95-15.61-74.43 15.34-96.92 14.99-10.9 33.33-15.31 51.63-12.41 18.3 2.9 34.39 12.75 45.28 27.75 22.49 30.95 15.61 74.43-15.34 96.93-11.98 8.71-26.1 13.27-40.64 13.27z m-0.25-116.59c-9.88 0-19.48 3.1-27.63 9.02-21.04 15.29-25.72 44.85-10.43 65.89 7.41 10.19 18.34 16.89 30.78 18.86 12.44 1.97 24.91-1.03 35.1-8.43 21.04-15.29 25.72-44.85 10.43-65.89-7.41-10.19-18.34-16.89-30.78-18.86-2.49-0.4-4.99-0.59-7.47-0.59z" fill="#6D6DAA" p-id="19454"></path><path d="M420.38 646.14a58.27 58.28 0 1 0 116.54 0 58.27 58.28 0 1 0-116.54 0Z" fill="#C9C1F5" p-id="19455"></path><path d="M478.8 715.55c-3.65 0-7.32-0.29-10.99-0.87-18.3-2.9-34.39-12.75-45.28-27.74-22.49-30.95-15.61-74.43 15.34-96.93 14.99-10.9 33.33-15.3 51.63-12.41 18.3 2.9 34.39 12.75 45.28 27.74 22.49 30.95 15.61 74.43-15.34 96.93-11.99 8.72-26.11 13.28-40.64 13.28z m-0.25-116.59c-9.88 0-19.48 3.1-27.63 9.02-21.04 15.29-25.72 44.85-10.43 65.9 7.41 10.19 18.34 16.89 30.78 18.86 12.44 1.97 24.91-1.03 35.1-8.43 21.04-15.29 25.72-44.85 10.43-65.9-7.41-10.19-18.34-16.89-30.78-18.86-2.49-0.4-4.99-0.59-7.47-0.59z" fill="#6D6DAA" p-id="19456"></path><path d="M519.93 580.29a58.27 58.28 0 1 0 116.54 0 58.27 58.28 0 1 0-116.54 0Z" fill="#A199D4" p-id="19457"></path><path d="M578.35 649.69c-3.65 0-7.32-0.29-10.99-0.87-18.3-2.9-34.39-12.75-45.28-27.75-22.49-30.95-15.61-74.43 15.34-96.93 14.99-10.9 33.33-15.3 51.63-12.4 18.3 2.9 34.39 12.75 45.28 27.74 22.49 30.95 15.61 74.43-15.34 96.93-11.99 8.72-26.11 13.28-40.64 13.28z m-0.25-116.59c-9.88 0-19.48 3.1-27.63 9.02-21.04 15.29-25.71 44.85-10.43 65.9 7.41 10.19 18.34 16.89 30.78 18.86 12.44 1.97 24.91-1.03 35.1-8.43 21.04-15.29 25.72-44.85 10.43-65.9-7.41-10.19-18.34-16.89-30.78-18.86a48.31 48.31 0 0 0-7.47-0.59z" fill="#6D6DAA" p-id="19458"></path><path d="M618.7 508.13a58.27 58.28 0 1 0 116.54 0 58.27 58.28 0 1 0-116.54 0Z" fill="#E4E0FA" p-id="19459"></path><path d="M677.12 577.54c-3.65 0-7.32-0.29-10.99-0.87-18.3-2.9-34.39-12.75-45.28-27.75-22.49-30.95-15.61-74.43 15.34-96.92 14.99-10.9 33.33-15.3 51.63-12.41 18.3 2.9 34.39 12.75 45.28 27.74 22.49 30.95 15.61 74.43-15.34 96.93-11.99 8.72-26.11 13.28-40.64 13.28z m-0.25-116.59c-9.88 0-19.48 3.1-27.63 9.02-21.04 15.29-25.72 44.85-10.43 65.89 7.41 10.19 18.34 16.89 30.78 18.86 12.45 1.97 24.91-1.03 35.1-8.43 21.04-15.29 25.72-44.85 10.43-65.9-7.41-10.19-18.34-16.89-30.78-18.86-2.5-0.38-4.99-0.58-7.47-0.58z" fill="#6D6DAA" p-id="19460"></path><path d="M720.02 434.06a60.52 60.53 0 1 0 121.04 0 60.52 60.53 0 1 0-121.04 0Z" fill="#C9C1F5" p-id="19461"></path><path d="M780.69 505.72c-3.77 0-7.56-0.3-11.35-0.9-18.9-2.99-35.5-13.16-46.75-28.64-23.22-31.95-16.12-76.84 15.83-100.07 15.48-11.25 34.41-15.8 53.31-12.81 18.9 2.99 35.5 13.16 46.75 28.64 23.22 31.95 16.12 76.84-15.83 100.07-12.38 9-26.96 13.71-41.96 13.71z m-0.26-121.09c-10.35 0-20.41 3.25-28.94 9.45-22.04 16.02-26.94 46.99-10.92 69.04 7.76 10.68 19.21 17.7 32.25 19.76 13.03 2.06 26.09-1.07 36.77-8.83 22.04-16.02 26.94-46.99 10.92-69.04-7.76-10.68-19.21-17.7-32.25-19.76-2.61-0.42-5.23-0.62-7.83-0.62z" fill="#6D6DAA" p-id="19462"></path><path d="M440.87 771.48a58.27 58.28 0 1 0 116.54 0 58.27 58.28 0 1 0-116.54 0Z" fill="#A199D4" p-id="19463"></path><path d="M499.29 840.88c-3.65 0-7.32-0.29-10.99-0.87-18.3-2.9-34.39-12.75-45.28-27.75-22.49-30.95-15.61-74.43 15.34-96.92 14.99-10.9 33.33-15.3 51.63-12.41 18.3 2.9 34.39 12.75 45.28 27.75 22.49 30.95 15.61 74.43-15.34 96.92-11.99 8.72-26.11 13.28-40.64 13.28z m-0.25-116.59c-9.88 0-19.48 3.1-27.63 9.02-21.04 15.29-25.72 44.85-10.43 65.89 7.41 10.19 18.34 16.89 30.78 18.86 12.44 1.97 24.91-1.03 35.1-8.43 21.04-15.29 25.72-44.85 10.43-65.9-7.41-10.19-18.34-16.89-30.78-18.86-2.49-0.38-4.99-0.58-7.47-0.58z" fill="#6D6DAA" p-id="19464"></path><path d="M544.15 702.95a58.27 58.28 0 1 0 116.54 0 58.27 58.28 0 1 0-116.54 0Z" fill="#E4E0FA" p-id="19465"></path><path d="M602.56 772.36c-3.65 0-7.32-0.29-10.99-0.87-18.3-2.9-34.39-12.75-45.28-27.75-22.49-30.95-15.61-74.43 15.34-96.92 14.99-10.9 33.33-15.31 51.63-12.41 18.3 2.9 34.38 12.75 45.28 27.75 22.49 30.95 15.61 74.43-15.34 96.93-11.98 8.7-26.1 13.27-40.64 13.27z m-0.24-116.59c-9.88 0-19.48 3.1-27.63 9.02-21.04 15.29-25.72 44.85-10.43 65.9 7.41 10.19 18.34 16.89 30.78 18.86 12.44 1.96 24.91-1.03 35.1-8.43 21.04-15.29 25.72-44.85 10.43-65.89-7.41-10.19-18.34-16.89-30.78-18.86-2.5-0.41-4.99-0.6-7.47-0.6z" fill="#6D6DAA" p-id="19466"></path><path d="M642.48 634.42a58.27 58.28 0 1 0 116.54 0 58.27 58.28 0 1 0-116.54 0Z" fill="#C9C1F5" p-id="19467"></path><path d="M700.9 703.83c-3.65 0-7.32-0.29-10.99-0.87-18.3-2.9-34.38-12.75-45.28-27.74-22.49-30.95-15.61-74.43 15.34-96.93 14.99-10.9 33.33-15.3 51.63-12.41s34.39 12.75 45.28 27.74c22.49 30.95 15.61 74.43-15.34 96.93-11.98 8.72-26.1 13.28-40.64 13.28z m-0.25-116.59c-9.88 0-19.48 3.1-27.63 9.02-21.04 15.29-25.71 44.85-10.43 65.9 7.41 10.19 18.34 16.89 30.78 18.86 12.44 1.97 24.91-1.03 35.1-8.43 21.04-15.29 25.72-44.85 10.43-65.9-7.41-10.19-18.34-16.89-30.78-18.86-2.49-0.4-4.99-0.59-7.47-0.59z" fill="#6D6DAA" p-id="19468"></path><path d="M738.61 565.9a58.27 58.28 0 1 0 116.54 0 58.27 58.28 0 1 0-116.54 0Z" fill="#A199D4" p-id="19469"></path><path d="M797.03 635.3c-3.65 0-7.32-0.29-10.99-0.87-18.3-2.9-34.39-12.75-45.28-27.75-22.49-30.95-15.61-74.43 15.34-96.92 14.99-10.9 33.33-15.3 51.63-12.41 18.3 2.9 34.38 12.75 45.28 27.75 22.49 30.95 15.61 74.43-15.34 96.92-11.98 8.72-26.11 13.28-40.64 13.28z m-0.25-116.59c-9.88 0-19.48 3.1-27.63 9.02-21.04 15.29-25.72 44.85-10.43 65.89 7.41 10.19 18.34 16.89 30.78 18.86 12.45 1.97 24.91-1.03 35.1-8.43 21.04-15.29 25.71-44.85 10.43-65.9-7.41-10.19-18.34-16.89-30.78-18.86-2.49-0.38-4.99-0.58-7.47-0.58z" fill="#6D6DAA" p-id="19470"></path></svg>