<?xml version="1.0" standalone="no"?><!DOCTYPE svg PUBLIC "-//W3C//DTD SVG 1.1//EN" "http://www.w3.org/Graphics/SVG/1.1/DTD/svg11.dtd"><svg t="1597145427684" class="icon" viewBox="0 0 1024 1024" version="1.1" xmlns="http://www.w3.org/2000/svg" p-id="7690" xmlns:xlink="http://www.w3.org/1999/xlink" width="200" height="200"><defs><style type="text/css"></style></defs><path d="M306.1 452.6c3.1 1.3 6.5 2.3 9.6 3.4 56.3 20.7 124.6 33 197.9 33 66.8 0 128.9-9.9 181.8-27l12-3.9v-0.2c0-52.8 39.1-159.9 156.2-159.9-5-100.6-159.6-181.3-350-181.3-190.7 0-345.5 80.9-349.8 181.9 105.9 5.3 142.3 104.8 142.3 154z" fill="#EFB21E" p-id="7691"></path><path d="M875.9 377.9c-49.3-4-92.8 33-96.8 82.3l-6.5 80.5c-2.8-1.8-4.8-3-4.8-3s-257.5-83.5-512.8 3.7l-6.6-81.2c-4-49.2-47.6-86.3-96.8-82.3-49.3 4-86.3 47.6-82.3 96.8l22 270.6c0.2 3 1.1 5.8 1.6 8.7l-0.4 0.5s0.5 2 1.4 5.3c1.9 7.4 4.5 14.4 8.1 21 14.8 31.5 49.7 78 122.3 61.9 3.2 36.6 35.1 65.5 74.2 65.5 41.3 0 74.9-32 74.9-71.4 0-3.1-0.6-6-1-9 88.8-2 198.4 1.2 289.1 5.1-0.1 1.3-0.4 2.6-0.4 3.9 0 39.4 33.6 71.4 74.9 71.4 39.9 0 72.3-30 74.5-67.6 17 1 26.9 1.7 26.9 1.7s67.5 21 94.9-77.7c0.3-0.9 0.6-1.8 0.8-2.7 0.2-0.9 0.5-1.6 0.7-2.5 0.4-1.6 0.3-3.2 0.6-4.7 0.6-3.1 1.5-6.1 1.7-9.3l22-270.6c4-49.3-33-92.9-82.2-96.9zM298.6 872.3c-21.5 0-38.9-15.9-38.9-35.4 0-0.5 0.1-0.9 0.2-1.4 20.8-3 47-5.1 76.7-6.4 0.6 2.5 1 5.1 1 7.8-0.1 19.5-17.6 35.4-39 35.4z m437.4 0c-21.5 0-38.9-15.9-38.9-35.4 0-0.8 0.2-1.5 0.3-2.3 29.3 1.4 55.7 2.8 77.4 4-1.1 18.7-18 33.7-38.8 33.7z" fill="#EFB21E" p-id="7692"></path></svg>