<?xml version="1.0" standalone="no"?><!DOCTYPE svg PUBLIC "-//W3C//DTD SVG 1.1//EN" "http://www.w3.org/Graphics/SVG/1.1/DTD/svg11.dtd"><svg t="1597144658894" class="icon" viewBox="0 0 1024 1024" version="1.1" xmlns="http://www.w3.org/2000/svg" p-id="2600" xmlns:xlink="http://www.w3.org/1999/xlink" width="200" height="200"><defs><style type="text/css"></style></defs><path d="M416.164978 797.104356H103.992889L253.860978 161.553067l80.088178 339.683555" fill="#CEBBA3" p-id="2601"></path><path d="M843.889778 797.104356a339.945244 339.945244 0 0 0-48.196267-175.058489L655.223467 491.690667a338.352356 338.352356 0 0 0-151.7568-35.692089c-188.017778 0-340.434489 152.712533-340.434489 341.0944" fill="#E6E6E6" p-id="2602"></path><path d="M561.595733 460.982044a342.186667 342.186667 0 0 0-58.140444-4.983466c-188.017778 0-340.434489 152.712533-340.434489 341.0944H279.324444c0-168.504889 121.981156-308.462933 282.271289-336.110934z" fill="#CCCCCC" p-id="2603"></path><path d="M919.540622 797.104356H87.369956v26.703644a63.624533 63.624533 0 0 0 63.556266 63.681422h705.069511a63.624533 63.624533 0 0 0 63.556267-63.681422v-26.703644h-0.011378z" fill="#E6E6E6" p-id="2604"></path><path d="M221.218133 823.796622v-26.703644H87.369956v26.703644a63.624533 63.624533 0 0 0 63.556266 63.681422h133.848178a63.613156 63.613156 0 0 1-63.556267-63.681422z" fill="#CCCCCC" p-id="2605"></path><path d="M452.528356 404.969244a51.017956 50.926933 90 1 0 101.853866 0 51.017956 50.926933 90 1 0-101.853866 0Z" fill="#E6E6E6" p-id="2606"></path><path d="M677.307733 349.240889c-16.509156 28.307911-26.271289 63.010133-26.271289 100.545422 0 95.209244 62.532267 172.384711 139.662223 172.384711s139.6736-77.175467 139.6736-172.373333c0-37.535289-9.750756-72.248889-26.271289-100.545422H677.307733v-0.011378z" fill="#EBFBFF" p-id="2607"></path><path d="M726.698667 449.797689c0-37.535289 9.739378-72.248889 26.259911-100.545422H677.319111c-16.509156 28.307911-26.271289 63.010133-26.271289 100.545422 0 95.209244 62.532267 172.384711 139.662222 172.384711 13.1072 0 25.8048-2.241422 37.819734-6.394311-58.754844-20.366222-101.831111-86.960356-101.831111-165.9904z" fill="#CADADD" p-id="2608"></path><path d="M652.299378 426.848711a214.471111 214.471111 0 0 0-1.251556 22.948978c0 95.209244 62.532267 172.384711 139.662222 172.384711S930.372267 544.995556 930.372267 449.797689c0-7.7824-0.443733-15.439644-1.251556-22.948978h-276.821333z" fill="#B73625" p-id="2609"></path><path d="M819.8144 843.741867H761.628444a43.690667 43.690667 0 0 0-43.656533 43.736177H863.459556a43.690667 43.690667 0 0 0-43.645156-43.736177z" fill="#EBFBFF" p-id="2610"></path><path d="M851.808711 555.645156a14.609067 14.609067 0 0 1-11.298133-23.779556c17.294222-21.333333 26.806044-50.4832 26.806044-82.067911 0-16.543289-2.616889-32.403911-7.759644-47.149511a14.563556 14.563556 0 0 1 27.465955-9.6256 171.918222 171.918222 0 0 1 9.375289 56.775111c0 38.263467-11.821511 73.944178-33.314133 100.4544-2.844444 3.549867-7.042844 5.393067-11.275378 5.393067z" fill="#FFFFFF" p-id="2611"></path><path d="M919.540622 782.518044h-61.394489a354.963911 354.963911 0 0 0-15.792355-91.602488 14.563556 14.563556 0 1 0-27.784534 8.692622 326.849422 326.849422 0 0 1 14.449778 82.909866h-23.7568V635.926756c78.2336-8.920178 139.662222-88.9856 139.662222-186.117689 0-38.900622-9.762133-76.219733-28.239644-107.906845a14.552178 14.552178 0 0 0-12.561067-7.224889H677.296356a14.563556 14.563556 0 0 0-12.561067 7.224889c-18.466133 31.698489-28.239644 69.006222-28.239645 107.906845 0 40.789333 10.626844 79.530667 30.685867 112.059733 4.232533 6.849422 13.198222 8.965689 20.036267 4.721778a14.597689 14.597689 0 0 0 4.721778-20.0704c-17.237333-27.898311-26.328178-61.3376-26.328178-96.711111 0-2.798933 0.068267-5.597867 0.193422-8.374045h249.856c0.113778 2.787556 0.193422 5.575111 0.193422 8.374045 0 87.005867-56.126578 157.7984-125.121422 157.7984-25.691022 0-50.3808-9.796267-71.429689-28.330667a14.518044 14.518044 0 0 0-20.536889 1.319822 14.597689 14.597689 0 0 0 1.319822 20.571022c22.516622 19.831467 48.583111 31.664356 76.094578 34.759112v146.625422H177.914311a324.9152 324.9152 0 0 1 55.318756-167.981511 14.552178 14.552178 0 1 0-24.120889-16.315734 354.110578 354.110578 0 0 0-60.324978 184.297245H87.369956A14.5408 14.5408 0 0 0 72.817778 797.115733v26.703645c0 43.144533 35.043556 78.256356 78.097066 78.256355h166.320356a14.563556 14.563556 0 0 0 0-29.149866H150.914844a49.129244 49.129244 0 0 1-49.004088-49.106489v-12.117334h674.235733v17.499023h-14.5408a58.288356 58.288356 0 0 0-56.342756 43.7248H372.519822a14.563556 14.563556 0 1 0 0 29.161244H863.459556c1.968356 0 3.857067-0.398222 5.563733-1.115022a78.336 78.336 0 0 0 65.069511-77.152711V797.127111c0-8.078222-6.519467-14.609067-14.552178-14.609067zM669.172622 412.2624a179.325156 179.325156 0 0 1 16.713956-48.446578h209.646933a179.325156 179.325156 0 0 1 16.713956 48.446578H669.172622z m67.254045 460.640711a29.127111 29.127111 0 0 1 25.201777-14.574933h58.185956a29.127111 29.127111 0 0 1 25.1904 14.574933h-108.578133z m168.573155-49.106489a49.174756 49.174756 0 0 1-29.991822 45.249422c-7.725511-23.1424-29.548089-39.879111-55.204978-39.879111h-14.5408v-17.487644h99.7376v12.117333z" fill="" p-id="2612"></path><path d="M252.450133 545.598578a14.586311 14.586311 0 0 0 10.285511 24.8832c3.720533 0 7.441067-1.422222 10.285512-4.266667 61.553778-61.678933 143.394133-95.6416 230.434133-95.6416 30.390044 0 60.450133 4.187022 89.383822 12.435911a14.586311 14.586311 0 0 0 7.964445-28.046222 352.642844 352.642844 0 0 0-45.704534-9.762133 65.308444 65.308444 0 0 0 13.812622-40.220445c0-36.169956-29.366044-65.592889-65.467733-65.592889-36.090311 0-65.467733 29.422933-65.467733 65.592889 0 15.132444 5.154133 29.070222 13.767111 40.174934-75.184356 10.922667-144.5888 45.636267-199.293156 100.443022z m251.005156-177.060978a36.443022 36.443022 0 0 1 0 72.886044 36.4544 36.4544 0 0 1 0-72.886044z" fill="" p-id="2613"></path><path d="M115.632356 747.747556a14.563556 14.563556 0 0 0 17.5104-10.831645l61.804088-262.098489c16.827733-7.964444 61.906489-30.890667 102.388623-65.524622l9.8304 41.733689a14.563556 14.563556 0 1 0 28.319289-6.712889l-67.470223-286.116978a14.563556 14.563556 0 0 0-28.330666 0L104.823467 730.203022a14.574933 14.574933 0 0 0 10.808889 17.544534zM253.860978 224.950044l35.851378 152.029867c-28.672 27.067733-62.7712 47.980089-85.981867 60.586667l50.130489-212.616534z" fill="" p-id="2614"></path></svg>