<?xml version="1.0" standalone="no"?><!DOCTYPE svg PUBLIC "-//W3C//DTD SVG 1.1//EN" "http://www.w3.org/Graphics/SVG/1.1/DTD/svg11.dtd"><svg t="1596871998368" class="icon" viewBox="0 0 1024 1024" version="1.1" xmlns="http://www.w3.org/2000/svg" p-id="1320" xmlns:xlink="http://www.w3.org/1999/xlink" width="200" height="200"><defs><style type="text/css"></style></defs><path d="M797.953707 72.743768c-5.536087-4.104481-11.743462-5.335519-18.325367-3.319605-148.251485 45.332465-147.359162 264.312828-146.834206 541.543873l0.299829 48.336892c0 11.996219 9.962909 18.755156 21.959128 18.755156l106.832144 0 0 259.300674c0 11.996219 9.493212 21.721721 21.48943 21.721721s21.48943-9.726525 21.48943-21.721721L804.864094 90.202395C804.863071 83.318614 803.489794 76.838016 797.953707 72.743768zM761.884211 635.081223l-85.136006 0-1.697665-26.932396c-0.451278-236.672304-0.146333-425.204192 86.834694-484.027925L761.885234 635.081223z" p-id="1321"></path><path d="M414.983409 64.916499c-11.996219 0-21.48943 9.726525-21.48943 21.721721l0 195.498556 0 26.50977-44.002167 0L349.491813 86.638219c0-11.996219-9.493212-21.721721-21.48943-21.721721s-21.48943 9.726525-21.48943 21.721721l0 222.008326-44.002167 0L262.510786 86.638219c0-11.996219-9.493212-21.721721-21.48943-21.721721s-21.48943 9.726525-21.48943 21.721721l0 271.52509 0 10.861372c0 17.956977 10.719132 40.007179 23.686469 52.438303l55.365982 53.647851c2.581802 2.474354 7.928576 4.465708 7.928576 6.217608l0 454.134081c0 11.996219 9.493212 21.721721 21.48943 21.721721s21.48943-9.726525 21.48943-21.721721L349.491813 481.71116c10.233062-1.864464 8.121981-4.015454 10.95347-6.759961l54.519708-53.488215c12.871145-12.473079 21.50785-34.524305 21.50785-52.438303l0-10.861372 0-76.027557L436.472839 86.638219C436.472839 74.643024 426.979628 64.916499 414.983409 64.916499zM385.718899 390.259308l-54.612829 53.488215c-0.058328 0.063445 0.01842 0.148379-0.273223 0.148379l-57.94062-53.806463c-4.369517-4.179183-10.380418-15.007809-10.380418-21.064758l0-17.399275 130.983193 0 0 17.399275C393.493979 375.113353 390.088416 386.026914 385.718899 390.259308z" p-id="1322"></path></svg>