<?xml version="1.0" standalone="no"?><!DOCTYPE svg PUBLIC "-//W3C//DTD SVG 1.1//EN" "http://www.w3.org/Graphics/SVG/1.1/DTD/svg11.dtd"><svg t="1597145974297" class="icon" viewBox="0 0 1086 1024" version="1.1" xmlns="http://www.w3.org/2000/svg" p-id="12874" xmlns:xlink="http://www.w3.org/1999/xlink" width="212.109375" height="200"><defs><style type="text/css"></style></defs><path d="M31.56139 411.751479l582.426986 0 0 582.426986-582.426986 0 0-582.426986Z" fill="#FCCAC3" p-id="12875"></path><path d="M848.709634 64.003315v94.896346a61.022223 61.022223 0 0 0 7.256467 28.781866L1018.451561 491.890886v394.193798c0 40.069704-29.630575 73.933218-64.71411 73.933218H132.61088c-35.083534 0-64.71411-33.852906-64.714109-73.933218V491.890886l162.485459-304.209359a61.022223 61.022223 0 0 0 7.256468-28.781866V64.003315h611.070936M916.606405 0H169.741927v158.899661L0 476.688375v409.396309c0 75.864032 59.674896 137.915316 132.61088 137.915316h821.126571c72.935984 0 132.61088-62.072501 132.61088-137.915316v-409.396309L916.606405 158.899661V0z" fill="#FA7157" p-id="12876"></path><path d="M695.9419 992.003647c-18.745874 0-33.948385-14.332584-33.948386-31.996353V496.007128a30.489894 30.489894 0 0 1 3.882847-14.852419l186.71612-335.993535c8.699274-15.648084 29.20622-21.69514 45.819711-13.494483s23.021249 27.583063 14.321975 43.19932L729.890285 503.87891V959.996685c0 17.674378-15.202511 32.006962-33.948385 32.006962z" fill="#FA7157" p-id="12877"></path><path d="M510.562498 843.776509A55.50561 55.50561 0 0 1 459.067041 808.395926l-39.974224-103.96693-28.940998 57.871388a54.932731 54.932731 0 0 1-49.458554 30.479285h-2.121774A55.261606 55.261606 0 0 1 289.622163 758.173534l-20.305378-50.763445-48.132446 104.295805a55.399521 55.399521 0 0 1-50.14813 32.060006 54.667509 54.667509 0 0 1-23.053075-5.07104 55.229779 55.229779 0 0 1-26.978358-73.201206l101.845156-220.664504c8.858407-19.191447 28.707603-32.081224 49.394901-32.081225 0.806274 0 1.612548 0 2.408213 0.053045a55.166126 55.166126 0 0 1 49.490381 34.627353l22.278628 55.69657 29.927623-59.865856a55.166126 55.166126 0 0 1 49.861691-30.479285h2.227863a55.229779 55.229779 0 0 1 48.800804 35.306321l84.870963 220.664505a55.219171 55.219171 0 0 1-51.484848 74.983496z" fill="#FFEA75" p-id="12878"></path><path d="M272.223615 533.955057h1.570113A33.948385 33.948385 0 0 1 304.474581 555.321322l39.8257 99.55364 51.060493-102.131595a34.181781 34.181781 0 0 1 30.829378-18.745874h1.177584a33.948385 33.948385 0 0 1 30.044321 21.726966l84.870964 220.664505a33.951568 33.951568 0 1 1-63.366783 24.400402l-57.287901-148.821234-50.445179 100.900967a33.948385 33.948385 0 0 1-30.489893 18.756482h-1.294282a33.948385 33.948385 0 0 1-30.107975-21.334438l-38.605679-96.540721-68.798525 149.065239a33.948385 33.948385 0 1 1-61.648146-28.442382l101.845156-220.664505c5.452959-11.818282 17.716814-19.753717 30.129192-19.753717m0-42.435481a74.686448 74.686448 0 0 0-40.875978 12.348725 76.680915 76.680915 0 0 0-27.784631 32.049397l-101.845156 220.664505a76.383867 76.383867 0 0 0 69.30775 108.401438 76.670307 76.670307 0 0 0 69.403231-44.366296l27.487583-59.54759 1.994467 4.975561a76.479347 76.479347 0 0 0 67.758856 47.89905H340.693265a76.383867 76.383867 0 0 0 68.448432-42.233914l7.426209-14.852418L439.207236 816.013095a76.383867 76.383867 0 1 0 142.583218-54.84786l-84.870963-220.664505a76.458129 76.458129 0 0 0-67.557287-48.885675h-3.267532a76.320214 76.320214 0 0 0-68.798525 42.233914l-8.784145 17.578898-4.720947-11.818282a76.320214 76.320214 0 0 0-68.352952-47.962703c-1.060887 0-2.121774-0.074262-3.256923-0.074262z" fill="#FA7157" p-id="12879"></path></svg>