<?xml version="1.0" standalone="no"?><!DOCTYPE svg PUBLIC "-//W3C//DTD SVG 1.1//EN" "http://www.w3.org/Graphics/SVG/1.1/DTD/svg11.dtd"><svg t="1597148392339" class="icon" viewBox="0 0 1024 1024" version="1.1" xmlns="http://www.w3.org/2000/svg" p-id="5308" xmlns:xlink="http://www.w3.org/1999/xlink" width="200" height="200"><defs><style type="text/css"></style></defs><path d="M561.772606 798.72V270.429091A38.291394 38.291394 0 0 0 523.481212 232.106667H339.719758A38.275879 38.275879 0 0 0 301.459394 270.429091V798.72h260.328727z" fill="#F8D02D" p-id="5309"></path><path d="M339.719758 745.130667H523.481212v-45.924849H339.719758v45.924849z m7.664484-313.933576h168.448V293.391515H347.384242v137.821091z m214.388364 367.538424V270.413576a38.291394 38.291394 0 0 0-38.291394-38.291394H339.719758a38.275879 38.275879 0 0 0-38.275879 38.291394V798.72h260.328727z m45.924849-413.478788h7.664484a84.231758 84.231758 0 0 1 84.231758 84.231758v237.366303a30.626909 30.626909 0 0 0 61.253818 0.046545V346.980848a38.275879 38.275879 0 0 1-21.069576-70.268121l-32.535272-52.239515 16.244363-16.244364L806.787879 291.529697v415.325091a76.567273 76.567273 0 0 1-153.134546 0V469.488485a38.291394 38.291394 0 0 0-38.291394-38.291394h-7.648969v367.538424h38.275878v45.924849H217.212121v-45.924849h38.291394V270.413576A84.231758 84.231758 0 0 1 339.719758 186.181818H523.481212a84.231758 84.231758 0 0 1 84.231758 84.231758v114.843151z" fill="#444444" p-id="5310"></path><path d="M385.05503 393.309091h93.090909v-62.060606h-93.090909z" fill="#F8D02D" p-id="5311"></path></svg>