<?xml version="1.0" standalone="no"?><!DOCTYPE svg PUBLIC "-//W3C//DTD SVG 1.1//EN" "http://www.w3.org/Graphics/SVG/1.1/DTD/svg11.dtd"><svg t="1597148764378" class="icon" viewBox="0 0 1024 1024" version="1.1" xmlns="http://www.w3.org/2000/svg" p-id="7318" xmlns:xlink="http://www.w3.org/1999/xlink" width="200" height="200"><defs><style type="text/css"></style></defs><path d="M477.8 670l-96.4 96.4c-67.5 67.5-81.6 95.1-187.5 95.2l-66.1 0.1L350.5 636l43.4 11.6-127.5 127.5c-4.7 4.7-4.7 12.3 0 17 4.7 4.7 12.3 4.7 17 0l137.3-137.3 57.1 15.2zM812.2 861.6H344l24-24h444.2zM512.7 520.7c-6.4-1.7-10.2-8.3-8.5-14.7 1.7-6.4 8.3-10.2 14.7-8.5l53.4 14.3c6.4 1.7 10.2 8.3 8.5 14.7-1.7 6.4-8.3 10.2-14.7 8.5l-53.4-14.3z m31.9-31.9l53.4 14.3c6.4 1.7 13-2.1 14.7-8.5 1.7-6.4-2.1-13-8.5-14.7l-53.4-14.3c-6.4-1.7-13 2.1-14.7 8.5-1.7 6.4 2.2 13 8.5 14.7z m-63.8 63.8l53.4 14.3c6.4 1.7 13-2.1 14.7-8.5 1.7-6.4-2.1-13-8.5-14.7L487 529.5c-6.4-1.7-13 2.1-14.7 8.5-1.7 6.3 2.1 12.9 8.5 14.6z m95.8-95.7c-6.4-1.7-10.2-8.3-8.5-14.7 1.7-6.4 8.3-10.2 14.7-8.5l53.4 14.3c6.4 1.7 10.2 8.3 8.5 14.7-1.7 6.4-8.3 10.2-14.7 8.5l-53.4-14.3z m31.9-31.9l53.4 14.3c6.4 1.7 13-2.1 14.7-8.5 1.7-6.4-2.1-13-8.5-14.7l-53.4-14.3c-6.4-1.7-13 2.1-14.7 8.5-1.7 6.4 2.1 13 8.5 14.7zM783 212L410.8 584.2 511.3 611l335.3-335.3c5.9-5.9 9.8-12.4 11.8-19.1 2.4-7.8 2.3-15.9 0.3-23.6-2-7.7-6.2-14.9-12.1-20.9-5.4-5.4-12.2-9.6-20.1-12-7.7-2.4-15.5-2.4-22.8-0.5-7.4 2-14.5 6.3-20.7 12.4zM363.3 580.8c-2.2 2.2-3.8 4.9-4.6 8.1-2.6 9.6 3.1 19.5 12.7 22l139.8 37.3c6.2 2 13.3 0.5 18.3-4.4l342.7-342.7c10.2-10.2 16.9-21.9 20.6-34.1 4.4-14.4 4.4-29.3 0.7-43.2-3.7-13.9-11-26.8-21.4-37.2-9.3-9.3-21.2-16.7-35.2-20.9-14.4-4.4-28.8-4.5-42.3-0.9-13.8 3.7-26.5 11.1-37.1 21.7L363.3 580.8z" fill="#23A3C5" p-id="7319"></path></svg>