<?xml version="1.0" standalone="no"?><!DOCTYPE svg PUBLIC "-//W3C//DTD SVG 1.1//EN" "http://www.w3.org/Graphics/SVG/1.1/DTD/svg11.dtd"><svg t="1597147153959" class="icon" viewBox="0 0 1024 1024" version="1.1" xmlns="http://www.w3.org/2000/svg" p-id="28703" xmlns:xlink="http://www.w3.org/1999/xlink" width="200" height="200"><defs><style type="text/css"></style></defs><path d="M473.22 263.69c-54.83 214.73-176.29 369.15-271.28 344.89-82.25-21-117.68-169.08-90.11-347.82 4.27-27.69 354 21.46 361.39-7.34M551.56 263.69c54.84 214.73 176.29 369.14 271.28 344.89 82.25-21 117.68-169.08 90.11-347.82-4.27-27.69-354 21.46-361.39-7.34" fill="#E60012" p-id="28704"></path><path d="M125 978.74l-27.8-7.1 93.7-366.75s8.75 3.22 12.73 4.1 15.3 2.1 15.3 2.1zM473.22 263.7l39-152.88L168.28 23s-52.14 205.12-56.45 237.79c53.37 2.53 361.39 2.91 361.39 2.91z" fill="#E2E2E2" p-id="28705"></path><path d="M107.892061 987.932812a117.44 27.79 14.33 1 0 13.756403-53.850699 117.44 27.79 14.33 1 0-13.756403 53.850699Z" fill="#E2E2E2" p-id="28706"></path><path d="M899.74 978.74l27.8-7.1-93.66-366.75s-8.75 3.22-12.73 4.1-15.3 2.1-15.3 2.1zM551.56 263.7l-39-152.88L856.5 23s52.14 205.12 56.45 237.79c-53.37 2.53-361.39 2.91-361.39 2.91z" fill="#E2E2E2" p-id="28707"></path><path d="M796.266689 989.908309a27.79 117.44 75.67 1 0 227.572007-58.134293 27.79 117.44 75.67 1 0-227.572007 58.134293Z" fill="#E2E2E2" p-id="28708"></path></svg>