<?xml version="1.0" standalone="no"?><!DOCTYPE svg PUBLIC "-//W3C//DTD SVG 1.1//EN" "http://www.w3.org/Graphics/SVG/1.1/DTD/svg11.dtd"><svg t="1596871866008" class="icon" viewBox="0 0 1024 1024" version="1.1" xmlns="http://www.w3.org/2000/svg" p-id="1333" xmlns:xlink="http://www.w3.org/1999/xlink" width="200" height="200"><defs><style type="text/css"></style></defs><path d="M438.6 226.4c-11.7 0-21.1 9.4-21.1 21.1 0 11.7 9.4 21.1 21.1 21.1s21.1-9.4 21.1-21.1c0-11.6-9.5-21.1-21.1-21.1z m236.6 636.7H348.6c-25.9 0-47.1 21.1-47.1 47.1 0 25.9 21.1 47.1 47.1 47.1h326.5c25.9 0 47.1-21.1 47.1-46.8 0.1-12.6-4.7-24.5-13.6-33.4-8.9-9-20.8-14-33.4-14z m-105-673.2c0-11.7-9.4-21.1-21.1-21.1-11.7 0-21.1 9.4-21.1 21.1s9.4 21.1 21.1 21.1c11.7 0 21.1-9.5 21.1-21.1zM313.1 292.5c-11.7 0-21.1 9.4-21.1 21.1 0 11.7 9.4 21.1 21.1 21.1s21.1-9.4 21.1-21.1c0-11.7-9.4-21.1-21.1-21.1zM990.8 441c-0.1-1.1-0.2-2.1-0.4-3.1v-26c0-25.9-21.1-47.1-47.1-47.1h-68.7c-13.4-166.3-170.9-298-362.6-298S162.8 198.5 149.4 364.9H79.6c-25.9 0-47.1 21.1-47.1 47.1v33.2c-0.5 8.8-0.9 17.7-0.9 26.4 0 73.5 19.8 146.2 57.2 210.4 35.9 61.7 87.9 115.4 150.4 155.2l4.8 3.1c4.4 2.9 9.6 4.4 14.9 4.4h505.8c5.3 0 10.4-1.5 14.9-4.4l4.7-3c62.4-39.8 114.4-93.5 150.5-155.3 37.4-64.2 57.2-137 57.2-211 0-10-0.4-20.1-1.2-30zM512 147.6c146.8 0 267.8 95.6 281.5 217.3h-563C244.2 243.1 365.2 147.6 512 147.6z m341.4 487c-26.2 45.1-63.7 85-108.6 115.9H278.9c-44.8-30.8-82.2-70.7-108.6-115.9-27.7-47.6-43-101.1-44.3-157.9 0.8-2.6 1.2-5.3 1.2-8.1v-9.5h769.4v9.5c0 2.6 0.4 5 1.1 7.4-0.7 55.1-15.9 109.9-44.3 158.6zM710.5 267.1c-11.7 0-21.1 9.4-21.1 21.1s9.4 21.1 21.1 21.1c11.7 0 21.1-9.4 21.1-21.1s-9.5-21.1-21.1-21.1z m-140.3 0c-11.7 0-21.1 9.4-21.1 21.1s9.4 21.1 21.1 21.1c11.7 0 21.1-9.4 21.1-21.1s-9.4-21.1-21.1-21.1z" fill="" p-id="1334"></path></svg>