<?xml version="1.0" standalone="no"?><!DOCTYPE svg PUBLIC "-//W3C//DTD SVG 1.1//EN" "http://www.w3.org/Graphics/SVG/1.1/DTD/svg11.dtd"><svg t="1597145392479" class="icon" viewBox="0 0 1445 1024" version="1.1" xmlns="http://www.w3.org/2000/svg" p-id="4389" xmlns:xlink="http://www.w3.org/1999/xlink" width="282.2265625" height="200"><defs><style type="text/css"></style></defs><path d="M1412.004635 865.905203v28.251394a96.054737 96.054737 0 0 1-96.054737 96.054737h-1124.405452c-79.838437 0-157.75578-11.300557-157.75578-124.306131a169.056337 169.056337 0 0 1 4.350715-38.252386l2.542625 0.565028c92.325553 0 396.084533-2.203609 694.249738-4.576726l363.312917-2.994648 313.533963-2.712133z" fill="#EA5D5C" p-id="4390"></path><path d="M853.248579 305.510567h472.928323a85.884236 85.884236 0 0 1 85.884236 85.884235v266.24113h-241.605915a71.928047 71.928047 0 0 0-71.98455 71.928047v91.082492l-363.312918 2.994648v-4.915742l-263.528996-293.81449-2.0341-3.616179L713.178171 384.218948 853.248579 305.510567z" fill="#EBEDF7" p-id="4391"></path><path d="M850.762457 33.901672m57.576339 0l408.458644 0q57.576339 0 57.576339 57.576339l0 153.461569q0 57.576339-57.576339 57.576339l-408.458644 0q-57.576339 0-57.576339-57.576339l0-153.461569q0-57.576339 57.576339-57.576339Z" fill="#517FE5" p-id="4392"></path><path d="M853.248579 305.510567L713.178171 384.218948S582.713237 275.338079 661.139105 226.011146c71.476025-44.919715 173.915577 60.005959 192.109474 79.499421z" fill="#EA5D5C" p-id="4393"></path><path d="M1316.062903 1024h-1124.405451c-57.350328 0-191.657452 0-191.657452-158.207802a204.144568 204.144568 0 0 1 103.965127-177.870772l740.186504-416.425537h482.025271a119.898913 119.898913 0 0 1 119.785908 119.785908v502.8748a129.956409 129.956409 0 0 1-129.899907 129.843403zM861.893505 339.412239L137.301771 747.136346a136.962755 136.962755 0 0 0-50.852508 50.004966A136.567235 136.567235 0 0 0 67.859847 865.905203c0 70.006952 27.799371 90.404458 123.854108 90.404459h1124.405451a62.153065 62.153065 0 0 0 62.153065-62.153065v-502.8748a52.039066 52.039066 0 0 0-51.982563-51.982564z" fill="#2D3F8C" p-id="4394"></path><path d="M40.851515 862.119517v-67.803344c106.168736 0 480.273685-2.881642 694.023726-4.576726l363.256415-2.994648 313.533962-2.655631 0.621531 67.803344-313.590465 2.712134-363.312918 2.994648c-213.693539 1.638581-588.081002 4.520223-694.532251 4.520223z" fill="#2D3F8C" p-id="4395"></path><path d="M735.101253 852.570546a33.901672 33.901672 0 0 1-25.256746-11.300558L446.428516 547.512001a33.901672 33.901672 0 0 1 50.456989-45.202229l263.528996 293.81449a33.901672 33.901672 0 0 1-25.200243 56.502787zM1132.315842 820.194449h-67.803344v-90.404458a105.999228 105.999228 0 0 1 105.886222-105.82972h241.549412v67.803344h-241.492909a38.139381 38.139381 0 0 0-38.082878 38.026376zM246.182641 770.585002a134.985157 134.985157 0 0 1-94.07714-37.913369l47.010319-48.987916a67.803344 67.803344 0 0 0 109.445897-74.922695l62.435579-26.386801a135.606688 135.606688 0 0 1-124.871158 188.267284zM1316.571429 336.417591h-408.232633a91.591017 91.591017 0 0 1-91.478011-91.478011V91.478011A91.591017 91.591017 0 0 1 908.338796 0H1316.571429a91.591017 91.591017 0 0 1 91.478011 91.478011v153.461569A91.591017 91.591017 0 0 1 1316.571429 336.417591zM908.338796 67.803344a23.957181 23.957181 0 0 0-23.674668 23.674667v153.461569a23.674668 23.674668 0 0 0 23.674668 23.674667H1316.571429a23.674668 23.674668 0 0 0 23.674667-23.674667V91.478011A23.957181 23.957181 0 0 0 1316.571429 67.803344z" fill="#2D3F8C" p-id="4396"></path><path d="M691.424599 410.21023c-15.651272-13.052144-93.568614-81.646527-89.104895-148.263312 1.243061-18.589417 9.32296-45.202229 40.795012-64.69569 91.252-57.350328 202.845004 50.852508 234.825581 85.206202 2.316614 2.486123 3.503173 3.842189 3.503173 3.842189l-50.852508 44.580699-2.090603-2.316614c-33.901672-36.557303-108.88087-99.16239-149.054351-73.905645-8.814435 5.650279-9.096949 9.661976-9.266457 11.865585-1.582078 22.996634 36.670308 67.803344 64.921702 91.704023zM698.487447 580.792143a33.901672 33.901672 0 0 1-24.013684-9.944491l-95.150693-95.263698a33.901672 33.901672 0 0 1 47.914363-47.914363l95.150693 95.263698a33.901672 33.901672 0 0 1-24.013685 57.858854z" fill="#2D3F8C" p-id="4397"></path><path d="M832.964079 541.692214a33.901672 33.901672 0 0 1-23.392154-9.379462l-123.402086-117.977818a33.901672 33.901672 0 1 1 46.84081-48.987916l123.402086 117.977818a33.901672 33.901672 0 0 1-23.448656 58.423881z" fill="#2D3F8C" p-id="4398"></path></svg>