<?xml version="1.0" standalone="no"?><!DOCTYPE svg PUBLIC "-//W3C//DTD SVG 1.1//EN" "http://www.w3.org/Graphics/SVG/1.1/DTD/svg11.dtd"><svg t="1597147169865" class="icon" viewBox="0 0 1024 1024" version="1.1" xmlns="http://www.w3.org/2000/svg" p-id="28987" xmlns:xlink="http://www.w3.org/1999/xlink" width="200" height="200"><defs><style type="text/css"></style></defs><path d="M834.3 791.3c-3.7-9.3 0.4-15.1 4.4-18.3 0.9-0.7 1.6-1.6 2.4-2.4l1.5-1.6c19.8-20 21.6-46.3 4.7-68.4-19.3-25.3-38.8-50.6-58.3-75.8l-24-31.2c-24.2-31.5-49.7-64-75.1-96.5-23.7-30.3-47.4-60.5-70-89.9l-2.6-3.4 1-4.2c4.9-20.7 7.4-41.8 7.4-62.8C625.7 187.5 504.2 66 354.9 66S84.1 187.4 84.1 336.7s121.5 270.8 270.8 270.8c19.9 0 40-2.3 59.7-6.7l4.1-0.9L605 743.2c37.7 29 75.4 58.1 113.2 87 9.6 7.3 20.5 11.2 31.5 11.2 12.7 0 24.8-5 34.9-14.5 0.9-0.8 1.8-1.6 3.2-2.8l14.5-12.7 5.3 26.8c2.5 12.5 4.8 24.4 7 36.2 0.8 4.6-1 10.2-4.5 13.5-19.5 18.5-39.3 27.4-60.4 27.4-6.5 0-13.1-0.9-19.8-2.6-23.3-6-48-12.7-72.1-21.2-111.4-39.4-217.9-59.6-325.6-61.7-3.9-0.1-7.8-0.1-11.7-0.1-58 0-111.6 8.4-163.7 25.8-31.1 10.3-57.7 21.5-81.1 34.1-6 3.2-10 8.4-11.2 14.5-1.2 5.9 0.3 11.8 4.2 16.7 3.8 4.8 9.1 7.4 15.2 7.4 4 0 8.1-1.1 12.2-3.2 58.3-29.9 118.4-47.6 178.4-52.7 14.2-1.2 28.7-1.8 44.4-1.8 31.6 0 63.2 2.5 87.2 4.8 63.3 5.8 128.5 19.4 194 40.4 9.7 3.1 19.4 6.3 29.2 9.4 24.8 8.1 50.5 16.4 75.8 23.9 16.1 4.8 30.8 7.1 44.8 7.1 10.7 0 21.1-1.4 31-4.2 26.4-7.4 46.7-24 63.2-39.2 6.2-5.8 9.7-12 10.6-19.2 1.1-8.2 1.4-15.8 0.9-22.5-2.3-28.7-11.6-55.2-21.3-79.7zM354.9 556.8c-95.9 0-182.5-64.1-210.6-155.9l-0.4-1.2v-1.3c-0.1-4.5-1.4-9.6-2.8-14.9-1-3.9-2.1-7.9-2.7-12.1-1.6-10.7-2.5-21.6-2.5-32.4 0-21.6 3.1-43.1 9.5-64 16.9-56 54.7-102.1 106.3-129.8 31.8-17 67.5-26.1 103.2-26.1 21.5 0 42.9 3.2 63.7 9.5 56 16.9 102.1 54.7 129.8 106.3C576.1 286.7 581.9 346 565 402c-2 6.7-4.4 13.5-7.2 20.3l-0.9 2c-1.4 3.3-3 6.6-4.6 9.8l-0.7 1.4c-37.8 74.8-113.1 121.3-196.7 121.3zM747.7 800L468 584.8l12.5-6.4c49.1-25.2 90.1-66 115.5-115l6.5-12.4 214.9 279.3-69.7 69.7z" fill="#6B400D" p-id="28988"></path><path d="M330 480c-44.2-15.7-73.3-41-100.4-87.4l-1.8-2.9c-3.2-4.2-8.2-6.6-13.6-6.6-1.1 0-2.2 0.1-3.4 0.3-1.8 0.4-3.4 1-4.8 1.9-7 4.1-10.1 12.7-7.3 20.6l2 3.9c30.5 52.2 65.3 82.3 116.4 100.8 1 0.4 6.4 2.4 9.1 2.4l0.8-0.1 2.5-0.4c1.6-0.4 3.2-1 4.6-1.8 8-4.7 10.7-15 6-23.1-2.3-3.8-6-6.6-10.1-7.6zM209 360.3c1.3-4.6 0.8-9.6-1.5-13.8-3.2-5.8-9.3-9.4-15.9-9.4-1.1 0-2.3 0.1-3.4 0.3-1.8 0.3-3.6 1-5.4 1.9-8.8 4.8-12 15.9-7.2 24.6 3.2 5.8 9.3 9.4 15.9 9.4 1.1 0 2.3-0.1 3.4-0.3 1.8-0.3 3.6-1 5.4-1.9 4.3-2.3 7.4-6.1 8.7-10.8z" fill="#6B400D" p-id="28989"></path><path d="M596.1 463.4c-25.4 48.9-66.4 89.8-115.5 115l-12.5 6.4L747.7 800l69.7-69.7L602.5 451l-6.4 12.4z" fill="#FFD524" p-id="28990"></path></svg>