<?xml version="1.0" standalone="no"?><!DOCTYPE svg PUBLIC "-//W3C//DTD SVG 1.1//EN" "http://www.w3.org/Graphics/SVG/1.1/DTD/svg11.dtd"><svg t="1597147302177" class="icon" viewBox="0 0 1024 1024" version="1.1" xmlns="http://www.w3.org/2000/svg" p-id="29900" xmlns:xlink="http://www.w3.org/1999/xlink" width="200" height="200"><defs><style type="text/css"></style></defs><path d="M511.3 980h-8.7s-2.5-0.1-3.2-0.1c-1.3 0-2.6-0.1-3.8-0.1l-2-0.1c-1.5-0.1-3.1-0.1-4.6-0.2l-1.1-0.1c-12.3-0.6-24.9-1.8-37.2-3.4-22.8-3-45.5-7.7-67.5-14C222.6 916.1 98 787 57.8 625.1c-6-24.1-10.1-48.9-12.1-73.8-0.3-3.3-0.5-6.3-0.7-9.1v-0.3l-0.3-5.1-0.1-1.2c-0.1-1.5-0.1-2.9-0.2-4.4l-0.1-1.9c0-1.2-0.1-2.5-0.1-3.8 0-0.8 0-1.6-0.1-2.4 0-1.1 0-2.3-0.1-3.4v-2.8-3.1-3-2.5c0-1.8 0-3.6 0.1-5.4v-2c0.1-2.4 0.1-4.8 0.2-7.2v-1c0.1-2.1 0.2-4.1 0.3-6.2 0-0.7 0.1-1.5 0.1-2.2l0.3-5.4 0.1-2c0.2-2.4 0.4-4.7 0.6-7.1l0.1-1c0.2-2 0.4-4.1 0.6-6.1l0.2-2.1c0.2-1.8 0.4-3.6 0.6-5.3l0.2-1.9c0.3-2.3 0.6-4.7 0.9-7l0.1-1c0.3-2 0.6-4.1 0.9-6.1l0.3-2.1c0.3-1.8 0.6-3.5 0.9-5.3l0.3-1.8c0.4-2.3 0.8-4.6 1.3-6.9l0.2-0.9 1.2-6 0.4-2c0.4-1.8 0.8-3.5 1.2-5.3l0.4-1.7c0.5-2.3 1.1-4.6 1.6-6.8l0.2-0.8 1.5-6 0.5-1.9c0.5-1.8 0.9-3.5 1.4-5.3l0.5-1.6c0.6-2.2 1.3-4.5 2-6.7l0.2-0.8c0.6-2 1.2-3.9 1.8-5.9l0.6-1.8c0.6-1.8 1.1-3.5 1.7-5.2l0.5-1.5c0.7-2.2 1.5-4.4 2.3-6.6l0.3-0.7c0.7-1.9 1.4-3.9 2.1-5.8l0.6-1.7c0.6-1.7 1.3-3.5 2-5.2l0.5-1.4c0.9-2.2 1.7-4.4 2.6-6.5l0.3-0.6c0.8-1.9 1.6-3.9 2.4-5.8l0.7-1.6c0.7-1.7 1.5-3.4 2.3-5.1l0.6-1.3c1-2.2 1.9-4.3 2.9-6.4l0.3-0.6 2.7-5.7 0.8-1.6c0.8-1.7 1.7-3.4 2.5-5.1l0.6-1.2 3.3-6.3 0.2-0.5c1-1.9 2-3.8 3-5.6l0.8-1.4c1-1.7 1.9-3.4 2.8-5l0.6-1.1c1.2-2 2.3-4.1 3.5-6.1l0.1-0.2c9.4-15.8 26-25.3 44.4-25.3 21.6 0 40.6 13 48.3 33.2l0.3 0.7c5.7 14.8 4.4 31-3.6 44.6-8.3 14-15.7 28.7-22 43.6-19 44.8-28.6 92.5-28.6 141.7 0 12.4 0.6 24.8 1.9 37.1 14.7 1.8 29.6 2.7 44.5 2.7 49.2 0 96.8-9.6 141.7-28.6 8.8-3.7 17.5-7.8 26-12.2-1.1-1.3-2.2-2.7-3.2-4l-0.1-0.2c-2.5-3.2-5.1-6.4-7.6-9.7l-0.3-0.4c-6.4-8.2-12.7-16.7-18.8-25.2-6.1-8.5-12.1-17.2-17.9-25.8l-0.2-0.4c-7.3-10.9-14.4-22.1-21.1-33.3-4.1-6.8-8.1-13.6-12-20.5l-0.1-0.2c-2.1-3.6-4.1-7.3-6.1-10.9l-0.1-0.1c-1.7-3-3.3-6.1-4.9-9.1-5.9-11-11.6-22.2-16.9-33.2-2.3-4.8-4.6-9.6-6.8-14.4l-0.1-0.3c-8.8-19.3-17.1-39.1-24.5-59l-0.1-0.3c-1.2-3.1-2.4-6.5-3.8-10.5l-0.9-2.6c-1.3-3.7-2.5-7.1-3.6-10.4l-0.7-2c-1.1-3.2-2.1-6.3-3.2-9.5l-0.7-2c-1.1-3.4-2.2-7-3.4-10.7l-0.7-2.4c-1.3-4.2-2.3-7.7-3.3-11.1v-0.1c-5.9-20.2 0.9-41.8 17.2-55.1l0.1-0.1c4.8-3.9 9.8-7.8 14.8-11.5l0.4-0.3 4.5-3.3 0.8-0.6 4.2-3 0.9-0.7c1.4-1 2.8-1.9 4.2-2.9l0.9-0.6c1.5-1 2.9-2 4.4-3l0.6-0.4 5.1-3.3c2.3-1.5 4.7-3 7.1-4.5l0.5-0.3c4.8-2.9 9.6-5.8 14.4-8.5l0.7-0.4c4.8-2.7 9.7-5.4 14.5-7.9l0.8-0.4c4.9-2.5 9.8-5 14.8-7.3l0.8-0.4c2.7-1.3 5.1-2.4 7.5-3.5 0.1 0 0.1-0.1 0.2-0.1 1.8-0.8 3.5-1.6 5.3-2.3l0.6-0.3c1.6-0.7 3.2-1.4 4.8-2l1-0.4c1.5-0.6 3-1.2 4.5-1.9l1.2-0.5c1.4-0.6 2.9-1.1 4.3-1.7l1.3-0.5c1.4-0.5 2.8-1.1 4.2-1.6l1.5-0.5c1.4-0.5 2.7-1 4.1-1.5l1.5-0.6c1.4-0.5 2.7-1 4.1-1.4l1.6-0.6c1.3-0.5 2.7-0.9 4.1-1.4l1.6-0.5c1.4-0.5 2.8-0.9 4.1-1.3l1.5-0.5c1.4-0.4 2.8-0.9 4.2-1.3l1.5-0.5c1.5-0.4 2.9-0.9 4.4-1.3l1.6-0.4c1.5-0.4 3-0.9 4.6-1.3l1.1-0.3c1.7-0.5 3.4-0.9 5.1-1.4l0.6-0.2c5.9-1.5 11.9-3 17.9-4.2l0.3-0.1c1.8-0.4 3.7-0.8 5.5-1.2l1.4-0.3 4.5-0.9 1.8-0.3c1.4-0.3 2.7-0.5 4.1-0.7l2.1-0.4c1.3-0.2 2.5-0.4 3.8-0.6 0.6-0.1 2.3-0.4 2.3-0.4 1.2-0.2 2.5-0.4 3.7-0.6 0.8-0.1 1.5-0.2 2.3-0.3 1.3-0.2 2.5-0.4 3.7-0.5 0.8-0.1 1.7-0.2 2.5-0.3 1.2-0.2 2.3-0.3 3.5-0.4 0.9-0.1 1.7-0.2 2.6-0.3 1.2-0.1 2.3-0.3 3.5-0.4 0.9-0.1 1.7-0.2 2.6-0.3 1.2-0.1 2.3-0.2 3.5-0.4 0.9-0.1 1.7-0.2 2.6-0.3 1.2-0.1 2.3-0.2 3.5-0.3 0 0 1.9-0.2 2.7-0.2 1.2-0.1 2.3-0.2 3.5-0.3 0 0 1.9-0.1 2.7-0.2 1.1-0.1 2.1-0.1 3.2-0.2h0.8c0.7 0 1.4-0.1 2.1-0.1 1.2-0.1 2.4-0.1 3.6-0.2h0.6c0.7 0 1.3-0.1 2-0.1 1.1 0 2.2-0.1 3.3-0.1 0 0 2.3-0.1 2.9-0.1 1.3 0 2.6-0.1 3.9-0.1h8.5c16.3 0 32.7 0.9 48.9 2.5 24.8 2.6 49.5 7.2 73.5 13.6 66.4 17.9 129.2 51.1 181.7 96 52.1 44.5 94.4 100.9 122.6 163.1 9.5 20.9 17.5 42.8 23.7 64.9C974.1 425.6 980 468.6 980 512v8.5c0 1.2 0 2.3-0.1 3.5 0 0.6-0.1 2.6-0.1 2.6l-0.1 3.4c0 0.6-0.1 2.7-0.1 2.7v0.8c0 0.8-0.1 1.6-0.1 2.4 0 0.7-0.1 1.4-0.1 2.1l-0.1 1.6c0 0.8-0.1 1.5-0.1 2.3 0 0.7-0.1 1.5-0.1 2.2l-0.1 1.5c0 0.7-0.1 1.4-0.2 2.2-0.1 0.8-0.1 1.7-0.2 2.5l-0.1 1.2c-0.1 0.7-0.1 1.4-0.2 2.2-0.1 0.8-0.1 1.6-0.2 2.4 0 0-0.3 2.7-0.3 3.4l-0.3 2.7s-0.3 2.4-0.3 3.1c-0.1 1-0.2 1.9-0.3 2.9 0 0-0.3 2.3-0.3 2.9-0.1 1.1-0.3 2.1-0.4 3.2 0 0-0.3 1.9-0.3 2.5-0.2 1.1-0.3 2.3-0.5 3.4l-0.3 2.3c-0.2 1.2-0.4 2.3-0.5 3.5 0 0-0.2 1.6-0.4 2.2-0.2 1.2-0.4 2.4-0.6 3.5l-0.4 2.1c-0.2 1.2-0.4 2.4-0.7 3.6l-0.4 2-0.7 3.8-0.4 1.8c-0.3 1.3-0.5 2.5-0.8 3.8l-0.4 1.8c-0.3 1.3-0.5 2.5-0.8 3.8l-0.4 1.8-0.9 3.9-0.4 1.7c-0.3 1.3-0.6 2.6-1 3.9l-0.4 1.6c-0.3 1.3-0.7 2.7-1 4l-0.4 1.4c-0.4 1.4-0.7 2.7-1.1 4.1l-0.4 1.4c-0.4 1.4-0.8 2.8-1.2 4.1l-0.4 1.2c-0.4 1.4-0.8 2.8-1.3 4.2l-0.3 1.1c-0.4 1.5-0.9 2.9-1.3 4.3l-0.3 1c-0.5 1.5-0.9 2.9-1.4 4.4l-0.3 0.9c-0.5 1.5-1 3-1.5 4.4l-0.3 0.8c-0.5 1.5-1 3-1.6 4.5l-0.3 0.7c-0.5 1.5-1.1 3.1-1.7 4.6l-0.2 0.5-1.8 4.8-0.1 0.3c-0.6 1.7-1.3 3.3-1.9 4.9l-0.1 0.2c-0.7 1.7-1.3 3.3-2 5-2.2 5.3-4.5 10.7-6.9 16 0 0-0.1 0.1-0.1 0.2-2.4 5.2-4.9 10.5-7.5 15.6 0 0 0 0.1-0.1 0.1-2.6 5.2-5.3 10.3-8.1 15.3 0 0.1-0.1 0.1-0.1 0.2-2.8 5-5.6 10-8.5 14.8v0.1c-12.4 20.7-26.6 40.7-42.1 59.3-6.2 7.4-12.7 14.7-19.3 21.7-2.2 2.3-4.4 4.7-6.7 7l-0.1 0.1c-6.7 6.8-13.7 13.5-20.8 19.9l-0.2 0.2c-2.4 2.2-4.8 4.3-7.1 6.3l-0.1 0.1c-7.6 6.5-15.5 12.9-23.5 18.9l-0.3 0.3-3.6 2.7-0.5 0.4c-1.2 0.9-2.4 1.7-3.6 2.6l-0.7 0.5c-1.2 0.9-2.4 1.7-3.6 2.5l-0.6 0.5c-1.2 0.9-2.4 1.7-3.7 2.5l-0.5 0.3c-1.3 0.9-2.6 1.8-3.9 2.6-6.9 4.6-14.1 9.2-21.3 13.5l-0.4 0.2c-1.2 0.7-2.5 1.5-3.7 2.2l-0.9 0.5c-1.2 0.7-2.4 1.4-3.5 2l-1.1 0.6c-1.1 0.6-2.3 1.3-3.5 1.9l-1.1 0.6c-1.2 0.6-2.3 1.3-3.5 1.9l-1.1 0.6c-1.2 0.6-2.4 1.3-3.6 1.9l-1 0.5c-1.2 0.6-2.5 1.3-3.8 1.9l-0.4 0.2c-5.7 2.9-11.6 5.7-17.5 8.4l-0.8 0.4c-1.2 0.5-2.4 1.1-3.6 1.6l-1.4 0.6c-1.1 0.5-2.2 1-3.4 1.5l-1.6 0.7c-0.9 0.4-1.9 0.8-2.8 1.2l-2.1 0.9c-1.1 0.4-2.1 0.9-3.2 1.3l-1.8 0.7c-1.1 0.4-2.1 0.8-3.2 1.3l-1.8 0.7c-1.1 0.4-2.2 0.8-3.2 1.2l-1.7 0.6c-1.2 0.4-2.3 0.8-3.4 1.2l-1.4 0.5c-4 1.4-8 2.8-12.1 4.2l-1.5 0.5c-1 0.3-1.9 0.6-2.9 0.9l-2.4 0.7c-1 0.3-2 0.6-2.9 0.9 0 0-1.7 0.5-2.3 0.7-1 0.3-1.9 0.6-2.9 0.9l-2.3 0.7c-1 0.3-1.9 0.5-2.9 0.8l-2.4 0.7c-1 0.3-1.9 0.5-2.8 0.8-0.9 0.2-1.7 0.5-2.5 0.7-0.9 0.2-1.8 0.5-2.8 0.7-0.7 0.2-3.8 0.9-3.8 0.9l-1.6 0.4c-0.7 0.2-3.4 0.8-3.4 0.8-0.6 0.2-1.3 0.3-1.9 0.5-0.8 0.2-1.6 0.4-2.5 0.6l-0.5 0.1c-1.2 0.3-2.3 0.5-3.5 0.8-1.4 0.3-2.7 0.6-4.1 0.9-0.6 0.1-2.8 0.6-2.8 0.6-0.9 0.2-1.8 0.4-2.7 0.5-0.6 0.1-2.5 0.5-2.5 0.5l-0.4 0.1c-0.8 0.2-1.7 0.3-2.5 0.5-0.7 0.1-2.6 0.5-2.6 0.5-1 0.2-2 0.3-2.9 0.5-0.8 0.1-1.7 0.3-2.5 0.4-1.1 0.2-2.1 0.3-3.1 0.5-0.9 0.1-1.7 0.3-2.6 0.4-1 0.2-2 0.3-3 0.4-0.9 0.1-1.7 0.2-2.6 0.4-1 0.1-2 0.3-3.1 0.4-0.8 0.1-1.7 0.2-2.5 0.3-1.1 0.1-2.2 0.3-3.2 0.4 0 0-1.8 0.2-2.4 0.3-1.2 0.1-2.4 0.3-3.7 0.4l-2 0.2c-1.9 0.2-3.8 0.4-5.6 0.5l-0.9 0.1c-1.6 0.1-3.2 0.3-4.8 0.4l-2 0.1c-1.2 0.1-2.4 0.2-3.7 0.3l-2.3 0.1c-1.2 0.1-2.3 0.1-3.4 0.2-0.8 0-1.6 0.1-2.4 0.1-1.1 0.1-2.2 0.1-3.3 0.1-0.8 0-1.6 0.1-2.5 0.1-1.1 0-2.2 0.1-3.3 0.1-0.8 0-1.7 0-2.5 0.1-1.1 0-2.2 0-3.3 0.1h-8.6z m100-256.2c-35.8 48.3-68.2 99.3-96.7 152.2 32.5-0.2 64.5-4.7 95.4-13.3 8.9-40.7 23.2-79.8 42.5-116.7-4.4-2.2-8.8-4.5-13.2-6.8-7.4-3.9-14.8-7.9-22.1-12.1l-0.4-0.3c-1.9-0.9-3.7-2-5.5-3z m-434-68.3c18.3 42.6 44.3 80.9 77.3 113.9 33.5 33.5 72.4 59.7 115.7 78 11.3 4.8 22.8 9 34.6 12.6 26.1-52 55.8-102.6 88.2-150.6 9.7-14.4 19.9-28.8 30.4-43.2-7.4-5.5-14.7-11.1-21.8-16.8l-0.5-0.4c-3-2.4-6.1-4.9-9.2-7.4l-0.6-0.4c-12.9-10.5-25.7-21.6-37.9-32.8l-0.2-0.1c-2.9-2.7-5.9-5.5-8.9-8.2l-0.6-0.5c-3-2.9-6-5.7-8.8-8.4l-1.2-1.2c-72.3 43.2-154.8 65.9-239.6 65.9-5.5-0.1-11.2-0.2-16.9-0.4z m570.9 132.1c-0.5 0.9-0.9 1.7-1.4 2.6 0.8-0.7 1.7-1.4 2.5-2.2-0.3-0.2-0.7-0.3-1.1-0.4z m67.1-87c2.4 0.8 4.7 1.5 6.8 2.1 3.6-5.8 7-11.7 10.2-17.7-5.9 5-11.6 10.2-17.2 15.5 0.1 0.1 0.1 0.1 0.2 0.1z m-137.7-58.9c11.1 6.1 22.4 11.9 33.8 17.4 44.9-52.5 101.1-94.6 163.8-122.9 0.5-8.1 0.8-16.2 0.8-24.3 0-16.8-1.1-33.4-3.4-49.9-71.1 52.9-136.5 113.2-195 179.7zM517.7 526.1c22.3 20.9 45.9 40.5 70.5 58.6 22.6-26.4 46.3-51.9 70.5-76.2 56-56 117.2-107.3 182.1-152.8-17.9-37.6-41.9-71.5-71.5-101.2-31.2-31.2-67.2-56.2-107.1-74.3 0 2.5 0.1 4.9 0.1 7.4 0 68.9-14.6 135.2-43.5 197.2-24.7 53.4-58.7 100.8-101.1 141.3z m-187-267.4c5.7 13.6 12 27.2 18.5 40.5s13.6 26.6 20.9 39.5c2.5 4.5 5.2 9 7.8 13.5 6.6 11.2 13.6 22.3 20.6 33 1.4 2.2 2.9 4.3 4.3 6.5 13.5 20 28.2 39.6 43.6 58.5 1.7-1.7 3.5-3.4 5.1-5 33.5-33.5 59.7-72.4 78-115.7 19-44.8 28.6-92.5 28.6-141.7 0-12.4-0.6-24.8-1.9-37.1-14.7-1.8-29.6-2.7-44.5-2.7-49.2 0-96.8 9.6-141.7 28.6-5.7 2.4-11.5 5.1-17.4 7.9-14.3 7-28.2 14.9-41.5 23.7 0.4 1.2 0.8 2.3 1.2 3.4 0.4 1.1 0.8 2.3 1.2 3.4l0.2 0.5c0.6 1.6 1.1 3.2 1.7 4.8 0.5 1.3 0.9 2.6 1.4 3.9 0.6 1.6 1.2 3.3 1.8 4.9 0.5 1.3 0.9 2.5 1.4 3.8 0.6 1.7 1.3 3.4 2 5.1l0.4 1c0.3 0.9 0.7 1.7 1 2.6 0.7 1.9 1.5 3.8 2.3 5.7 0 0 0.9 2.3 1.2 2.9 1.2 2.8 2.3 5.7 3.5 8.5 0.3-0.1 0.3-0.1 0.3 0z" fill="#FFD4D4" p-id="29901"></path><path d="M392.7 516.7c-15.6 9.4-31.9 17.8-48.9 24.9-47.3 20-97.6 30.2-149.5 30.2-21.1 0-42-1.7-62.5-5-2.6-18-3.9-36.3-3.9-54.7 0-51.9 10.1-102.2 30.2-149.5 6.7-15.9 14.5-31.3 23.2-46 4.9-8.2 5.6-18.2 2.1-27.1-0.1-0.2-0.2-0.5-0.3-0.7-9.6-24.8-43.3-27.6-56.9-4.8 0 0 0 0.1-0.1 0.1-1.1 1.9-2.3 3.9-3.4 5.8-0.2 0.4-0.4 0.7-0.6 1.1l-2.7 4.8c-0.3 0.5-0.5 0.9-0.8 1.4-1 1.8-1.9 3.6-2.9 5.4-0.1 0.2-0.2 0.3-0.2 0.5-1 2-2.1 4-3.1 6l-0.6 1.2c-0.8 1.6-1.6 3.2-2.4 4.9-0.2 0.5-0.5 1-0.7 1.5-0.9 1.8-1.7 3.6-2.6 5.4-0.1 0.2-0.2 0.4-0.3 0.5-0.9 2-1.9 4.1-2.8 6.1-0.2 0.4-0.4 0.8-0.6 1.3-0.7 1.6-1.4 3.3-2.2 4.9-0.2 0.5-0.5 1-0.7 1.6-0.8 1.8-1.6 3.7-2.3 5.5-0.1 0.2-0.2 0.4-0.2 0.6-0.8 2.1-1.7 4.2-2.5 6.2-0.2 0.4-0.3 0.9-0.5 1.3-0.6 1.7-1.3 3.3-1.9 5-0.2 0.6-0.4 1.1-0.6 1.7-0.7 1.9-1.4 3.7-2 5.6-0.1 0.2-0.2 0.4-0.2 0.7-0.7 2.1-1.5 4.2-2.2 6.4-0.2 0.5-0.3 1-0.5 1.5-0.6 1.7-1.1 3.3-1.6 5l-0.6 1.8c-0.6 1.9-1.2 3.8-1.7 5.6-0.1 0.3-0.2 0.5-0.2 0.8-0.6 2.1-1.3 4.3-1.9 6.5-0.1 0.5-0.3 1-0.4 1.5-0.5 1.7-0.9 3.4-1.4 5-0.2 0.6-0.3 1.2-0.5 1.8-0.5 1.9-1 3.8-1.4 5.7-0.1 0.3-0.1 0.6-0.2 0.8-0.5 2.2-1 4.4-1.5 6.5-0.1 0.5-0.2 1.1-0.4 1.6-0.4 1.7-0.7 3.4-1.1 5.1-0.1 0.6-0.3 1.3-0.4 1.9-0.4 1.9-0.8 3.8-1.2 5.8-0.1 0.3-0.1 0.6-0.2 0.9l-1.2 6.6c-0.1 0.6-0.2 1.1-0.3 1.7-0.3 1.7-0.6 3.4-0.8 5.1-0.1 0.7-0.2 1.3-0.3 2-0.3 1.9-0.6 3.9-0.9 5.8 0 0.3-0.1 0.6-0.1 0.9-0.3 2.2-0.6 4.5-0.9 6.7-0.1 0.6-0.1 1.2-0.2 1.8l-0.6 5.1c-0.1 0.7-0.1 1.4-0.2 2-0.2 1.9-0.4 3.9-0.6 5.9 0 0.3-0.1 0.6-0.1 1-0.2 2.3-0.4 4.5-0.6 6.8 0 0.6-0.1 1.2-0.1 1.9-0.1 1.7-0.2 3.4-0.3 5.2 0 0.7-0.1 1.4-0.1 2.1-0.1 2-0.2 3.9-0.3 5.9v1c-0.1 2.3-0.2 4.6-0.2 6.9v1.9c0 1.7-0.1 3.5-0.1 5.2v11c0 1.1 0 2.2 0.1 3.2 0 0.8 0 1.5 0.1 2.3 0 1.2 0.1 2.4 0.1 3.7 0 0.6 0 1.2 0.1 1.8 0.1 1.4 0.1 2.8 0.2 4.2 0 0.4 0 0.8 0.1 1.1 0.1 1.6 0.2 3.3 0.3 4.9v0.3l0.6 8.7c2 24.1 5.9 47.7 11.6 70.6 38.6 155.3 158.2 278.6 311.3 322.5 20.9 6 42.5 10.5 64.6 13.4 11.7 1.5 23.6 2.6 35.6 3.2 0.4 0 0.7 0 1.1 0.1 1.5 0.1 3 0.1 4.5 0.2 0.6 0 1.3 0 1.9 0.1 1.2 0 2.4 0.1 3.7 0.1 0.8 0 1.7 0 2.5 0.1 1.1 0 2.1 0 3.2 0.1H519.2c1.1 0 2.1 0 3.2-0.1 0.8 0 1.6 0 2.4-0.1 1.1 0 2.1-0.1 3.2-0.1 0.8 0 1.6-0.1 2.4-0.1 1.1 0 2.1-0.1 3.2-0.1 0.8 0 1.5-0.1 2.3-0.1 1.1-0.1 2.2-0.1 3.3-0.2 0.7 0 1.5-0.1 2.2-0.1 1.2-0.1 2.3-0.2 3.5-0.2 0.6 0 1.3-0.1 1.9-0.1 1.5-0.1 3.1-0.2 4.6-0.4 0.3 0 0.6 0 0.8-0.1 1.8-0.2 3.6-0.3 5.4-0.5 0.6-0.1 1.3-0.1 1.9-0.2 1.2-0.1 2.3-0.2 3.5-0.4 0.7-0.1 1.5-0.2 2.2-0.3 1-0.1 2.1-0.2 3.1-0.4l2.4-0.3c1-0.1 2-0.3 3-0.4 0.8-0.1 1.6-0.2 2.5-0.3 1-0.1 1.9-0.3 2.9-0.4 0.8-0.1 1.7-0.2 2.5-0.4 0.9-0.1 1.9-0.3 2.8-0.5 0.8-0.1 1.7-0.3 2.5-0.4 0.9-0.2 1.9-0.3 2.8-0.5 0.8-0.1 1.6-0.3 2.5-0.4 0.9-0.2 1.9-0.3 2.8-0.5 0.8-0.2 1.6-0.3 2.4-0.5 1-0.2 1.9-0.4 2.9-0.6 0.8-0.2 1.5-0.3 2.3-0.5 1.3-0.3 2.6-0.6 3.9-0.8 1.1-0.2 2.3-0.5 3.4-0.7 1-0.2 1.9-0.4 2.9-0.6 0.9-0.2 1.7-0.4 2.6-0.6 0.9-0.2 1.7-0.4 2.6-0.6 0.5-0.1 1-0.3 1.5-0.4 0.4-0.1 0.7-0.2 1.1-0.3 0.8-0.2 1.7-0.4 2.5-0.6 0.9-0.2 1.8-0.5 2.7-0.7l2.4-0.6c0.9-0.2 1.8-0.5 2.7-0.7 0.8-0.2 1.6-0.4 2.3-0.6 0.9-0.3 1.8-0.5 2.8-0.8 0.8-0.2 1.5-0.4 2.2-0.7 0.9-0.3 1.9-0.5 2.8-0.8 0.7-0.2 1.4-0.4 2.2-0.7 1-0.3 1.9-0.6 2.9-0.9 0.7-0.2 1.3-0.4 2-0.6 1-0.3 2-0.6 3-1 0.5-0.2 1-0.3 1.4-0.5 3.9-1.3 7.8-2.6 11.6-4 0.5-0.2 0.9-0.3 1.4-0.5 1.1-0.4 2.1-0.8 3.2-1.2 0.5-0.2 1.1-0.4 1.6-0.6 1-0.4 2.1-0.8 3.1-1.2 0.6-0.2 1.1-0.4 1.7-0.7 1-0.4 2-0.8 3.1-1.2 0.6-0.2 1.1-0.5 1.7-0.7 1-0.4 2.1-0.8 3.1-1.3 0.5-0.2 1.1-0.5 1.6-0.7 0.1-0.1 0.3-0.1 0.4-0.2 0.9-0.4 1.8-0.8 2.7-1.1 0.5-0.2 1-0.4 1.5-0.7 1.1-0.5 2.1-0.9 3.2-1.4 0.4-0.2 0.9-0.4 1.3-0.6 1.1-0.5 2.3-1 3.4-1.5 0.2-0.1 0.5-0.2 0.7-0.3 5.6-2.6 11.2-5.3 16.8-8.1 0.1-0.1 0.3-0.1 0.4-0.2 1.2-0.6 2.4-1.2 3.6-1.9 0.3-0.2 0.6-0.3 0.9-0.5 1.1-0.6 2.3-1.2 3.4-1.8 0.4-0.2 0.7-0.4 1.1-0.6l3.3-1.8c0.4-0.2 0.7-0.4 1.1-0.6 1.1-0.6 2.2-1.2 3.3-1.9 0.3-0.2 0.7-0.4 1-0.6 1.1-0.6 2.3-1.3 3.4-2 0.3-0.2 0.5-0.3 0.8-0.5l3.6-2.1c0.1-0.1 0.3-0.2 0.4-0.2 6.9-4.1 13.7-8.4 20.4-12.9 1.2-0.8 2.5-1.7 3.7-2.5 0.2-0.1 0.3-0.2 0.5-0.3 1.2-0.8 2.3-1.6 3.5-2.4 0.2-0.1 0.4-0.3 0.6-0.4 1.1-0.8 2.3-1.6 3.4-2.4 0.2-0.2 0.4-0.3 0.7-0.5 1.1-0.8 2.3-1.6 3.4-2.5 0.2-0.1 0.4-0.3 0.5-0.4 1.2-0.9 2.3-1.7 3.5-2.6 0.1-0.1 0.2-0.1 0.3-0.2 7.7-5.8 15.2-11.9 22.5-18.2 2.3-2 4.6-4 6.8-6 0.1-0.1 0.2-0.1 0.2-0.2 6.9-6.2 13.5-12.5 20-19.1 2.2-2.2 4.3-4.4 6.4-6.7 6.4-6.7 12.5-13.7 18.5-20.8-0.1 0-0.2 0-0.3-0.1 0.1 0 0.2 0 0.3 0.1 14.9-17.8 28.4-36.8 40.3-56.8 2.8-4.7 5.6-9.5 8.3-14.4v-0.1c2.7-4.8 5.2-9.7 7.7-14.6 0 0 0-0.1 0.1-0.1 2.5-4.9 4.9-9.9 7.1-14.9 0 0 0-0.1 0.1-0.1 2.3-5.1 4.5-10.2 6.6-15.3 0.7-1.6 1.3-3.2 1.9-4.8 0-0.1 0-0.1 0.1-0.2 0.6-1.6 1.2-3.1 1.8-4.7 0-0.1 0.1-0.2 0.1-0.3 0.6-1.5 1.2-3 1.7-4.6 0.1-0.2 0.1-0.3 0.2-0.5 0.5-1.5 1.1-3 1.6-4.4 0.1-0.2 0.2-0.4 0.2-0.6 0.5-1.4 1-2.9 1.5-4.3 0.1-0.3 0.2-0.5 0.3-0.8 0.5-1.4 1-2.8 1.4-4.3l0.3-0.9c0.5-1.4 0.9-2.8 1.4-4.2 0.1-0.3 0.2-0.7 0.3-1 0.4-1.4 0.9-2.7 1.3-4.1 0.1-0.4 0.2-0.7 0.3-1.1 0.4-1.3 0.8-2.7 1.2-4l0.3-1.2c0.4-1.3 0.8-2.6 1.1-4 0.1-0.4 0.2-0.9 0.4-1.3 0.4-1.3 0.7-2.6 1.1-3.9 0.1-0.5 0.2-0.9 0.4-1.4 0.3-1.3 0.7-2.6 1-3.8 0.1-0.5 0.3-1 0.4-1.5 0.3-1.3 0.6-2.5 0.9-3.8 0.1-0.5 0.3-1.1 0.4-1.6 0.3-1.2 0.6-2.5 0.9-3.7 0.1-0.6 0.3-1.1 0.4-1.7 0.3-1.2 0.5-2.4 0.8-3.6 0.1-0.6 0.2-1.2 0.4-1.8 0.3-1.2 0.5-2.4 0.7-3.6 0.1-0.6 0.2-1.2 0.4-1.9 0.1-0.8 0.3-1.5 0.4-2.3 0.1-0.4 0.2-0.8 0.2-1.2 0.1-0.6 0.2-1.3 0.4-1.9 0.2-1.2 0.4-2.3 0.6-3.5 0.1-0.7 0.2-1.4 0.3-2 0.2-1.1 0.4-2.3 0.6-3.4l0.3-2.1c0.2-1.1 0.4-2.2 0.5-3.3 0.1-0.7 0.2-1.5 0.3-2.2 0.2-1.1 0.3-2.2 0.5-3.3 0.1-0.8 0.2-1.5 0.3-2.3 0.1-1.1 0.3-2.1 0.4-3.2l0.3-2.4c0.1-1 0.3-2.1 0.4-3.1 0.1-0.8 0.2-1.6 0.3-2.5 0.1-1 0.2-2.1 0.3-3.1 0.1-0.9 0.2-1.7 0.2-2.6l0.3-3c0.1-0.9 0.1-1.8 0.2-2.7 0.1-1 0.2-2 0.2-2.9 0.1-0.9 0.1-1.8 0.2-2.8 0.1-0.9 0.1-1.9 0.2-2.8 0.1-1 0.1-1.9 0.2-2.9 0.1-0.9 0.1-1.8 0.2-2.7 0.1-1 0.1-2 0.1-3 0-0.9 0.1-1.8 0.1-2.6v-0.9c0-0.8 0-1.5 0.1-2.3 0-0.8 0.1-1.6 0.1-2.5 0-1.3 0.1-2.5 0.1-3.8v-1.9-5.7c0-42.4-5.9-83.5-16.9-122.3-6.1-21.4-13.7-42.1-22.7-62.1-54.1-121.2-160.7-213.4-290.7-248.5-22.8-6.2-46.3-10.6-70.4-13.1-15.4-1.6-31-2.4-46.8-2.4h-8c-1.3 0-2.7 0-4 0.1-0.8 0-1.5 0-2.3 0.1-1.2 0-2.4 0.1-3.6 0.1-0.8 0-1.6 0.1-2.5 0.1-1.2 0.1-2.3 0.1-3.5 0.2-0.8 0-1.7 0.1-2.5 0.1-1.1 0.1-2.3 0.1-3.4 0.2-0.9 0.1-1.7 0.1-2.6 0.2-1.1 0.1-2.2 0.2-3.3 0.2-0.9 0.1-1.7 0.1-2.6 0.2l-3.3 0.3c-0.8 0.1-1.7 0.2-2.5 0.2l-3.3 0.3c-0.8 0.1-1.7 0.2-2.5 0.3-1.1 0.1-2.2 0.3-3.3 0.4-0.8 0.1-1.6 0.2-2.5 0.3-1.1 0.1-2.3 0.3-3.4 0.4l-2.4 0.3c-1.1 0.2-2.3 0.3-3.4 0.5-0.8 0.1-1.5 0.2-2.3 0.3-1.2 0.2-2.4 0.4-3.5 0.5-0.7 0.1-1.5 0.2-2.2 0.3-1.2 0.2-2.4 0.4-3.7 0.6-0.7 0.1-1.4 0.2-2 0.3-1.3 0.2-2.6 0.5-3.9 0.7l-1.8 0.3c-1.4 0.3-2.9 0.6-4.3 0.8-0.4 0.1-0.9 0.2-1.3 0.3-1.8 0.4-3.5 0.7-5.3 1.1-0.1 0-0.2 0-0.3 0.1-5.7 1.2-11.4 2.6-17 4.1-0.2 0.1-0.4 0.1-0.7 0.2-1.6 0.4-3.3 0.9-4.9 1.3-0.4 0.1-0.7 0.2-1.1 0.3-1.5 0.4-2.9 0.8-4.4 1.2-0.4 0.1-0.9 0.3-1.3 0.4l-4.2 1.2c-0.5 0.1-1 0.3-1.4 0.4-1.3 0.4-2.7 0.8-4 1.2-0.5 0.2-1 0.3-1.5 0.5-1.3 0.4-2.6 0.8-4 1.3-0.5 0.2-1 0.3-1.5 0.5-1.3 0.4-2.6 0.9-3.9 1.3-0.5 0.2-1 0.3-1.5 0.5-1.3 0.5-2.6 0.9-3.9 1.4-0.5 0.2-1 0.4-1.5 0.5-1.3 0.5-2.6 1-3.9 1.4-0.5 0.2-0.9 0.3-1.4 0.5-1.3 0.5-2.7 1-4 1.5-0.4 0.2-0.9 0.3-1.3 0.5-1.4 0.5-2.7 1.1-4.1 1.6-0.4 0.2-0.8 0.3-1.2 0.5-1.4 0.6-2.9 1.2-4.3 1.8-0.3 0.1-0.6 0.3-0.9 0.4-1.5 0.6-3.1 1.3-4.6 2l-0.6 0.3c-1.7 0.7-3.4 1.5-5.1 2.3l-7.2 3.3c-0.3 0.1-0.6 0.3-0.8 0.4-4.8 2.3-9.5 4.6-14.1 7-0.3 0.1-0.5 0.3-0.8 0.4-4.7 2.4-9.3 4.9-13.9 7.5-0.2 0.1-0.5 0.3-0.7 0.4-4.6 2.6-9.2 5.3-13.7 8.1-0.2 0.1-0.3 0.2-0.5 0.3-2.3 1.4-4.6 2.8-6.8 4.3-1.6 1-3.2 2.1-4.8 3.2-0.2 0.1-0.4 0.3-0.6 0.4-1.4 0.9-2.8 1.9-4.2 2.9-0.3 0.2-0.6 0.4-0.8 0.6-1.4 0.9-2.7 1.9-4 2.8l-0.9 0.6c-1.4 1-2.7 1.9-4 2.9-0.2 0.2-0.5 0.4-0.7 0.5-1.5 1.1-2.9 2.1-4.3 3.2-0.1 0.1-0.2 0.2-0.4 0.3-4.8 3.6-9.5 7.2-14.2 11h-0.1c-10 8.1-14.2 21.5-10.6 33.9v0.1c1.1 3.6 2.1 7.2 3.2 10.8 0.2 0.8 0.5 1.6 0.7 2.3 1.1 3.5 2.2 7 3.3 10.4 0.2 0.7 0.4 1.3 0.6 1.9 1 3.1 2 6.2 3.1 9.3 0.2 0.6 0.4 1.3 0.7 1.9 1.2 3.4 2.3 6.8 3.5 10.2 0.1 0.4 0.3 0.8 0.4 1.1 0.2 0.5 0.3 0.9 0.5 1.4 1.2 3.4 2.5 6.8 3.7 10.3 0 0.1 0.1 0.2 0.1 0.3 7.3 19.5 15.3 38.8 24 57.6 0 0.1 0.1 0.2 0.1 0.3l6.6 14.1c5.3 11 10.8 21.8 16.5 32.5 1.6 3 3.2 5.9 4.8 8.9l0.1 0.1c2 3.6 3.9 7.1 6 10.7 0 0.1 0.1 0.1 0.1 0.2 3.8 6.7 7.7 13.4 11.7 20 6.7 11 13.6 21.9 20.7 32.5 0.1 0.1 0.1 0.2 0.2 0.3 5.7 8.5 11.5 17 17.5 25.3s12.1 16.5 18.4 24.6c0.1 0.1 0.2 0.2 0.3 0.4 2.4 3.2 4.9 6.3 7.4 9.4 0 0.1 0.1 0.1 0.1 0.2 5.9 8 12 15.4 18.2 22.7m268.7-358.5c45.7 19.3 86.8 47 122.1 82.3s63 76.4 82.3 122.1c0 0.1 0.1 0.1 0.1 0.2-69 47.1-133.9 100.8-193 159.9-28.4 28.4-55.6 58.2-81.3 89-36.6-25.7-71.2-54.6-103.1-86.1 94.3-82.1 153.9-203.1 153.9-338 0-12.7-0.5-25.2-1.6-37.7 6.9 2.7 13.8 5.4 20.6 8.3z m-275 244.7c-1.5-2.2-3-4.4-4.4-6.6-7.3-11.1-14.4-22.4-21.2-33.8-2.7-4.6-5.4-9.2-8-13.8-7.5-13.3-14.7-26.8-21.4-40.5-6.8-13.7-13.1-27.6-19-41.6l-3.6-8.7-1.2-3c-0.8-1.9-1.6-3.9-2.3-5.8-0.5-1.2-0.9-2.4-1.4-3.6-0.7-1.7-1.4-3.5-2-5.2l-1.5-3.9c-0.6-1.7-1.2-3.3-1.9-5-0.5-1.3-1-2.7-1.5-4-0.6-1.6-1.2-3.3-1.8-4.9-0.5-1.4-1-2.7-1.4-4.1-0.6-1.7-1.1-3.3-1.7-5-0.5-1.3-0.9-2.7-1.4-4-0.6-1.9-1.2-3.7-1.8-5.6-0.4-1.1-0.7-2.3-1.1-3.4 17.8-12.9 36.7-24.1 56.5-33.8 6-2.9 12.1-5.7 18.3-8.3 47.3-20 97.6-30.2 149.5-30.2 21.1 0 42 1.7 62.5 5 2.6 18 3.9 36.3 3.9 54.7 0 51.9-10.1 102.2-30.2 149.5-19.3 45.7-47 86.8-82.3 122.1-6.9 6.9-13.9 13.4-21.2 19.7-21.1-24.3-40.6-49.8-58.4-76.2z m50.4 161.7c4 4.1 8.1 8.1 12.2 12.1l8.6 8.3 0.5 0.5 8.7 8.1c0.1 0 0.1 0.1 0.2 0.1 12 11 24.4 21.7 37.1 32.1 0.2 0.1 0.4 0.3 0.5 0.4 3 2.4 6 4.9 9 7.3 0.2 0.1 0.3 0.3 0.5 0.4 12.2 9.7 24.8 19.1 37.5 28.1-14.5 19.2-28.6 38.8-42 58.7-35.2 52.1-66.7 106.7-94.2 163.2-18-4.7-35.6-10.6-52.9-17.9-45.7-19.3-86.8-47-122.1-82.3s-63-76.4-82.3-122.1c-3.9-9.3-7.4-18.6-10.6-28.1 15.4 1.6 31 2.4 46.8 2.4 89.4-0.1 172.6-26.3 242.5-71.3M512 896c-10 0-20-0.4-29.9-1.1C517.5 825.2 559 759.1 606 697.5c3.2 1.9 6.4 3.9 9.7 5.7 0.3 0.1 0.5 0.3 0.8 0.4 3.3 1.9 6.7 3.9 10.1 5.8 0.2 0.1 0.3 0.2 0.5 0.3 7.1 4 14.3 8 21.6 11.8 7.3 3.8 14.6 7.6 22 11.2 0.2 0.1 0.5 0.2 0.7 0.3 2.9 1.4 5.9 2.9 8.9 4.3-25.1 43-43.3 90.5-53 141.1C590.1 890.1 551.5 896 512 896z m275.2-116.2c-1.2 1.2-2.4 2.5-3.6 3.7-16.5 16.5-34.2 31.3-53.1 44.4-9.4 6.5-19.1 12.6-29.1 18.3 3.5-10.9 7.5-21.8 12-32.4 7.5-17.7 16.2-34.6 26.1-50.9 0.2 0.1 0.5 0.2 0.7 0.3l11.1 4.2c0.1 0 0.2 0.1 0.3 0.1 4.4 1.6 8.8 3.2 13.3 4.8 7.3 2.6 14.8 5.1 22.3 7.5m43.6-53.6c-3.8-1.1-7.6-2.2-11.4-3.4-0.1 0-0.1 0-0.2-0.1-3.3-1-6.6-2-10-3.1-8-2.6-16.1-5.2-24-8.1-0.3-0.1-0.6-0.2-0.8-0.3-1.8-0.6-3.6-1.3-5.3-1.9 5.3-6 10.9-12 16.6-17.7 24.7-24.7 52.3-45.7 82.3-62.7-3.5 11-7.5 21.8-12 32.5-1 2.4-2.1 4.8-3.1 7.2-9.2 20.2-19.9 39.4-32.1 57.6m-113.9-42.3c-24-11.1-47.5-23.4-70.4-36.8 70.3-83.1 151-157 240.1-219.9 6.2 27.6 9.4 55.9 9.4 84.7 0 12.7-0.6 25.3-1.8 37.8-69.9 29.4-130.7 75.8-177.3 134.2z" fill="#FFD4D4" p-id="29902"></path><path d="M392.7 516.7c-15.6 9.4-31.9 17.8-48.9 24.9-47.3 20-97.6 30.2-149.5 30.2-21.1 0-42-1.7-62.5-5-2.6-18-3.9-36.3-3.9-54.7 0-51.9 10.1-102.2 30.2-149.5 6.7-15.9 14.5-31.3 23.2-46 4.9-8.2 5.6-18.2 2.1-27.1-0.1-0.2-0.2-0.5-0.3-0.7-9.6-24.8-43.3-27.6-56.9-4.8 0 0 0 0.1-0.1 0.1-1.1 1.9-2.3 3.9-3.4 5.8-0.2 0.4-0.4 0.7-0.6 1.1l-2.7 4.8c-0.3 0.5-0.5 0.9-0.8 1.4-1 1.8-1.9 3.6-2.9 5.4-0.1 0.2-0.2 0.3-0.2 0.5-1 2-2.1 4-3.1 6l-0.6 1.2c-0.8 1.6-1.6 3.2-2.4 4.9-0.2 0.5-0.5 1-0.7 1.5-0.9 1.8-1.7 3.6-2.6 5.4-0.1 0.2-0.2 0.4-0.3 0.5-0.9 2-1.9 4.1-2.8 6.1-0.2 0.4-0.4 0.8-0.6 1.3-0.7 1.6-1.4 3.3-2.2 4.9-0.2 0.5-0.5 1-0.7 1.6-0.8 1.8-1.6 3.7-2.3 5.5-0.1 0.2-0.2 0.4-0.2 0.6-0.8 2.1-1.7 4.2-2.5 6.2-0.2 0.4-0.3 0.9-0.5 1.3-0.6 1.7-1.3 3.3-1.9 5-0.2 0.6-0.4 1.1-0.6 1.7-0.7 1.9-1.4 3.7-2 5.6-0.1 0.2-0.2 0.4-0.2 0.7-0.7 2.1-1.5 4.2-2.2 6.4-0.2 0.5-0.3 1-0.5 1.5-0.6 1.7-1.1 3.3-1.6 5l-0.6 1.8c-0.6 1.9-1.2 3.8-1.7 5.6-0.1 0.3-0.2 0.5-0.2 0.8-0.6 2.1-1.3 4.3-1.9 6.5-0.1 0.5-0.3 1-0.4 1.5-0.5 1.7-0.9 3.4-1.4 5-0.2 0.6-0.3 1.2-0.5 1.8-0.5 1.9-1 3.8-1.4 5.7-0.1 0.3-0.1 0.6-0.2 0.8-0.5 2.2-1 4.4-1.5 6.5-0.1 0.5-0.2 1.1-0.4 1.6-0.4 1.7-0.7 3.4-1.1 5.1-0.1 0.6-0.3 1.3-0.4 1.9-0.4 1.9-0.8 3.8-1.2 5.8-0.1 0.3-0.1 0.6-0.2 0.9l-1.2 6.6c-0.1 0.6-0.2 1.1-0.3 1.7-0.3 1.7-0.6 3.4-0.8 5.1-0.1 0.7-0.2 1.3-0.3 2-0.3 1.9-0.6 3.9-0.9 5.8 0 0.3-0.1 0.6-0.1 0.9-0.3 2.2-0.6 4.5-0.9 6.7-0.1 0.6-0.1 1.2-0.2 1.8l-0.6 5.1c-0.1 0.7-0.1 1.4-0.2 2-0.2 1.9-0.4 3.9-0.6 5.9 0 0.3-0.1 0.6-0.1 1-0.2 2.3-0.4 4.5-0.6 6.8 0 0.6-0.1 1.2-0.1 1.9-0.1 1.7-0.2 3.4-0.3 5.2 0 0.7-0.1 1.4-0.1 2.1-0.1 2-0.2 3.9-0.3 5.9v1c-0.1 2.3-0.2 4.6-0.2 6.9v1.9c0 1.7-0.1 3.5-0.1 5.2v11c0 1.1 0 2.2 0.1 3.2 0 0.8 0 1.5 0.1 2.3 0 1.2 0.1 2.4 0.1 3.7 0 0.6 0 1.2 0.1 1.8 0.1 1.4 0.1 2.8 0.2 4.2 0 0.4 0 0.8 0.1 1.1 0.1 1.6 0.2 3.3 0.3 4.9v0.3l0.6 8.7c2 24.1 5.9 47.7 11.6 70.6 38.6 155.3 158.2 278.6 311.3 322.5 20.9 6 42.5 10.5 64.6 13.4 11.7 1.5 23.6 2.6 35.6 3.2 0.4 0 0.7 0 1.1 0.1 1.5 0.1 3 0.1 4.5 0.2 0.6 0 1.3 0 1.9 0.1 1.2 0 2.4 0.1 3.7 0.1 0.8 0 1.7 0 2.5 0.1 1.1 0 2.1 0 3.2 0.1H519.2c1.1 0 2.1 0 3.2-0.1 0.8 0 1.6 0 2.4-0.1 1.1 0 2.1-0.1 3.2-0.1 0.8 0 1.6-0.1 2.4-0.1 1.1 0 2.1-0.1 3.2-0.1 0.8 0 1.5-0.1 2.3-0.1 1.1-0.1 2.2-0.1 3.3-0.2 0.7 0 1.5-0.1 2.2-0.1 1.2-0.1 2.3-0.2 3.5-0.2 0.6 0 1.3-0.1 1.9-0.1 1.5-0.1 3.1-0.2 4.6-0.4 0.3 0 0.6 0 0.8-0.1 1.8-0.2 3.6-0.3 5.4-0.5 0.6-0.1 1.3-0.1 1.9-0.2 1.2-0.1 2.3-0.2 3.5-0.4 0.7-0.1 1.5-0.2 2.2-0.3 1-0.1 2.1-0.2 3.1-0.4l2.4-0.3c1-0.1 2-0.3 3-0.4 0.8-0.1 1.6-0.2 2.5-0.3 1-0.1 1.9-0.3 2.9-0.4 0.8-0.1 1.7-0.2 2.5-0.4 0.9-0.1 1.9-0.3 2.8-0.5 0.8-0.1 1.7-0.3 2.5-0.4 0.9-0.2 1.9-0.3 2.8-0.5 0.8-0.1 1.6-0.3 2.5-0.4 0.9-0.2 1.9-0.3 2.8-0.5 0.8-0.2 1.6-0.3 2.4-0.5 1-0.2 1.9-0.4 2.9-0.6 0.8-0.2 1.5-0.3 2.3-0.5 1.3-0.3 2.6-0.6 3.9-0.8 1.1-0.2 2.3-0.5 3.4-0.7 1-0.2 1.9-0.4 2.9-0.6 0.9-0.2 1.7-0.4 2.6-0.6 0.9-0.2 1.7-0.4 2.6-0.6 0.5-0.1 1-0.3 1.5-0.4 0.4-0.1 0.7-0.2 1.1-0.3 0.8-0.2 1.7-0.4 2.5-0.6 0.9-0.2 1.8-0.5 2.7-0.7l2.4-0.6c0.9-0.2 1.8-0.5 2.7-0.7 0.8-0.2 1.6-0.4 2.3-0.6 0.9-0.3 1.8-0.5 2.8-0.8 0.8-0.2 1.5-0.4 2.2-0.7 0.9-0.3 1.9-0.5 2.8-0.8 0.7-0.2 1.4-0.4 2.2-0.7 1-0.3 1.9-0.6 2.9-0.9 0.7-0.2 1.3-0.4 2-0.6 1-0.3 2-0.6 3-1 0.5-0.2 1-0.3 1.4-0.5 3.9-1.3 7.8-2.6 11.6-4 0.5-0.2 0.9-0.3 1.4-0.5 1.1-0.4 2.1-0.8 3.2-1.2 0.5-0.2 1.1-0.4 1.6-0.6 1-0.4 2.1-0.8 3.1-1.2 0.6-0.2 1.1-0.4 1.7-0.7 1-0.4 2-0.8 3.1-1.2 0.6-0.2 1.1-0.5 1.7-0.7 1-0.4 2.1-0.8 3.1-1.3 0.5-0.2 1.1-0.5 1.6-0.7 0.1-0.1 0.3-0.1 0.4-0.2 0.9-0.4 1.8-0.8 2.7-1.1 0.5-0.2 1-0.4 1.5-0.7 1.1-0.5 2.1-0.9 3.2-1.4 0.4-0.2 0.9-0.4 1.3-0.6 1.1-0.5 2.3-1 3.4-1.5 0.2-0.1 0.5-0.2 0.7-0.3 5.6-2.6 11.2-5.3 16.8-8.1 0.1-0.1 0.3-0.1 0.4-0.2 1.2-0.6 2.4-1.2 3.6-1.9 0.3-0.2 0.6-0.3 0.9-0.5 1.1-0.6 2.3-1.2 3.4-1.8 0.4-0.2 0.7-0.4 1.1-0.6l3.3-1.8c0.4-0.2 0.7-0.4 1.1-0.6 1.1-0.6 2.2-1.2 3.3-1.9 0.3-0.2 0.7-0.4 1-0.6 1.1-0.6 2.3-1.3 3.4-2 0.3-0.2 0.5-0.3 0.8-0.5l3.6-2.1c0.1-0.1 0.3-0.2 0.4-0.2 6.9-4.1 13.7-8.4 20.4-12.9 1.2-0.8 2.5-1.7 3.7-2.5 0.2-0.1 0.3-0.2 0.5-0.3 1.2-0.8 2.3-1.6 3.5-2.4 0.2-0.1 0.4-0.3 0.6-0.4 1.1-0.8 2.3-1.6 3.4-2.4 0.2-0.2 0.4-0.3 0.7-0.5 1.1-0.8 2.3-1.6 3.4-2.5 0.2-0.1 0.4-0.3 0.5-0.4 1.2-0.9 2.3-1.7 3.5-2.6 0.1-0.1 0.2-0.1 0.3-0.2 7.7-5.8 15.2-11.9 22.5-18.2 2.3-2 4.6-4 6.8-6 0.1-0.1 0.2-0.1 0.2-0.2 6.9-6.2 13.5-12.5 20-19.1 2.2-2.2 4.3-4.4 6.4-6.7 6.4-6.7 12.5-13.7 18.5-20.8-0.1 0-0.2 0-0.3-0.1 0.1 0 0.2 0 0.3 0.1 14.9-17.8 28.4-36.8 40.3-56.8 2.8-4.7 5.6-9.5 8.3-14.4v-0.1c2.7-4.8 5.2-9.7 7.7-14.6 0 0 0-0.1 0.1-0.1 2.5-4.9 4.9-9.9 7.1-14.9 0 0 0-0.1 0.1-0.1 2.3-5.1 4.5-10.2 6.6-15.3 0.7-1.6 1.3-3.2 1.9-4.8 0-0.1 0-0.1 0.1-0.2 0.6-1.6 1.2-3.1 1.8-4.7 0-0.1 0.1-0.2 0.1-0.3 0.6-1.5 1.2-3 1.7-4.6 0.1-0.2 0.1-0.3 0.2-0.5 0.5-1.5 1.1-3 1.6-4.4 0.1-0.2 0.2-0.4 0.2-0.6 0.5-1.4 1-2.9 1.5-4.3 0.1-0.3 0.2-0.5 0.3-0.8 0.5-1.4 1-2.8 1.4-4.3l0.3-0.9c0.5-1.4 0.9-2.8 1.4-4.2 0.1-0.3 0.2-0.7 0.3-1 0.4-1.4 0.9-2.7 1.3-4.1 0.1-0.4 0.2-0.7 0.3-1.1 0.4-1.3 0.8-2.7 1.2-4l0.3-1.2c0.4-1.3 0.8-2.6 1.1-4 0.1-0.4 0.2-0.9 0.4-1.3 0.4-1.3 0.7-2.6 1.1-3.9 0.1-0.5 0.2-0.9 0.4-1.4 0.3-1.3 0.7-2.6 1-3.8 0.1-0.5 0.3-1 0.4-1.5 0.3-1.3 0.6-2.5 0.9-3.8 0.1-0.5 0.3-1.1 0.4-1.6 0.3-1.2 0.6-2.5 0.9-3.7 0.1-0.6 0.3-1.1 0.4-1.7 0.3-1.2 0.5-2.4 0.8-3.6 0.1-0.6 0.2-1.2 0.4-1.8 0.3-1.2 0.5-2.4 0.7-3.6 0.1-0.6 0.2-1.2 0.4-1.9 0.1-0.8 0.3-1.5 0.4-2.3 0.1-0.4 0.2-0.8 0.2-1.2 0.1-0.6 0.2-1.3 0.4-1.9 0.2-1.2 0.4-2.3 0.6-3.5 0.1-0.7 0.2-1.4 0.3-2 0.2-1.1 0.4-2.3 0.6-3.4l0.3-2.1c0.2-1.1 0.4-2.2 0.5-3.3 0.1-0.7 0.2-1.5 0.3-2.2 0.2-1.1 0.3-2.2 0.5-3.3 0.1-0.8 0.2-1.5 0.3-2.3 0.1-1.1 0.3-2.1 0.4-3.2l0.3-2.4c0.1-1 0.3-2.1 0.4-3.1 0.1-0.8 0.2-1.6 0.3-2.5 0.1-1 0.2-2.1 0.3-3.1 0.1-0.9 0.2-1.7 0.2-2.6l0.3-3c0.1-0.9 0.1-1.8 0.2-2.7 0.1-1 0.2-2 0.2-2.9 0.1-0.9 0.1-1.8 0.2-2.8 0.1-0.9 0.1-1.9 0.2-2.8 0.1-1 0.1-1.9 0.2-2.9 0.1-0.9 0.1-1.8 0.2-2.7 0.1-1 0.1-2 0.1-3 0-0.9 0.1-1.8 0.1-2.6v-0.9c0-0.8 0-1.5 0.1-2.3 0-0.8 0.1-1.6 0.1-2.5 0-1.3 0.1-2.5 0.1-3.8v-1.9-5.7c0-42.4-5.9-83.5-16.9-122.3-6.1-21.4-13.7-42.1-22.7-62.1-54.1-121.2-160.7-213.4-290.7-248.5-22.8-6.2-46.3-10.6-70.4-13.1-15.4-1.6-31-2.4-46.8-2.4h-8c-1.3 0-2.7 0-4 0.1-0.8 0-1.5 0-2.3 0.1-1.2 0-2.4 0.1-3.6 0.1-0.8 0-1.6 0.1-2.5 0.1-1.2 0.1-2.3 0.1-3.5 0.2-0.8 0-1.7 0.1-2.5 0.1-1.1 0.1-2.3 0.1-3.4 0.2-0.9 0.1-1.7 0.1-2.6 0.2-1.1 0.1-2.2 0.2-3.3 0.2-0.9 0.1-1.7 0.1-2.6 0.2l-3.3 0.3c-0.8 0.1-1.7 0.2-2.5 0.2l-3.3 0.3c-0.8 0.1-1.7 0.2-2.5 0.3-1.1 0.1-2.2 0.3-3.3 0.4-0.8 0.1-1.6 0.2-2.5 0.3-1.1 0.1-2.3 0.3-3.4 0.4l-2.4 0.3c-1.1 0.2-2.3 0.3-3.4 0.5-0.8 0.1-1.5 0.2-2.3 0.3-1.2 0.2-2.4 0.4-3.5 0.5-0.7 0.1-1.5 0.2-2.2 0.3-1.2 0.2-2.4 0.4-3.7 0.6-0.7 0.1-1.4 0.2-2 0.3-1.3 0.2-2.6 0.5-3.9 0.7l-1.8 0.3c-1.4 0.3-2.9 0.6-4.3 0.8-0.4 0.1-0.9 0.2-1.3 0.3-1.8 0.4-3.5 0.7-5.3 1.1-0.1 0-0.2 0-0.3 0.1-5.7 1.2-11.4 2.6-17 4.1-0.2 0.1-0.4 0.1-0.7 0.2-1.6 0.4-3.3 0.9-4.9 1.3-0.4 0.1-0.7 0.2-1.1 0.3-1.5 0.4-2.9 0.8-4.4 1.2-0.4 0.1-0.9 0.3-1.3 0.4l-4.2 1.2c-0.5 0.1-1 0.3-1.4 0.4-1.3 0.4-2.7 0.8-4 1.2-0.5 0.2-1 0.3-1.5 0.5-1.3 0.4-2.6 0.8-4 1.3-0.5 0.2-1 0.3-1.5 0.5-1.3 0.4-2.6 0.9-3.9 1.3-0.5 0.2-1 0.3-1.5 0.5-1.3 0.5-2.6 0.9-3.9 1.4-0.5 0.2-1 0.4-1.5 0.5-1.3 0.5-2.6 1-3.9 1.4-0.5 0.2-0.9 0.3-1.4 0.5-1.3 0.5-2.7 1-4 1.5-0.4 0.2-0.9 0.3-1.3 0.5-1.4 0.5-2.7 1.1-4.1 1.6-0.4 0.2-0.8 0.3-1.2 0.5-1.4 0.6-2.9 1.2-4.3 1.8-0.3 0.1-0.6 0.3-0.9 0.4-1.5 0.6-3.1 1.3-4.6 2l-0.6 0.3c-1.7 0.7-3.4 1.5-5.1 2.3l-7.2 3.3c-0.3 0.1-0.6 0.3-0.8 0.4-4.8 2.3-9.5 4.6-14.1 7-0.3 0.1-0.5 0.3-0.8 0.4-4.7 2.4-9.3 4.9-13.9 7.5-0.2 0.1-0.5 0.3-0.7 0.4-4.6 2.6-9.2 5.3-13.7 8.1-0.2 0.1-0.3 0.2-0.5 0.3-2.3 1.4-4.6 2.8-6.8 4.3-1.6 1-3.2 2.1-4.8 3.2-0.2 0.1-0.4 0.3-0.6 0.4-1.4 0.9-2.8 1.9-4.2 2.9-0.3 0.2-0.6 0.4-0.8 0.6-1.4 0.9-2.7 1.9-4 2.8l-0.9 0.6c-1.4 1-2.7 1.9-4 2.9-0.2 0.2-0.5 0.4-0.7 0.5-1.5 1.1-2.9 2.1-4.3 3.2-0.1 0.1-0.2 0.2-0.4 0.3-4.8 3.6-9.5 7.2-14.2 11h-0.1c-10 8.1-14.2 21.5-10.6 33.9v0.1c1.1 3.6 2.1 7.2 3.2 10.8 0.2 0.8 0.5 1.6 0.7 2.3 1.1 3.5 2.2 7 3.3 10.4 0.2 0.7 0.4 1.3 0.6 1.9 1 3.1 2 6.2 3.1 9.3 0.2 0.6 0.4 1.3 0.7 1.9 1.2 3.4 2.3 6.8 3.5 10.2 0.1 0.4 0.3 0.8 0.4 1.1 0.2 0.5 0.3 0.9 0.5 1.4 1.2 3.4 2.5 6.8 3.7 10.3 0 0.1 0.1 0.2 0.1 0.3 7.3 19.5 15.3 38.8 24 57.6 0 0.1 0.1 0.2 0.1 0.3l6.6 14.1c5.3 11 10.8 21.8 16.5 32.5 1.6 3 3.2 5.9 4.8 8.9l0.1 0.1c2 3.6 3.9 7.1 6 10.7 0 0.1 0.1 0.1 0.1 0.2 3.8 6.7 7.7 13.4 11.7 20 6.7 11 13.6 21.9 20.7 32.5 0.1 0.1 0.1 0.2 0.2 0.3 5.7 8.5 11.5 17 17.5 25.3s12.1 16.5 18.4 24.6c0.1 0.1 0.2 0.2 0.3 0.4 2.4 3.2 4.9 6.3 7.4 9.4 0 0.1 0.1 0.1 0.1 0.2 5.9 8 12 15.4 18.2 22.7m268.7-358.5c45.7 19.3 86.8 47 122.1 82.3s63 76.4 82.3 122.1c0 0.1 0.1 0.1 0.1 0.2-69 47.1-133.9 100.8-193 159.9-28.4 28.4-55.6 58.2-81.3 89-36.6-25.7-71.2-54.6-103.1-86.1 94.3-82.1 153.9-203.1 153.9-338 0-12.7-0.5-25.2-1.6-37.7 6.9 2.7 13.8 5.4 20.6 8.3z m-275 244.7c-1.5-2.2-3-4.4-4.4-6.6-7.3-11.1-14.4-22.4-21.2-33.8-2.7-4.6-5.4-9.2-8-13.8-7.5-13.3-14.7-26.8-21.4-40.5-6.8-13.7-13.1-27.6-19-41.6l-3.6-8.7-1.2-3c-0.8-1.9-1.6-3.9-2.3-5.8-0.5-1.2-0.9-2.4-1.4-3.6-0.7-1.7-1.4-3.5-2-5.2l-1.5-3.9c-0.6-1.7-1.2-3.3-1.9-5-0.5-1.3-1-2.7-1.5-4-0.6-1.6-1.2-3.3-1.8-4.9-0.5-1.4-1-2.7-1.4-4.1-0.6-1.7-1.1-3.3-1.7-5-0.5-1.3-0.9-2.7-1.4-4-0.6-1.9-1.2-3.7-1.8-5.6-0.4-1.1-0.7-2.3-1.1-3.4 17.8-12.9 36.7-24.1 56.5-33.8 6-2.9 12.1-5.7 18.3-8.3 47.3-20 97.6-30.2 149.5-30.2 21.1 0 42 1.7 62.5 5 2.6 18 3.9 36.3 3.9 54.7 0 51.9-10.1 102.2-30.2 149.5-19.3 45.7-47 86.8-82.3 122.1-6.9 6.9-13.9 13.4-21.2 19.7-21.1-24.3-40.6-49.8-58.4-76.2z m50.4 161.7c4 4.1 8.1 8.1 12.2 12.1l8.6 8.3 0.5 0.5 8.7 8.1c0.1 0 0.1 0.1 0.2 0.1 12 11 24.4 21.7 37.1 32.1 0.2 0.1 0.4 0.3 0.5 0.4 3 2.4 6 4.9 9 7.3 0.2 0.1 0.3 0.3 0.5 0.4 12.2 9.7 24.8 19.1 37.5 28.1-14.5 19.2-28.6 38.8-42 58.7-35.2 52.1-66.7 106.7-94.2 163.2-18-4.7-35.6-10.6-52.9-17.9-45.7-19.3-86.8-47-122.1-82.3s-63-76.4-82.3-122.1c-3.9-9.3-7.4-18.6-10.6-28.1 15.4 1.6 31 2.4 46.8 2.4 89.4-0.1 172.6-26.3 242.5-71.3M512 896c-10 0-20-0.4-29.9-1.1C517.5 825.2 559 759.1 606 697.5c3.2 1.9 6.4 3.9 9.7 5.7 0.3 0.1 0.5 0.3 0.8 0.4 3.3 1.9 6.7 3.9 10.1 5.8 0.2 0.1 0.3 0.2 0.5 0.3 7.1 4 14.3 8 21.6 11.8 7.3 3.8 14.6 7.6 22 11.2 0.2 0.1 0.5 0.2 0.7 0.3 2.9 1.4 5.9 2.9 8.9 4.3-25.1 43-43.3 90.5-53 141.1C590.1 890.1 551.5 896 512 896z m275.2-116.2c-1.2 1.2-2.4 2.5-3.6 3.7-16.5 16.5-34.2 31.3-53.1 44.4-9.4 6.5-19.1 12.6-29.1 18.3 3.5-10.9 7.5-21.8 12-32.4 7.5-17.7 16.2-34.6 26.1-50.9 0.2 0.1 0.5 0.2 0.7 0.3l11.1 4.2c0.1 0 0.2 0.1 0.3 0.1 4.4 1.6 8.8 3.2 13.3 4.8 7.3 2.6 14.8 5.1 22.3 7.5m43.6-53.6c-3.8-1.1-7.6-2.2-11.4-3.4-0.1 0-0.1 0-0.2-0.1-3.3-1-6.6-2-10-3.1-8-2.6-16.1-5.2-24-8.1-0.3-0.1-0.6-0.2-0.8-0.3-1.8-0.6-3.6-1.3-5.3-1.9 5.3-6 10.9-12 16.6-17.7 24.7-24.7 52.3-45.7 82.3-62.7-3.5 11-7.5 21.8-12 32.5-1 2.4-2.1 4.8-3.1 7.2-9.2 20.2-19.9 39.4-32.1 57.6m-113.9-42.3c-24-11.1-47.5-23.4-70.4-36.8 70.3-83.1 151-157 240.1-219.9 6.2 27.6 9.4 55.9 9.4 84.7 0 12.7-0.6 25.3-1.8 37.8-69.9 29.4-130.7 75.8-177.3 134.2z" fill="#FF7550" p-id="29903"></path></svg>