<?xml version="1.0" standalone="no"?><!DOCTYPE svg PUBLIC "-//W3C//DTD SVG 1.1//EN" "http://www.w3.org/Graphics/SVG/1.1/DTD/svg11.dtd"><svg t="1596468961264" class="icon" viewBox="0 0 1024 1024" version="1.1" xmlns="http://www.w3.org/2000/svg" p-id="3079" xmlns:xlink="http://www.w3.org/1999/xlink" width="200" height="200"><defs><style type="text/css"></style></defs><path d="M771.2 822.4H160c-70.4 0-128-57.6-128-128V256c0-70.4 57.6-128 128-128h611.2c70.4 0 128 57.6 128 128v438.4c0 70.4-57.6 128-128 128z" fill="#E1E1DF" p-id="3080"></path><path d="M864 896H252.8c-70.4 0-128-57.6-128-128V329.6c0-70.4 57.6-128 128-128H864c70.4 0 128 57.6 128 128V768c0 70.4-57.6 128-128 128z" fill="#4E8DF6" p-id="3081"></path><path d="M249.6 576h88v241.6h-88zM380.8 494.4h88V816h-88zM512 435.2h88v382.4H512zM643.2 374.4h88v443.2h-88zM776 294.4H864v523.2h-88z" fill="#FFFFFF" p-id="3082"></path><path d="M876.8 828.8H244.8c-14.4 0-25.6-11.2-25.6-25.6v-6.4c0-14.4 11.2-25.6 25.6-25.6h632c14.4 0 25.6 11.2 25.6 25.6v6.4c-1.6 14.4-12.8 25.6-25.6 25.6z" fill="#2166CC" p-id="3083"></path></svg>