<?xml version="1.0" standalone="no"?><!DOCTYPE svg PUBLIC "-//W3C//DTD SVG 1.1//EN" "http://www.w3.org/Graphics/SVG/1.1/DTD/svg11.dtd"><svg t="1597146109084" class="icon" viewBox="0 0 1024 1024" version="1.1" xmlns="http://www.w3.org/2000/svg" p-id="14341" xmlns:xlink="http://www.w3.org/1999/xlink" width="200" height="200"><defs><style type="text/css"></style></defs><path d="M586.666667 580.266667c-6.4 0-11.733333 5.333333-11.733334 11.733333s5.333333 11.733333 11.733334 11.733333 11.733333-5.333333 11.733333-11.733333-5.333333-11.733333-11.733333-11.733333z m90.666666 0c-6.4 0-11.733333 5.333333-11.733333 11.733333s5.333333 11.733333 11.733333 11.733333c6.4 0 11.733333-5.333333 11.733334-11.733333s-4.266667-11.733333-11.733334-11.733333z m0 0c-6.4 0-11.733333 5.333333-11.733333 11.733333s5.333333 11.733333 11.733333 11.733333c6.4 0 11.733333-5.333333 11.733334-11.733333s-4.266667-11.733333-11.733334-11.733333z m-90.666666 0c-6.4 0-11.733333 5.333333-11.733334 11.733333s5.333333 11.733333 11.733334 11.733333 11.733333-5.333333 11.733333-11.733333-5.333333-11.733333-11.733333-11.733333z m0 0c-6.4 0-11.733333 5.333333-11.733334 11.733333s5.333333 11.733333 11.733334 11.733333 11.733333-5.333333 11.733333-11.733333-5.333333-11.733333-11.733333-11.733333z m90.666666 0c-6.4 0-11.733333 5.333333-11.733333 11.733333s5.333333 11.733333 11.733333 11.733333c6.4 0 11.733333-5.333333 11.733334-11.733333s-4.266667-11.733333-11.733334-11.733333z m0 0c-6.4 0-11.733333 5.333333-11.733333 11.733333s5.333333 11.733333 11.733333 11.733333c6.4 0 11.733333-5.333333 11.733334-11.733333s-4.266667-11.733333-11.733334-11.733333z m-90.666666 0c-6.4 0-11.733333 5.333333-11.733334 11.733333s5.333333 11.733333 11.733334 11.733333 11.733333-5.333333 11.733333-11.733333-5.333333-11.733333-11.733333-11.733333z m231.466666-250.666667c-80 26.666667-171.733333 14.933333-232.533333 1.066667-42.666667-9.6-71.466667-21.333333-71.466667-21.333334-38.4-24.533333-82.133333-38.4-128-45.866666-41.6-6.4-83.2-7.466667-122.666666-4.266667-14.933333 1.066667-28.8 2.133333-42.666667 4.266667v540.8h640V310.4c-12.8 8.533333-27.733333 13.866667-42.666667 19.2zM582.4 648.533333h24.533333v21.333334h-24.533333v-21.333334z m83.2 0h24.533333v21.333334h-24.533333v-21.333334z m56.533333-21.333333H539.733333v-59.733333h182.4v59.733333z m-152.533333-81.066667l21.333333-45.866666h80l21.333334 45.866666H569.6z m107.733333 58.666667c6.4 0 11.733333-5.333333 11.733334-11.733333s-5.333333-11.733333-11.733334-11.733334c-6.4 0-11.733333 5.333333-11.733333 11.733334s5.333333 11.733333 11.733333 11.733333z m-90.666666 0c6.4 0 11.733333-5.333333 11.733333-11.733333s-5.333333-11.733333-11.733333-11.733334-11.733333 5.333333-11.733334 11.733334 4.266667 11.733333 11.733334 11.733333z m0-24.533333c-6.4 0-11.733333 5.333333-11.733334 11.733333s5.333333 11.733333 11.733334 11.733333 11.733333-5.333333 11.733333-11.733333-5.333333-11.733333-11.733333-11.733333z m90.666666 0c-6.4 0-11.733333 5.333333-11.733333 11.733333s5.333333 11.733333 11.733333 11.733333c6.4 0 11.733333-5.333333 11.733334-11.733333s-4.266667-11.733333-11.733334-11.733333z m0 0c-6.4 0-11.733333 5.333333-11.733333 11.733333s5.333333 11.733333 11.733333 11.733333c6.4 0 11.733333-5.333333 11.733334-11.733333s-4.266667-11.733333-11.733334-11.733333z m-90.666666 0c-6.4 0-11.733333 5.333333-11.733334 11.733333s5.333333 11.733333 11.733334 11.733333 11.733333-5.333333 11.733333-11.733333-5.333333-11.733333-11.733333-11.733333z" fill="#0DE28B" p-id="14342"></path><path d="M220.8 164.266667v640h640v-640h-640z m597.333333 597.333333h-554.666666v-554.666667h554.666666v554.666667z" fill="#044236" p-id="14343"></path><path d="M818.133333 206.933333v122.666667c-80 26.666667-171.733333 14.933333-232.533333 1.066667-18.133333-39.466667-57.6-67.2-104.533333-67.2h-94.933334c-41.6-6.4-83.2-7.466667-122.666666-4.266667v-52.266667h554.666666zM582.4 648.533333h24.533333v21.333334h-24.533333zM665.6 648.533333h24.533333v21.333334h-24.533333z" fill="#FFFFFF" p-id="14344"></path><path d="M356.266667 441.6h42.666666v234.666667h-42.666666z" fill="#044236" p-id="14345"></path><path d="M585.6 330.666667c-18.133333-39.466667-57.6-67.2-104.533333-67.2H356.266667v229.333333h124.8c30.933333 0 59.733333-11.733333 81.066666-34.133333 21.333333-21.333333 34.133333-51.2 34.133334-81.066667 0-16-4.266667-33.066667-10.666667-46.933333z m-53.333333 99.2c-13.866667 13.866667-32 21.333333-51.2 21.333333h-82.133334V306.133333h82.133334c39.466667 0 72.533333 32 72.533333 72.533334 0 19.2-7.466667 37.333333-21.333333 51.2z" fill="#044236" p-id="14346"></path><path d="M706.133333 637.866667v49.066666h-56.533333v-49.066666h16v33.066666h24.533333v-33.066666zM715.733333 546.133333l-30.933333-67.2H577.066667l-30.933334 67.2-9.6 21.333334H725.333333l-9.6-21.333334z m-146.133333 0l21.333333-45.866666h80l21.333334 45.866666H569.6z" fill="#044236" p-id="14347"></path><path d="M692.266667 546.133333H569.6l21.333333-45.866666h80z" fill="#FFFFFF" p-id="14348"></path><path d="M518.4 546.133333v102.4h225.066667v-102.4H518.4z m203.733333 81.066667H539.733333v-59.733333h182.4v59.733333z" fill="#044236" p-id="14349"></path><path d="M539.733333 567.466667v59.733333h182.4v-59.733333H539.733333z m46.933334 37.333333c-6.4 0-11.733333-5.333333-11.733334-11.733333s5.333333-11.733333 11.733334-11.733334 11.733333 5.333333 11.733333 11.733334-5.333333 11.733333-11.733333 11.733333z m90.666666 0c-6.4 0-11.733333-5.333333-11.733333-11.733333s5.333333-11.733333 11.733333-11.733334c6.4 0 11.733333 5.333333 11.733334 11.733334s-4.266667 11.733333-11.733334 11.733333z" fill="#FFFFFF" p-id="14350"></path><path d="M598.4 592c0 6.4-5.333333 11.733333-11.733333 11.733333s-11.733333-5.333333-11.733334-11.733333 5.333333-11.733333 11.733334-11.733333 11.733333 5.333333 11.733333 11.733333z" fill="#044236" p-id="14351"></path><path d="M690.133333 592c0 6.4-5.333333 11.733333-11.733333 11.733333-6.4 0-11.733333-5.333333-11.733333-11.733333s5.333333-11.733333 11.733333-11.733333c6.4 0 11.733333 5.333333 11.733333 11.733333z" fill="#044236" p-id="14352"></path><path d="M622.933333 637.866667v49.066666h-56.533333v-49.066666h16v33.066666h24.533333v-33.066666z" fill="#044236" p-id="14353"></path></svg>