<?xml version="1.0" standalone="no"?><!DOCTYPE svg PUBLIC "-//W3C//DTD SVG 1.1//EN" "http://www.w3.org/Graphics/SVG/1.1/DTD/svg11.dtd"><svg t="1597145956934" class="icon" viewBox="0 0 1024 1024" version="1.1" xmlns="http://www.w3.org/2000/svg" p-id="11766" xmlns:xlink="http://www.w3.org/1999/xlink" width="200" height="200"><defs><style type="text/css"></style></defs><path d="M517.93 692.85c92.01 0 114.38 81.9 119.27 134.55 56.88-14.07 117.41-38.06 180.9-75.34l5.18-165.8s-14.16-161.88-206.4-161.88H459.82c-20.24 0-37.45-14.76-40.54-34.76L395.49 235.6s-0.46-16.32-9.87-35.13l24.43-27.2s25.47-26.08-6.08-53.4-53.38 6.1-53.38 6.1L327.21 152c-3.93-1.28-8.05-2.44-12.44-3.42l0.62-0.02-0.01-40.93s1.52-36.42-40.21-35.66c-41.73 0.76-35.63 40.21-35.63 40.21v35.17C175.5 158.91 113.03 254.4 113.03 254.4s-76.89 87.01-38.45 135.58c28.8 36.38 57.61 39.83 94.07 29.91 20.24-5.51 40.1 10.37 40.65 31.34l7.98 308.26c44.68 27.9 108.24 58.94 186.85 74.41 1.44-52.1 17.9-141.05 113.8-141.05z m-12.68-26.43c-7.04 0.46-13.89 1.33-20.35 2.6-0.33 0.06-0.68 0.09-1.01 0.09a5.286 5.286 0 0 1-1.01-10.47c6.89-1.34 14.2-2.27 21.67-2.77 3.34-0.13 5.45 2.03 5.61 4.93 0.2 2.92-2 5.43-4.91 5.62z m41.91 1.91c-0.27 0-0.56-0.02-0.85-0.07-6.56-1.06-13.44-1.75-20.45-2.04a5.292 5.292 0 0 1-5.06-5.5 5.286 5.286 0 0 1 5.28-5.07h0.23c7.43 0.32 14.74 1.05 21.69 2.19 2.89 0.46 4.83 3.18 4.38 6.06a5.288 5.288 0 0 1-5.22 4.43z m45 9.8a5.287 5.287 0 0 1-4.73 2.92c-0.81 0-1.61-0.18-2.35-0.56-5.94-2.97-12.3-5.52-18.86-7.57-2.79-0.88-4.35-3.84-3.47-6.63 0.87-2.79 3.86-4.35 6.6-3.47 7.12 2.23 13.99 4.99 20.43 8.21 2.62 1.33 3.68 4.49 2.38 7.1z m32.77 26.62a5.273 5.273 0 0 1-3.63 1.44c-1.4 0-2.79-0.56-3.84-1.65a118.39 118.39 0 0 0-15.15-13.45c-2.33-1.74-2.83-5.06-1.07-7.4 1.73-2.33 5.06-2.81 7.39-1.08 5.88 4.38 11.43 9.31 16.51 14.66 2 2.12 1.92 5.47-0.21 7.48z m43.03 92.15c0.76 6.87 0.8 10.97 0.8 10.97a5.292 5.292 0 0 1-5.22 5.33h-0.06a5.28 5.28 0 0 1-5.28-5.21c0-0.14-0.06-3.83-0.72-9.93a5.26 5.26 0 0 1 4.66-5.83c2.83-0.3 5.51 1.77 5.82 4.67z m-9.66-43.23c2.35 6.83 4.33 13.9 5.92 21a5.271 5.271 0 0 1-4 6.3c-0.39 0.08-0.78 0.12-1.16 0.12-2.44 0-4.6-1.67-5.16-4.14-1.49-6.72-3.38-13.39-5.59-19.87-0.95-2.75 0.52-5.76 3.28-6.71 2.69-0.93 5.79 0.52 6.71 3.3z m-8.31-20.23c1.28 2.61 0.21 5.78-2.42 7.07-0.74 0.37-1.55 0.55-2.33 0.55a5.31 5.31 0 0 1-4.75-2.95c-3.12-6.32-6.56-12.28-10.26-17.7a5.286 5.286 0 0 1 1.38-7.35c2.39-1.62 5.7-1.02 7.33 1.38 3.99 5.84 7.7 12.23 11.05 19zM443.55 520.26v-69.98c0-13.53 10.97-24.5 24.5-24.5H615.1c12.61 0 22.84 10.22 22.84 22.84v71.65c0.1 1.82 0 3.55 0 5.4 0 63.35-60.6 112.54-126.99 92.76-41.71-12.43-68.52-53.8-67.42-97.31 0-0.29 0.01-0.57 0.02-0.86z m-1.95 153.25c6.3-3.53 13.04-6.59 20.08-9.1 2.68-0.98 5.78 0.44 6.75 3.2 0.99 2.74-0.45 5.77-3.2 6.75a121.69 121.69 0 0 0-18.47 8.38c-0.81 0.45-1.69 0.67-2.58 0.67a5.289 5.289 0 0 1-2.58-9.9zM238.59 285.12c-13.94 0-25.25-11.3-25.25-25.25 0-13.94 11.3-25.25 25.25-25.25 13.94 0 25.25 11.3 25.25 25.25s-11.3 25.25-25.25 25.25z m14.91-149.14v-24.14s-3.85-24.86 22.45-25.34c26.3-0.48 25.34 22.47 25.34 22.47v25.79l-47.79 1.22zM407.54 701.4c4.87-5.61 10.2-10.8 15.81-15.44a5.288 5.288 0 0 1 7.45 0.73c1.86 2.25 1.53 5.58-0.72 7.44-5.18 4.25-10.07 9.02-14.53 14.18a5.28 5.28 0 0 1-4 1.83c-1.22 0-2.46-0.42-3.47-1.29-2.19-1.9-2.44-5.24-0.54-7.45z m-47.13-564.94s13.33-21.34 33.55-4.52 4.51 33.57 4.51 33.57l-16.84 19.53-36.98-30.3 15.76-18.28z m17.26 676.06a5.277 5.277 0 0 1-5.28 5.23h-0.04a5.273 5.273 0 0 1-5.24-5.31s0.03-4.08 0.69-10.93c0.29-2.9 2.89-4.9 5.78-4.75a5.3 5.3 0 0 1 4.75 5.78c-0.62 6.16-0.66 9.86-0.66 9.98z m8.88-50.4c-2.01 6.42-3.75 13.16-5.15 20.02a5.285 5.285 0 0 1-5.17 4.23c-0.35 0-0.71-0.03-1.06-0.1a5.284 5.284 0 0 1-4.13-6.23c1.48-7.22 3.3-14.32 5.44-21.09 0.87-2.77 3.83-4.31 6.63-3.45 2.77 0.87 4.32 3.84 3.44 6.62z m7.31-19.26a5.286 5.286 0 0 1-4.82 3.12c-0.72 0-1.47-0.14-2.17-0.46a5.284 5.284 0 0 1-2.65-6.99c3.05-6.79 6.51-13.3 10.27-19.35 1.54-2.49 4.8-3.23 7.28-1.7a5.275 5.275 0 0 1 1.69 7.28c-3.51 5.64-6.73 11.73-9.6 18.1z" fill="#94CFC1" p-id="11767"></path><path d="M954.31 718.84c-11.85-25.12-37.78-33.45-57.88-18.63-26.56 19.59-52.68 36.8-78.32 51.86-63.5 37.28-124.02 61.27-180.9 75.34-87.08 21.54-165.61 19.77-233.07 6.49-78.6-15.47-142.17-46.51-186.85-74.41-43.84-27.38-69.5-51.72-73.18-55.31-18.35-18.04-44.87-14.1-59.32 8.78-14.47 22.89-11.34 56.11 6.99 74.19 3.79 3.74 94.63 92.17 244.79 136.55 47.72 14.11 104.85 24.54 169.5 24.54 122.05 0 270.84-37.2 433.34-157.07 20.09-14.83 26.77-47.21 14.9-72.33z" fill="#00AB95" p-id="11768"></path><path d="M238.59 259.87m-25.25 0a25.25 25.25 0 1 0 50.5 0 25.25 25.25 0 1 0-50.5 0Z" fill="#00AB95" p-id="11769"></path><path d="M510.94 618.42c66.39 19.78 126.99-29.41 126.99-92.76 0-1.85 0.1-3.58 0-5.4v-71.65c0-12.61-10.22-22.84-22.84-22.84H468.05c-13.53 0-24.5 10.97-24.5 24.5v69.98c-0.02 0.29-0.03 0.57-0.03 0.85-1.1 43.53 25.7 84.9 67.42 97.32zM275.95 86.5c-26.3 0.48-22.45 25.34-22.45 25.34v24.14l47.8-1.21v-25.79c0-0.01 0.95-22.96-25.35-22.48zM398.47 165.5s15.72-16.75-4.51-33.57c-20.22-16.82-33.55 4.52-33.55 4.52l-15.77 18.28 36.98 30.3 16.85-19.53z" fill="#00AB95" p-id="11770"></path><path d="M373.57 796.77c-2.89-0.15-5.49 1.85-5.78 4.75-0.66 6.85-0.69 10.93-0.69 10.93a5.273 5.273 0 0 0 5.24 5.31h0.04c2.9 0 5.25-2.33 5.28-5.23 0-0.12 0.04-3.83 0.65-9.98a5.286 5.286 0 0 0-4.74-5.78zM589.78 671.05a136.99 136.99 0 0 0-20.43-8.21c-2.74-0.89-5.74 0.68-6.6 3.47-0.89 2.79 0.68 5.75 3.47 6.63 6.56 2.05 12.92 4.6 18.86 7.57 0.74 0.38 1.55 0.56 2.35 0.56 1.94 0 3.8-1.07 4.73-2.92 1.3-2.63 0.24-5.79-2.38-7.1zM548.01 657.84c-6.96-1.14-14.26-1.87-21.69-2.19h-0.23c-2.83 0-5.16 2.22-5.28 5.07a5.292 5.292 0 0 0 5.06 5.5c7.02 0.29 13.89 0.98 20.45 2.04a5.288 5.288 0 0 0 6.07-4.37c0.45-2.88-1.49-5.59-4.38-6.05zM401.76 717.47c-2.48-1.53-5.74-0.78-7.28 1.7-3.76 6.05-7.21 12.56-10.27 19.35a5.287 5.287 0 0 0 2.65 6.99c0.7 0.32 1.44 0.46 2.17 0.46 2.01 0 3.94-1.16 4.82-3.12 2.87-6.37 6.09-12.46 9.6-18.11 1.55-2.47 0.79-5.73-1.69-7.27zM608.63 682.61c-2.33-1.72-5.65-1.25-7.39 1.08-1.75 2.34-1.26 5.65 1.07 7.4 5.39 4 10.48 8.53 15.15 13.45a5.321 5.321 0 0 0 3.84 1.65 5.28 5.28 0 0 0 3.84-8.91 128.877 128.877 0 0 0-16.51-14.67zM504.54 655.88c-7.47 0.5-14.78 1.42-21.67 2.77a5.286 5.286 0 0 0 1.01 10.47c0.33 0 0.68-0.03 1.01-0.09 6.46-1.27 13.31-2.14 20.35-2.6 2.91-0.2 5.12-2.7 4.91-5.61-0.16-2.91-2.26-5.08-5.61-4.94zM648.32 757.1c2.21 6.47 4.11 13.15 5.59 19.87a5.283 5.283 0 0 0 5.16 4.14c0.37 0 0.76-0.04 1.16-0.12 2.85-0.64 4.64-3.46 4-6.3-1.59-7.1-3.57-14.17-5.92-21-0.93-2.79-4.02-4.23-6.71-3.28-2.77 0.93-4.23 3.93-3.28 6.69zM444.18 683.41c0.89 0 1.77-0.22 2.58-0.67 5.8-3.25 12.01-6.07 18.47-8.38 2.74-0.98 4.19-4 3.2-6.75-0.97-2.75-4.07-4.18-6.75-3.2-7.04 2.51-13.79 5.57-20.08 9.1a5.275 5.275 0 0 0-2.02 7.2c0.96 1.73 2.76 2.7 4.6 2.7zM631.62 713.06a5.277 5.277 0 0 0-1.38 7.35c3.69 5.42 7.14 11.38 10.26 17.7a5.31 5.31 0 0 0 4.75 2.95 5.301 5.301 0 0 0 4.75-7.62c-3.34-6.77-7.06-13.16-11.04-19-1.65-2.41-4.95-3-7.34-1.38zM383.11 755.5c-2.8-0.87-5.76 0.68-6.63 3.45-2.14 6.77-3.96 13.87-5.44 21.09a5.284 5.284 0 0 0 4.13 6.23c0.35 0.07 0.71 0.1 1.06 0.1 2.46 0 4.65-1.72 5.17-4.23 1.4-6.86 3.14-13.6 5.15-20.02 0.88-2.78-0.67-5.75-3.44-6.62zM411.55 710.15c1.49 0 2.95-0.62 4-1.83 4.46-5.16 9.35-9.93 14.53-14.18 2.25-1.86 2.58-5.19 0.72-7.44a5.288 5.288 0 0 0-7.45-0.73c-5.61 4.63-10.94 9.82-15.81 15.44a5.304 5.304 0 0 0 0.54 7.45c1.01 0.86 2.25 1.29 3.47 1.29zM657.48 798.06c0.66 6.1 0.72 9.78 0.72 9.93a5.28 5.28 0 0 0 5.28 5.21h0.06c2.91-0.03 5.24-2.42 5.22-5.33 0 0-0.04-4.1-0.8-10.97-0.31-2.9-2.99-4.97-5.82-4.67a5.26 5.26 0 0 0-4.66 5.83z" fill="#FFFFFF" p-id="11771"></path></svg>