<?xml version="1.0" standalone="no"?><!DOCTYPE svg PUBLIC "-//W3C//DTD SVG 1.1//EN" "http://www.w3.org/Graphics/SVG/1.1/DTD/svg11.dtd"><svg t="1597146207213" class="icon" viewBox="0 0 1024 1024" version="1.1" xmlns="http://www.w3.org/2000/svg" p-id="15407" xmlns:xlink="http://www.w3.org/1999/xlink" width="200" height="200"><defs><style type="text/css"></style></defs><path d="M757.1 977.7c-4.2 0-8.2-2.7-9.5-7l-77.1-243.4c-1.7-5.3 1.2-10.9 6.5-12.6 5.3-1.7 10.9 1.2 12.6 6.5l77.1 243.4c1.7 5.3-1.2 10.9-6.5 12.6-1.1 0.3-2.1 0.5-3.1 0.5zM284.6 977.7c-1 0-2-0.2-3-0.5-5.3-1.7-8.2-7.3-6.5-12.6l77.1-243.4c1.7-5.3 7.3-8.2 12.6-6.5 5.3 1.7 8.2 7.3 6.5 12.6l-77.1 243.4c-1.4 4.3-5.3 7-9.6 7z" fill="#444D68" p-id="15408"></path><path d="M700.3 814.3H339.9c-5.5 0-10-4.5-10-10s4.5-10 10-10h360.5c5.5 0 10 4.5 10 10s-4.5 10-10.1 10zM734.9 918.6H306.8c-5.5 0-10-4.5-10-10s4.5-10 10-10h428.1c5.5 0 10 4.5 10 10s-4.5 10-10 10z" fill="#444D68" p-id="15409"></path><path d="M762.4 739.2H279.3c-27.5 0-50-22.5-50-50V217.6c0-27.5 22.5-50 50-50h483.1c27.5 0 50 22.5 50 50v471.6c0 27.5-22.5 50-50 50z" fill="#F9CC12" p-id="15410"></path><path d="M762.4 759.2H279.3c-38.6 0-70-31.4-70-70V217.6c0-38.6 31.4-70 70-70h483.1c38.6 0 70 31.4 70 70v471.6c0 38.6-31.4 70-70 70zM279.3 187.6c-16.5 0-30 13.5-30 30v471.6c0 16.5 13.5 30 30 30h483.1c16.5 0 30-13.5 30-30V217.6c0-16.5-13.5-30-30-30H279.3z" fill="#444D68" p-id="15411"></path><path d="M729.2 471.1H312.5c-3.1 0-5.7-2.6-5.7-5.7V293.2c0-3.1 2.6-5.7 5.7-5.7h416.8c3.1 0 5.7 2.6 5.7 5.7v172.3c-0.1 3.1-2.6 5.6-5.8 5.6z" fill="#186FED" p-id="15412"></path><path d="M729.2 491.1H312.5c-14.2 0-25.7-11.5-25.7-25.7V293.2c0-14.2 11.5-25.7 25.7-25.7h416.8c14.2 0 25.7 11.5 25.7 25.7v172.3c-0.1 14.1-11.6 25.6-25.8 25.6z m-402.4-40h388.1V307.5H326.8v143.6z" fill="#444D68" p-id="15413"></path><path d="M510.9 308.3h20v162.8h-20z" fill="#444D68" p-id="15414"></path><path d="M376.1 399.5c-1.3 0-2.6-0.5-3.5-1.5-2-2-2-5.1 0-7.1l42.6-42.6c2-2 5.1-2 7.1 0s2 5.1 0 7.1L379.6 398c-1 1-2.3 1.5-3.5 1.5zM418.6 382.2c-1.3 0-2.6-0.5-3.5-1.5-2-2-2-5.1 0-7.1l23.1-23.1c2-2 5.1-2 7.1 0s2 5.1 0 7.1l-23.1 23.1c-1 1-2.3 1.5-3.6 1.5zM579.6 399.5c-1.3 0-2.6-0.5-3.5-1.5-2-2-2-5.1 0-7.1l42.6-42.6c2-2 5.1-2 7.1 0s2 5.1 0 7.1L583.2 398c-1 1-2.3 1.5-3.6 1.5zM622.2 382.2c-1.3 0-2.6-0.5-3.5-1.5-2-2-2-5.1 0-7.1l23.1-23.1c2-2 5.1-2 7.1 0s2 5.1 0 7.1l-23.1 23.1c-1 1-2.3 1.5-3.6 1.5z" fill="#FFFFFF" p-id="15415"></path><path d="M401.7 608.9m-51.2 0a51.2 51.2 0 1 0 102.4 0 51.2 51.2 0 1 0-102.4 0Z" fill="#186FED" p-id="15416"></path><path d="M401.7 670.1c-33.7 0-61.2-27.5-61.2-61.2s27.5-61.2 61.2-61.2 61.2 27.5 61.2 61.2-27.5 61.2-61.2 61.2z m0-102.4c-22.7 0-41.2 18.5-41.2 41.2s18.5 41.2 41.2 41.2 41.2-18.5 41.2-41.2-18.5-41.2-41.2-41.2z" fill="#444D68" p-id="15417"></path><path d="M640 608.9m-51.2 0a51.2 51.2 0 1 0 102.4 0 51.2 51.2 0 1 0-102.4 0Z" fill="#186FED" p-id="15418"></path><path d="M640 670.1c-33.7 0-61.2-27.5-61.2-61.2s27.5-61.2 61.2-61.2 61.2 27.5 61.2 61.2-27.4 61.2-61.2 61.2z m0-102.4c-22.7 0-41.2 18.5-41.2 41.2s18.5 41.2 41.2 41.2c22.7 0 41.2-18.5 41.2-41.2s-18.4-41.2-41.2-41.2z" fill="#444D68" p-id="15419"></path></svg>