<?xml version="1.0" standalone="no"?><!DOCTYPE svg PUBLIC "-//W3C//DTD SVG 1.1//EN" "http://www.w3.org/Graphics/SVG/1.1/DTD/svg11.dtd"><svg t="1597148312962" class="icon" viewBox="0 0 1024 1024" version="1.1" xmlns="http://www.w3.org/2000/svg" p-id="2327" xmlns:xlink="http://www.w3.org/1999/xlink" width="200" height="200"><defs><style type="text/css"></style></defs><path d="M1012.262701 38.663501L774.614638 276.299284l7.319695 28.590095-44.887237 44.854491-71.783763-71.783763 44.88212-44.854491 28.637167 7.229644L958.410297 20.726002l53.852404 17.937499zM637.896087 490.797138l-37.353672-76.299604-76.314954-37.364928-190.986417 190.963904 113.661462 113.665556 26.945645-26.919039-23.898245-23.884942 17.932382-17.953872 23.901315 23.890059 23.85629-23.8655-47.886541-47.897797 17.940568-17.945685 47.883471 47.899844 23.897222-23.860383-23.897222-23.891082 17.936476-17.939545 23.898245 23.880849 23.856289-23.864476-47.881424-47.898821 17.932382-17.945685 47.885518 47.899844 20.69121-20.668697z" fill="#6DBCAB" p-id="2328"></path><path d="M186.666027 678.769924l56.850686 56.838406 32.912531-32.907415-38.873278-38.889651 71.784786-71.782739c37.856114 37.897046 75.757253 75.778742 113.659416 113.667602l-71.780693 71.7766-38.876348-38.880442-32.952441 32.907415 56.850686 56.838406 363.66797-363.66183-26.443203-70.945677-52.070832-52.11688-71.065403-26.500508-363.663877 363.656713z m185.238518 185.701052c7.01782 9.918887 6.130615 23.766239-2.756781 32.651589-9.934237 9.910701-25.966343 9.910701-35.910813 0-29.904017-29.916297-59.812128-59.821337-89.721262-89.729448L135.81702 915.07132l44.882121 44.87905c9.940377 9.910701 9.940377 25.984762 0 35.88523-9.897398 9.913771-25.974529 9.918887-35.872951 0L19.195139 870.192269c-9.943446-9.910701-9.943446-25.974529-0.004093-35.881137 9.901491-9.917864 25.974529-9.913771 35.873974 0l44.883143 44.870864 107.699692-107.681272-89.763217-89.736612c-9.901491-9.903538-9.901491-25.973506-0.004093-35.88216 8.88535-8.893536 22.758284-9.799161 32.655682-2.743478l375.384803-375.375593c7.785298-7.803717 19.41515-9.456354 28.850014-4.966095l89.510461 33.379158a25.347244 25.347244 0 0 1 9.09308 5.86558v-0.020466l59.771196 59.829524a25.283799 25.283799 0 0 1 6.17564 10.128664l33.674894 90.357757c3.553935 9.567894 0.971116 19.927825-5.794972 26.711308l0.041956 0.058328-375.338754 375.364337z" fill="#6DBCAB" p-id="2329"></path></svg>